<mxfile host="app.diagrams.net" modified="2023-02-11T10:59:55.435Z" agent="5.0 (Macintosh; Intel Mac OS X 10_15_7) AppleWebKit/537.36 (KHTML, like Gecko) Chrome/109.0.0.0 Safari/537.36" etag="Eyqprt_xrIAD0drWdqHP" version="20.8.11" type="github">
  <diagram name="Page-1" id="5V7_pKLbEzuSfmTmsPUu">
    <mxGraphModel dx="1735" dy="1120" grid="1" gridSize="10" guides="1" tooltips="1" connect="1" arrows="1" fold="1" page="1" pageScale="1" pageWidth="850" pageHeight="1100" math="0" shadow="0">
      <root>
        <mxCell id="0" />
        <mxCell id="1" parent="0" />
        <mxCell id="uyGF0R10JEFHj8agn2pT-1" value="" style="shape=image;verticalLabelPosition=bottom;labelBackgroundColor=default;verticalAlign=top;aspect=fixed;imageAspect=0;image=data:image/png,iVBORw0KGgoAAAANSUhEUgAAA4wAAAMuCAYAAABSHo1HAAAKrGlDQ1BJQ0MgUHJvZmlsZQAASImVlwdQU1kXx+97L52ElhA6hN4E6QSQEkILoPQqKiEJEEoIgaBiR8QVWAsqIthAV0UUXJUia0UU26KoKNYFWQSUdbFgQ+V7wBB295vv++Y7M2fu75137v+ee+fdmfMAoChyxeJ0WBGADFGOJMzPixETG8fADwAI6AI6QIAil5ctZoWEBAHUpse/24f7aDZqdy0ntP79/X81Jb4gmwcAFIJyIj+bl4HyKdRf8sSSHACQfWjcYHGOeILbUKZJ0AJR7p7g5CkenuDEScaAyZyIMDbKNAAIZC5XkgwAmYHGGbm8ZFSH7ImytYgvFKEsRtk9IyOTj/JxlE3RHDRGntBnJv5FJ/lvmokyTS43WcZTe5k0grcwW5zOXfp/Hsf/tox06fQaxqiTUyT+YeiojJ5Zd1pmoIxFifOCp1nIn8yf5BSpf+Q087LZcdPM53oHyuamzwua5iShL0emk8OJmGZBtk/4NEsyw2RrJUnYrGnmSmbWlaZFyuIpAo5MPy8lInqac4VR86Y5Oy08cCaHLYtLpGGy+gUiP6+ZdX1le8/I/st+hRzZ3JyUCH/Z3rkz9QtErBnN7BhZbXyBt89MTqQsX5zjJVtLnB4iyxek+8ni2bnhsrk56Ac5MzdEdoap3ICQaQZskAnSUZcABghCn7wByBEsyZnYCDtTvFQiTE7JYbDQGyZgcEQ8q1kMW2tbOwAm7uvU5/COPnkPIfr1mVj+ewDc+OPj42dmYkGGAJxaBwDpxUzM5BwA8qoAXC3mSSW5U7HJu4QFJKAAaEAd6AADYAosgS1wBK7AE/iAABAMIkAsWAh4IAVkoJUvBsvBGlAIisFmsB1UgL1gPzgMjoEToAmcARfBFXAD3AZd4DHoAf3gFRgBH8AYBEF4iAJRIXVIFzKCLCBbiAm5Qz5QEBQGxUIJUDIkgqTQcmgtVAyVQhVQFVQD/Qydhi5C16BO6CHUCw1Bb6EvMAKTYRqsDRvDs2EmzIID4Qh4AZwMZ8F5cAG8ES6Hq+GjcCN8Eb4Bd8E98Ct4FAGIHEJH9BBLhImwkWAkDklCJMhKpAgpQ6qROqQFaUfuIj3IMPIZg8NQMQyMJcYV44+JxPAwWZiVmBJMBeYwphHThrmL6cWMYL5jKVgtrAXWBcvBxmCTsYuxhdgy7EFsA/Yytgvbj/2Aw+HoOBOcE84fF4tLxS3DleB24+pxF3CduD7cKB6PV8db4N3wwXguPgdfiN+JP4o/j7+D78d/IsgRdAm2BF9CHEFEyCeUEY4QzhHuEAYIY0RFohHRhRhM5BOXEjcRDxBbiLeI/cQxkhLJhORGiiClktaQykl1pMukJ6R3cnJy+nLOcqFyQrnVcuVyx+WuyvXKfSYrk83JbHI8WUreSD5EvkB+SH5HoVCMKZ6UOEoOZSOlhnKJ8ozySZ4qbyXPkefLr5KvlG+UvyP/WoGoYKTAUliokKdQpnBS4ZbCsCJR0ViRrchVXKlYqXha8YHiqBJVyUYpWClDqUTpiNI1pUFlvLKxso8yX7lAeb/yJeU+KkI1oLKpPOpa6gHqZWo/DUczoXFoqbRi2jFaB21ERVnFXiVKZYlKpcpZlR46Qjemc+jp9E30E/T79C+q2qosVYHqBtU61TuqH9U01TzVBGpFavVqXWpf1BnqPupp6lvUm9SfamA0zDVCNRZr7NG4rDGsSdN01eRpFmme0HykBWuZa4VpLdPar3VTa1RbR9tPW6y9U/uS9rAOXcdTJ1Vnm845nSFdqq67rlB3m+553ZcMFQaLkc4oZ7QxRvS09Pz1pHpVeh16Y/om+pH6+fr1+k8NSAZMgySDbQatBiOGuoZzDZcb1ho+MiIaMY1SjHYYtRt9NDYxjjZeb9xkPGiiZsIxyTOpNXliSjH1MM0yrTa9Z4YzY5qlme02u20OmzuYp5hXmt+ygC0cLYQWuy06Z2FnOc8Szaqe9cCSbMmyzLWstey1olsFWeVbNVm9nm04O272ltnts79bO1inWx+wfmyjbBNgk2/TYvPW1tyWZ1tpe8+OYudrt8qu2e6NvYW9wH6PfbcD1WGuw3qHVodvjk6OEsc6xyEnQ6cEp11OD5g0ZgizhHnVGevs5bzK+YzzZxdHlxyXEy5/ulq6prkecR2cYzJHMOfAnD43fTeuW5VbjzvDPcF9n3uPh54H16Pa47mngSff86DnAMuMlco6ynrtZe0l8Wrw+sh2Ya9gX/BGvP28i7w7fJR9In0qfJ756vsm+9b6jvg5+C3zu+CP9Q/03+L/gKPN4XFqOCMBTgErAtoCyYHhgRWBz4PMgyRBLXPhuQFzt859Ms9onmheUzAI5gRvDX4aYhKSFfJLKC40JLQy9EWYTdjysPZwavii8CPhHyK8IjZFPI40jZRGtkYpRMVH1UR9jPaOLo3uiZkdsyLmRqxGrDC2OQ4fFxV3MG50vs/87fP74x3iC+PvLzBZsGTBtYUaC9MXnl2ksIi76GQCNiE64UjCV24wt5o7mshJ3JU4wmPzdvBe8T352/hDAjdBqWAgyS2pNGkw2S15a/JQikdKWcqwkC2sEL5J9U/dm/oxLTjtUNp4enR6fQYhIyHjtEhZlCZqy9TJXJLZKbYQF4p7slyytmeNSAIlB7Oh7AXZzTk0tDG6KTWVrpP25rrnVuZ+Why1+OQSpSWiJTeXmi/dsHQgzzfvp2WYZbxlrcv1lq9Z3ruCtaJqJbQycWXrKoNVBav6V/utPryGtCZtza/51vml+e/XRq9tKdAuWF3Qt85vXW2hfKGk8MF61/V7f8D8IPyhY4Pdhp0bvhfxi64XWxeXFX8t4ZVc/9Hmx/IfxzcmbezY5Lhpz2bcZtHm+1s8thwuVSrNK+3bOndr4zbGtqJt77cv2n6tzL5s7w7SDumOnvKg8uadhjs37/xakVLRVelVWb9La9eGXR9383ff2eO5p26v9t7ivV/2Cfd1V/lVNVYbV5ftx+3P3f/iQNSB9p+YP9Uc1DhYfPDbIdGhnsNhh9tqnGpqjmgd2VQL10prh47GH719zPtYc51lXVU9vb74ODguPf7y54Sf758IPNF6knmy7pTRqV0N1IaiRqhxaeNIU0pTT3Nsc+fpgNOtLa4tDb9Y/XLojN6ZyrMqZzedI50rODd+Pu/86AXxheGLyRf7Whe1Pr4Uc+leW2hbx+XAy1ev+F651M5qP3/V7eqZay7XTl9nXm+64Xij8abDzYZfHX5t6HDsaLzldKv5tvPtls45nefueNy5eNf77pV7nHs3uuZ1dd6PvN/9IP5BTze/e/Bh+sM3j3IfjT1e/QT7pOip4tOyZ1rPqn8z+62+x7HnbK93783n4c8f9/H6Xv2e/fvX/oIXlBdlA7oDNYO2g2eGfIduv5z/sv+V+NXYcOEfSn/sem36+tSfnn/eHIkZ6X8jeTP+tuSd+rtD7+3ft46GjD77kPFh7GPRJ/VPhz8zP7d/if4yMLb4K/5r+Tezby3fA78/Gc8YHxdzJdzJVgBBHU5KAuDtIQAosQBQb6P9w/ypfnrSoKl/gEkC/4mneu5JcwSgDh0m2iL2BQCOo268GtX2BGCiJYrwBLCdncyne9/JPn3CcOgfyz73CepSi/EG/7CpHv4vdf9zBBOq9uCf478AuhAGBoGDq0IAAACKZVhJZk1NACoAAAAIAAQBGgAFAAAAAQAAAD4BGwAFAAAAAQAAAEYBKAADAAAAAQACAACHaQAEAAAAAQAAAE4AAAAAAAAAkAAAAAEAAACQAAAAAQADkoYABwAAABIAAAB4oAIABAAAAAEAAAOMoAMABAAAAAEAAAMuAAAAAEFTQ0lJAAAAU2NyZWVuc2hvdF6Y7ZwAAAAJcEhZcwAAFiUAABYlAUlSJPAAAAHWaVRYdFhNTDpjb20uYWRvYmUueG1wAAAAAAA8eDp4bXBtZXRhIHhtbG5zOng9ImFkb2JlOm5zOm1ldGEvIiB4OnhtcHRrPSJYTVAgQ29yZSA2LjAuMCI+CiAgIDxyZGY6UkRGIHhtbG5zOnJkZj0iaHR0cDovL3d3dy53My5vcmcvMTk5OS8wMi8yMi1yZGYtc3ludGF4LW5zIyI+CiAgICAgIDxyZGY6RGVzY3JpcHRpb24gcmRmOmFib3V0PSIiCiAgICAgICAgICAgIHhtbG5zOmV4aWY9Imh0dHA6Ly9ucy5hZG9iZS5jb20vZXhpZi8xLjAvIj4KICAgICAgICAgPGV4aWY6UGl4ZWxZRGltZW5zaW9uPjgxNDwvZXhpZjpQaXhlbFlEaW1lbnNpb24+CiAgICAgICAgIDxleGlmOlBpeGVsWERpbWVuc2lvbj45MDg8L2V4aWY6UGl4ZWxYRGltZW5zaW9uPgogICAgICAgICA8ZXhpZjpVc2VyQ29tbWVudD5TY3JlZW5zaG90PC9leGlmOlVzZXJDb21tZW50PgogICAgICA8L3JkZjpEZXNjcmlwdGlvbj4KICAgPC9yZGY6UkRGPgo8L3g6eG1wbWV0YT4KtSfcigAAABxpRE9UAAAAAgAAAAAAAAGXAAAAKAAAAZcAAAGXAAB++lyIDDwAAEAASURBVHgB7N0HnBRF2sfxh5wzCIggQUBAEQUERUBAMaBiQvQ8Fb3T81BPz6yoiIo5nGfA1xzOrIASVFAQlaQgUVRylIzkHN56aunentme3ZlN0z3z6/sc27mrvzW7zr+ru7rIATMIAwIIIIAAAggggAACCCCAAAJRAkUIjFEiTCKAAAIIIIAAAggggAACCFgBAiMfBAQQQAABBBBAAAEEEEAAAV8BAqMvCzMRQAABBBBAAAEEEEAAAQQIjHwGEEAAAQQQQAABBBBAAAEEfAUIjL4szEQAAQQQQAABBBBAAAEEECAw8hlAAAEEEEAAAQQQQAABBBDwFSAw+rIwEwEEEEAAAQQQQAABBBBAgMDIZwABBBBAAAEEEEAAAQQQQMBXgMDoy8JMBBBAAAEEEEAAAQQQQAABAiOfAQQQQAABBBBAAAEEEEAAAV8BAqMvCzMRQAABBBBAAAEEEEAAAQQIjHwGEEAAAQQQQAABBBBAAAEEfAUIjL4szEQAAQQQQAABBBBAAAEEECAw8hlAAAEEEEAAAQQQQAABBBDwFSAw+rIwEwEEEEAAAQQQQAABBBBAgMDIZwABBBBAAAEEEEAAAQQQQMBXgMDoy8JMBBBAAAEEEEAAAQQQQAABAiOfAQQQQAABBBBAAAEEEEAAAV8BAqMvCzMRQAABBBBAAAEEEEAAAQQIjHwGEEAAAQQQQAABBBBAAAEEfAUIjL4szEQAAQQQQAABBBBAAAEEECAw8hlAAAEEEEAAAQQQQAABBBDwFSAw+rIwEwEEEEAAAQQQQAABBBBAgMDIZwABBBBAAAEEEEAAAQQQQMBXgMDoy8JMBBBAAAEEEEAAAQQQQAABAiOfAQQQQAABBBBAAAEEEEAAAV8BAqMvCzMRQAABBBBAAAEEEEAAAQQIjHwGEEAAAQQQQAABBBBAAAEEfAUIjL4szEQAAQQQQAABBBBAAAEEECAw8hlAAAEEEEAAAQQQQAABBBDwFSAw+rIwEwEEEEAAAQQQQAABBBBAgMDIZwABBBBAAAEEEEAAAQQQQMBXgMDoy8JMBBBAAAEEEEAAAQQQQAABAiOfAQQQQAABBBBAAAEEEEAAAV8BAqMvCzMRQAABBBBAAAEEEEAAAQQIjHwGEEAAAQQQQAABBBBAAAEEfAUIjL4szEQAAQQQQAABBBBAAAEEECAw8hlAAAEEEEAAAQQQQAABBBDwFSAw+rIwEwEEEEAAAQQQQAABBBBAgMDIZwABBBBAAAEEEEAAAQQQQMBXgMDoy8JMBBBAAAEEEEAAAQQQQAABAiOfAQQQQAABBBBAAAEEEEAAAV8BAqMvCzMRQAABBBBAAAEEEEAAAQQIjHwGEEAAAQQQQAABBBBAAAEEfAUIjL4szEQAAQQQQAABBBBAAAEEECAw8hlAAAEEEEAAAQQQQAABBBDwFSAw+rIwEwEEEEAAAQQQQAABBBBAgMDIZwABBBBAAAEEEEAAAQQQQMBXgMDoy8JMBBBAAAEEEEAAAQQQQAABAiOfAQQQQCCXAr989nQut2QzBBBIlkCLnjcn69AcFwEEEAilAIExlNVGoRFAIAgCBMYg1AJlQCAxAQJjYl6sjQACCBAY+QwggAACuRQgMOYSjs0QSKIAgTGJ+BwaAQRCKUBgDGW1UWgEEAiCAIExCLVAGRBITIDAmJgXayOAAAIERj4DCCCAQC4FogNj4659crknNkMAgYISmDfmzYhdExgjOJhAAAEEchQgMOZIxAoIIICAvwCB0d+FuQgESYDAGKTaoCwIIBBGAQJjGGuNMiOAQCAECIyBqAYKgUC2AgTGbHlYiAACCOQoQGDMkYgVEEAAAX8BAqO/C3MRCJIAgTFItUFZEEAgjAIExjDWGmVGAIFACBAYA1ENFAKBbAUIjNnysBABBBDIUYDAmCMRKyCAAAL+AgRGfxfmIhAkAQJjkGqDsiCAQBgFCIxhrDXKjAACgRAgMAaiGigEAtkKEBiz5WEhAgggkKMAgTFHIlZAAAEE/AUIjP4uzEUgSAIExiDVBmVBAIEwChAYw1hrlBkBBAIhQGAMRDVQCASyFSAwZsvDQgQQQCBHAQJjjkSsgAACCPgLEBj9XZiLQJAECIxBqg3KggACYRQgMIax1igzAggEQoDAGIhqoBAIZCtAYMyWh4UIIIBAjgIExhyJWAEBBBDwFyAw+rswF4EgCRAYg1QblAUBBMIoQGAMY61RZgQQCIQAgTEQ1UAhEMhWgMCYLQ8LEUAAgRwFCIw5ErECAggg4C9AYPR3YS4CQRIgMAapNigLAgiEUYDAGMZao8wIIBAIAQJjIKqBQiCQrQCBMVseFiKAAAI5ChAYcyRiBQQQQMBfgMDo78JcBIIkQGAMUm1QFgQQCKMAgTGMtUaZEUAgEAIERp9qOHBAdm3flLmgSFEpVbZi5jRjCBSyAIGxkME5HAIIpJwAgTHlqpQTQgCBwhIgMGaVXjN/qnz/9t3ugmLFS8i59w13pxlBoLAFCIyFLc7xEEAg1QQIjKlWo5wPAggUmgCBMSv1+mW/yuSPHpb9e3aalsbNQmDMalQYc3ZsWidlKlUvjEMF/hgExsBXEQVEAIGACxAYA15BFA8BBIIrQGCMXTdrF06X7968g8AYm6hAlmxY8bv88OZdUrRYMTnrzo8L5Bhh2ymBMWw1RnkRQCBoAgTGoNUI5UEAgdAIEBhjVxWBMbZNQS7547eJMvG9++1zowTGDGkCY0F+4tg3AgikgwCBMR1qmXNEAIECESAwZrDu2rpRNq1aJJvXLJI9u3ZIybIVZO/uHTJ79OvZtjBuWbdM/lwxVzauXGhbxKrWOVKq1m0qpStUy76+TMc661f8JpvMdpvXLBEx03rMSjUbSc0mraV4idJ2+wMH9svquT+5+ypdsbpUrt3IndYRDbb79uyy80pVqCpVDm1sx7X86xbNlEq1GkpR8xzmop9Gyo4t66XqYUdKvVbd7Dp6++2q3ydLkSJFzLxTpUL1w+z86H+2bfhDNiyfK5tWLzQuu8x6deSQRsdlWX/1vClyYP8+u3m5qrWlQo16snvnVlk+a5w9z6JFi0t5s+1hR3WSkmUquIfZv3e3rFkwzU6vWTxT5o3/xLq3732vu453pErdI02grOSdldLjBMaUrl5ODgEECkGAwFgIyBwCAQRSUyDdA+OeXdtl5hcvyeKfv4pZwX7PMGpAmz7ihZjbHdnpEmne7XITxIpm2a8GxB8/fsSEr0VZlumMIkWLSbPOl0qzLpfKXvMc5WcP9nTX07DX5Zpn3WkdGXz/mW5Iq1SzgZxy3Ut2+Za1S2XUc1dL7abtZd3iWSYIb3O3a3zCBbJz63pZNutbd54et8dt70mpcpXdeRo6Z458SRb9/KU7zzvS4LjT5dhzbjRlzjjPT+87zV1cp/lJUvvIE2Tq0Kfd8jkL1fTEvwyQQ45obWdtWbdcRv33b87iHH+edNlAqdm4TY7rpcoKBMZUqUnOAwEEkiVAYEyWPMdFAIHQC6RzYNy/b4988fTlsnPLBluPNeq3NK1vzaRYiVKydcMKG6a0tcwvMI59+UbT4vab3a52k/ZSo/7RstsEspXmdkonCB52VGdpd1Fmb6u68raNq+TLp6+w2+k/1Q8/2rQANpISpcrIbtPBzopfx8uubRtNGGorJ132kGgZf/r0Cdm8yrREmtZMv8D489BnRJ/70+P6BUbnYFXqNJHiJcvI2kUznFn2ts+aR7SRpTPH2HmtelwvjdqdnbHctHp+/eI/3fOp17KrVKvXwi774/dJsnpeRstny9OvkcYnXmDnzxr1mmwwrZbrlsyybvv27rHz9dhVDmsqW9Yusy2iOrO0aQ0989Z3bajWFt7pI1+0627fuNq1VUO/4ajuV0m5yrX8FqXkPAJjSlYrJ4UAAoUoQGAsRGwOhQACqSWQzoFx1levytzxGZ2qdOrzmNRo2CqictfMn2Zer3FnlsDoPGOnK7e7qJ+9vdLd0ISsacOek4VTRthZ3f75YsQtpONeu9UNU53+9pRUrdPU3VRHlkwbLVOGPOkGRmfh3O8/klmjX/MNjLrOwknDZNrI52MGxsPN7aZtzr9V9NbPIQ9kBEINj2ff9bG5lbaEfPf6bbLW3Ara+MQLpeXpV9vDLjS3sE4b9qxt8ex2rdm3ubXVO0wfMUgWTB5ql59996dSwuxPB70Ndtwbt7mrtu99n9Rp0cGdXjB5mGmdfd5Od/7bkzY0uwvNiOOr777kGcYMGQKj9xPCOAIIIJC4AIExcTO2QAABBKxAOgdG51ZOb0jyfixidXrjhD6/1j7d/sD+/TLskQvtLaDaKtf2wjvsbnduXi8jnvyLHT/unJukQZsz7Lj3n4IKjD1ufU9KV8x4rvLzgefbsjU7+VJp3vVye3htpdTbThu26WFuMf2XnffVs1fJ1vUrRG9fbXnGNd5i2nF97cXIpy61493++YIJxkfY8U2mNVRbJnU46pQrpWmni+2484/6fPbQOaKtj23Ov00Ob3WKs8j+JDBGcNgJAmNWE+YggAACiQgQGBPRYl0EEEDAI5CugVFvQx3xxCVW4pS+g7K0numCWIFx+GO97W2jLU+7Whp3uNCjmTk6wzz3N3/SELtf3b8Oa+ZPNS2WGbeonnvfcNtymblFxpg+M7hr+ybb6Y33WcK8tDDqs4nn3z/SPdTwR3vZ90t6W1Vtq+hPw01gPNM+k6grO4G6TKVDpHLNyNZFZ2er5v9kn0/s8NcHpVaT4+3szebZydHm2Ukdzr33c3uLr53w/GNvdTXBskW3PnJk54x6cBYTGB2JzJ8ExkwLxhBAAIHcCBAYc6PGNggggIARSNfA6IRB/RD0vGeofbYv+gPhrBP9DKPTscvxpuWwrmlB9BucW0T1tk/dvw7zJw6VGV8Mssdy5vlt6zcvXwPjwcCbXWDUZwqHP97bryi+81r3vFnqt87o8MYbGC94wL8zoe/futP2itq0Y2856tSrIvZJYIzgsBMExqwmzEEAAQQSESAwJqLFuggggIBHIF0Do/c5u0QDo9Py5nc7pUM7b8KnMvPLl22Po2fd8aGdvWjKF/Lz5/+x4xcMML2OmldZxDs4gbFK7cbS9Z8Zz/95t3UCql+nN1laGOMIjNp77OcDz7OH0FCnx81uqG46/SlVPqN31XgC4w9v95PV86cIgTE71cxlBMZMC8YQQACB3AgQGHOjxjYIIICAEUjXwOjtrTTWLalLpn8tUwY/kaXTm5FPXSY7Nq2RI9qfJ8ecea3v52ja5/+1Hd9oL6jasYsO+s7Db1+5yY7HOqZd6POPEzbLV6sjp934epY1fh37rswZ+7Zvpze5CYx6gKEPnBXzOcMsBfDMyGtg1N5Xf3jnHtuZjvdWWs8h0m6UwJh2Vc4JI4BAPgsQGPMZlN0hgED6CKRrYNy/b68MGdDDVnSjdj2lVY++kZVuejsdaV65ocFQB++tlZM/GijLZ39ng+Q5dw+WosVLRmyr72gc9sgFNmx5Q+Ue83zi5w+da9fVlsBufV/0fU+jrqC3hDotdjq90rzGYsK7/W2IOq//8IjtdmxaK188c4V9llBfNXH6zW/pJuYVFhnvYcxtYHReHaIhtfu/Xo04pj3AwX9279giJctUcGflNTDqazX0dSc66Lmk0+szXMSoEQJjFAiTCCCAQIICBMYEwVgdAQQQcATSNTDq+U98f4D88esES3HCxf3l0OYn2nENfPMmDJFfvnnDTus/Z9/1iRuKtOdQ7UFUB+0ptWOfR91nILXTmkkfDrTvKNSg1uO29+xtqXZl888vX78hv333gZ3U0Hjcuf+Wqoc2sben6jsXtRVyxogXZdufq6TH7e+7+/W+2P64nv+WBq1Pt/vQsPbdG7eL9kyqg/dVFHkNjPouRe0RVofaTdtLa1NWb0c8esw5Y9+x56qvv9DnNXXIa2DUfTitm9XNex87XD7Q3bf2sDr3h49s762tz7tFV02LgcCYFtXMSSKAQAEKEBgLEJddI4BAagukc2B0ApVTw2UqVZeSpSu4L6rX3kF3bllvW+40iFU5rJl0+OsDdvU5Y96WX799145rMKxQ9VApVqqMbF69yLYs6oJjz7xeGrbPeOehXdH8o+9B/Oal62XzmiXOLPtT979r++aIeZ3//rRoYHKGbwZdJxtXzreTGjaLFi9hphfY8h3a7EQ3/JauUFWamFdh1Gp6vIwyvZXmtoVRDzR1yFOyeNoopwiiJqXNs4pb162wr+bQBbr/Ltc8K1UOzXjOMT8Co/N6Ed2/djpU7fCjZN/unbJhxVx7vjo/1rOnuizVBgJjqtUo54MAAoUtQGAsbHGOhwACKSOQzoFRK1HDzcT37rctVt5KrdGwlbTvfY99of0mEwJ1qFi9rpxqbs10hlW/T5apphMbfUWHd9BQdXyvOyPCnnf5gQPaSvax/DbufdEWSe+g4avuUZ2lxSl9pGzlmt5Foq2ME/53r2zd8Ic7X1v16h17irQ6s68M7n+GO1/fLdno+B7y5X+uzBIY9XUiWuZOVz0pNUxnNTpMN62aCyZ/ZrY5R1qddZ27Hx1ZOuMbmT78BTcgOgs1yGkvsc26XCplK2WW1dsa6r2V19lOfzqd3njfBeldruMLJg+TWV/9nxvAneU16rc0txBfJxVr1ndmpfxPAmPKVzEniAACBSxAYCxgYHaPAAKpK5DugdGpWX2+UFsci5rAVvGQ+lK0WHFnUY4/NfRtXLXAPONXzHQ6U9+9fTLHDc0Ku3duMWH1D9m/e5eUNC13FaodZgJe0ZibatjUW2J3bv3T3h5asUa9mOvm9wK9/dWGZ3NbaOmK1U1Z6yTU02tuyqO36WoA3b1tk5Q0rbAVatQ1dVMiN7sK9TYExlBXH4VHAIEACBAYA1AJFAEBBMIpQGAMZ71R6vQSIDCmV31ztgggkP8CBMb8N2WPCCCQJgIExjSpaE4z1AIExlBXH4VHAIEACBAYA1AJFAEBBMIpQGAMZ71R6vQSIDCmV31ztgggkP8CBMb8N2WPCCCQJgIExjSpaE4z1AIExlBXH4VHAIEACBAYA1AJFAEBBMIpQGAMZ71R6vQSIDCmV31ztgggkP8CBMb8N2WPCCCQJgIExjSpaE4z1AIExlBXH4VHAIEACBAYA1AJFAEBBMIpQGAMZ71R6vQSIDCmV31ztgggkP8CBMb8N2WPCCCQJgIExjSpaE4z1AIExlBXH4VHAIEACBAYA1AJFAEBBMIpQGAMZ71R6vQSIDCmV31ztgggkP8CBMb8N2WPCCCQJgIExjSpaE4z1AIExlBXH4VHAIEACBAYA1AJFAEBBMIpQGAMZ71R6vQSIDCmV31ztgggkP8CBMb8N2WPCCCQJgIExjSpaE4z1AIExlBXH4VHAIEACBAYA1AJFAEBBMIpQGAMZ71R6vQSIDCmV31ztgggkP8CBMb8N2WPCCCQJgIExjSpaE4z1AIExlBXH4VHAIEACBAYA1AJFAEBBMIpQGAMZ71R6vQSIDCmV31ztgggkP8CBMb8N2WPCCCQJgIExjSpaE4z1AIExlBXH4VHAIEACBAYA1AJFAEBBMIpQGAMZ71R6vQSIDCmV31ztgggkP8CBMb8N2WPCCCQJgLRgTFNTpvTRCDUAi163hzq8lN4BBBAoLAFCIyFLc7xEEAgZQQIjClTlZxIGgkQGNOosjlVBBDIFwECY74wshMEEEhHAQJjOtY65xx2AQJj2GuQ8iOAQGELEBgLW5zjIYBAyggQGFOmKjmRNBIgMKZRZXOqCCCQLwIExnxhZCcIIIAAAggggAACCCCAQOoJEBhTr045IwQQQAABBBBAAAEEEEAgXwQIjPnCyE4QQAABBBBAAAEEEEAAgdQTIDCmXp1yRggggAACCCCAAAIIIIBAvggQGPOFkZ0ggAACCCCAAAIIIIAAAqknQGBMvTrljBBAAAEEEEAAAQQQQACBfBEgMOYLIztBAAEEEEAAAQQQQAABBFJPgMCYenXKGSGAAAII5IPA7m2bpYjZT4lyFfNhb+wCAQQQQACBcAoQGMNZb5QaAQQQQKCABWa/94wUKVpUWlx8YwEfid0jgAACCCAQXAECY3DrhpIhgAACCCRJYOuqJTJuQB8pUqSIdLr3dSlfu36SSsJhEUAAAQQQSK4AgTG5/hwdAQQQQCCAApOevknWz51uS1at6XHS/t9PB7CUFAkBBBBAAIGCFyAwFrwxR0AAAQQQCJHA6hnjZcqgfhElbtN3oNRs2SFiHhMIIIAAAgikgwCBMR1qmXNEAAEEEIhL4MD+/TKu/2Wybe2KiPXL1agjnQe8Y59pjFjABAIIIIAAAikuQGBM8Qrm9BBAAAEE4hdYNOYTmfPR874btOh9g9TvcoHvMmYigAACCCCQqgIExlStWc4LAQQQQCAhgb07t8mYuy+WPdu3+G5XomwF6frwB1K8dDnf5cxEAAEEEEAgFQUIjKlYq5wTAggggEDCAtqyqC2M2Q0NuvWS5r2uy24VliGAAAIIIJBSAgTGlKpOTgYBBBBAIDcCOzaslrH3XioH9u3NdvMixYpLlwfflTJVa2a7HgsRQAABBBBIFQECY6rUJOeBAAIIIJBrgamD7pFVM36Ia/tarTpK62sfjGtdVkIAAQQQQCDsAgTGsNcg5UcAAQQQyJPAxkVzZPxjfRPaR4c7XpTKDZontA0rI4AAAgggEEYBAmMYa40yI4AAAgjkm8D3A6+WzcvmufsrX+tw2bpqiTutI9HzKtZtLB37vRKxDhMIIIAAAgikogCBMRVrlXNCAAEEEIhLYPmkr2TGm49ErHv8DY/Jj8/dETGv7fWPyk/P3xkx75g+d8lh7U+LmMcEAggggAACqSZAYEy1GuV8EEAAAQTiEti/d4+M7XeJ7Ny0zl2/WuNjpP0tz8qIa0925+lIj5e+lUlP3Sjr581w55euVF26DHxfihYv4c5jBAEEEEAAgVQTIDCmWo1yPggggAACcQnMG/GmzB32Zua6RYpI5/vekPK16/sGxq0rF8u4B64UOXDA3abJ2VdK4x5XuNOMIIAAAgggkGoCBMZUq1HOBwEEEEAgR4HdWzfKmLsvln27d7rr1ut4jhx96c122q+FURfM+t9TsvSHYe42xUqWlq4PfyAly1d25zGCAAIIIIBAKgkQGFOpNjkXBBBAAIG4BGa89agsn/ilu27x0uVs8CtRtoKdFysw+gXNuiecIS2viHzm0d0xIwgggAACCIRcgMAY8gqk+AgggAACiQn43Vp65Pn/kEbdL3F3FCsw6goLRr0nvw1+2V1XPLeyZs5kDAEEEEAAgdQQIDCmRj1yFggggAACcQpEd15TpmpN6fLgu1KkWHF3D9kFxgP79srYey+VHRtWu+s7neW4MxhBAAEEEEAgRQQIjClSkZwGAggggEDOAqtnjJcpg/pFrHjcNQOk9nGdI+ZlFxh1xZVTxsrPrw6I2KZN34FSs2WHiHlMIIAAAgggEHYBAmPYa5DyI4AAAgjEJXBg/34Z1/8y2bZ2hbt+5QbNpcMdL7rTzkhOgVHXG/9YX9m4aI6ziZSrUUc6D3hHihQt6s5jBAEEEEAAgbALEBjDXoOUHwEEEEAgLoFFYz6ROR89H7Fux36vSMW6jSPm6UQ8gXHzsnny/cCrI7Zt0fsGqd/lgoh5TCCAAAIIIBBmAQJjmGuPsiOAAAIIxCWwd+c2+xqNPdu3uOsf1v40OabPXe60dySewKjrT399oKz4cbS7qfayqq/Z0F5XGRBAAAEEEEgFAQJjKtQi54AAAgggkK2AtixqC6MzFC1eQroMfF9KV6ruzIr4GW9g3LlpnYztd4ns37vH3b5Bt17SvNd17jQjCCCAAAIIhFmAwBjm2qPsCCCAAAI5CmhvptqrqfZu6gxNzu4jjXv0cSaz/Iw3MOqGc4e9LvNGvO3uQ3tb1V5XtfdVBgQQQAABBMIuQGAMew1SfgQQQACBbAWmDrpHVs34wV1HWxW1dVFbGWMNiQTGfbt32ttdd2/d6O6uVquO0vraB91pRhBAAAEEEAirAIExrDVHuRFAAAEEchT4c8FsmfDE9RHrtbrybqnTrnvEvOiJRAKjbrt84pcy461HI3Zz4u3PS5WGR0XMYwIBBBBAAIGwCRAYw1ZjlBcBBBBAIG4B7cVUezN1Bu0RVXtGzWlINDDKgQMy7oErZevKxe6uK9VrIifd/bI7zQgCCCCAAAJhFCAwhrHWKDMCCCCAQI4Ce3dul5nvPCErp4511z3x9hdMq18LdzrWSMKB0ewoujWzdusu0vLy26V4qTKxDsN8BBBAAAEEAi9AYAx8FVFABBBAAIG8CGiQm/3+M1K2+qFxP1eYm8CoZZwyqJ/sWL9Kjrrk31KlEbej5qXe2BYBBBBAIBgCBMZg1AOlQAABBBAoYAF9B6O+JzGeIbeBcc+2zVKiXMV4DsE6CCCAAAIIhEKAwBiKaqKQCCCAAAKFKZDbwFiYZeRYCCCAAAIIFIYAgbEwlDkGAggggECoBAiMoaouCosAAgggUIACBMYCxGXXCCCAAALhFCAwhrPeKDUCCCCAQP4LEBjz35Q9IoAAAgiEXIDAGPIKpPgIIIAAAvkmQGDMN0p2hAACCCCQKgIExlSpSc4DAQQQQCCvAgTGvAqyPQIIIIBAygkQGFOuSjkhBBBAAIFcChAYcwnHZggggAACqStAYEzduuXMEEAAAQQSEyAwJubF2ggggAACaSBAYEyDSuYUEUAAAQTiEiAwxsXESggggAAC6SRAYEyn2uZcEUAAAQSyEyAwZqfDMgQQQACBtBQgMKZltXPSCCCAAAI+AgRGHxRmIYAAAgiktwCBMb3rn7NHAAEEEMgUIDBmWjCGAAIIIICAFSAw8kFAAAEEEEAgQ4DAyCcBAQQQQACBKAECYxQIkwgggAACaStAYEzbqufEEUAAAQRiCRAYY8kwHwEEEEAg3QQIjOlW45wvAggggECOAgTGHIlYAQEEEEAgTQQIjGlS0ZwmAggggED8AgTG+K1YEwEEEEAgtQUIjKldv5wdAggggEAuBAiMuUBjEwQQQACBlBQgMKZktXJSCCCAAAJ5ESAw5kWPbRFAAAEEUkmAwJhKtcm5IIAAAgjkiwCBMV8Y2QkCCCCAQAoIEBhToBI5BQQQQACB/BUgMOavJ3tDAAEEEAivAIExvHVHyRFAAAEECkiAwFhAsOwWAQQQQCB0AgTG0FUZBUYAAQQQKGgBAmNBC7N/BBBAAIGwCBAYw1JTlBMBBBBAoNAECIyFRs2BEEAAAQQCLkBgDHgFUTwEEEAAgcIXWD93esRBqzVpFTHNBAIIIIAAAukiQGBMl5rmPBFAAAEEEEAAAQQQQACBBAUIjAmCsToCCCCAAAIIIIAAAgggkC4CBMZ0qWnOEwEEEEAAAQQQQAABBBBIUIDAmCAYqyOAAAIIIIAAAggggAAC6SJAYEyXmuY8EUAAAQQQQAABBBBAAIEEBQiMCYKxOgIIIIAAAggggAACCCCQLgIExnSpac4TAQQQQAABBBBAAAEEEEhQgMCYIBirI4AAAggggAACCCCAAALpIkBgTJea5jwRQAABBBBAAAEEEEAAgQQFCIwJgrE6AggggAACCCCAAAIIIJAuAgTGdKlpzhMBBBBAAAEEEEAAAQQQSFCAwJggGKsjgIDIL589DQMCCCCAAAIJC7ToeXPC27ABAggkV4DAmFx/jo5AKAUIjKGsNgqNAAIIJF2AwJj0KqAACCQsQGBMmIwNEECAwMhnAAEEEEAgNwIExtyosQ0CyRUgMCbXn6MjEEoBAmMoq41CI4AAAkkXIDAmvQooAAIJCxAYEyZjAwQQiA6Mjbv2AQUBBBBAAIEsAvPGvBkxj8AYwcEEAqEQIDCGopooJALBEiAwBqs+KA0CCCAQVAECY1BrhnIhEL8AgTF+K9ZEAIGDAgRGPgoIIIAAAvEIEBjjUWIdBIItQGAMdv1QOgQCKUBgDGS1UCgEEEAgcAIExsBVCQVCIGEBAmPCZGyAAAIERj4DCCCAAALxCBAY41FiHQSCLUBgDHb9UDoEAilAYAxktVAoBBBAIHACBMbAVQkFQiBhAQJjwmRsgAACBEY+AwgggAAC8QgQGONRYh0Egi1AYAx2/VA6BAIpQGAMZLVQKAQQQCBwAgTGwFUJBUIgYQECY8JkbIAAAgRGPgMIIIAAAvEIEBjjUWIdBIItQGAMdv1QOgQCKUBgDGS1UCgEEEAgcAIExsBVCQVCIGEBAmPCZGyAAAIERj4DCCCAAALxCBAY41FiHQSCLUBgDHb9UDoEAilAYAxktVAoBBBAIHACBMbAVQkFQiBhAQJjwmRsgAACBEY+AwgggAAC8QgQGONRYh0Egi1AYAx2/VA6BAIpQGAMZLVQKAQQQCBwAgTGwFUJBUIgYQECY8JkbIAAAgRGPgMIIIAAAvEIEBjjUWIdBIItQGAMdv1QOgQCKUBgDGS1UCgEEEAgcAIExsBVCQVCIGEBAmPCZGyAAAJBCoz79+2RPTu3uZVStEQpKVGyjDvNSHoI7N65RQ7s2+eebMkyFaVI0aLuNCPBE9i/d7fs2bU9x4IVM7/TxaN+p/fu3iH79uxyt9Xluh5D8ASCGBj37d4p+hkqUqyY6N+KWMOubZtEDuyXEqXLSdHiJcXZLtb6fvNLlassUqSI/e+UfubtZ7Vkab9V7bxd2zaaYx6QkuUqmc0y/obt37dX9uzYYspb3JS3QsxtWYBAQQkQGAtKlv0ikMICQQqMM798ReZN+MTVrtm4rZx02UPuNCOpL3Bg/34ZfP8ZESfa/YZXpEKNehHzmAiWwNShT8vin7/KsVD1jztNWp97c8R6Xz17lWxdv8Kdd2Tnv0iLble404wERyCIgfGX0a/LzJGDpGzlQ6Rn/xExsT66rYPsMyGv/SX9pcHxZ8nYQdfJqrk/xlzfb8H5D46SUuWryNfPXSNrF06zf5fOusv8N8uEyOhhyc+jZMI7/ezscweMlDIVa9jxWV/8n8we9apUrF5XevQbHL0Z0wgUuACBscCJOQACqScQpMA4f8JgmTtxiOze9qf5D/seITAW/udNA5teFS9doWrhH9wc8YBpAfji6YywsGPTGlsGAmPhV8WurRulRJnyUtS0gsQzxBsYjzjhfDnmjH9E7HLi+wPkzz/my84t600D0D4hMEbwuBOJ1om7YT6OBCEwasveXtMi7bTO5TYwjnmxr6ye91NCOtGBUTc+zlwAadr5koj97DWt7UP6nyH6UwdvYJw58iX5ZfRrCQdG/bvM3RYRzEzkUoDAmEs4NkMgnQWCFBidepg16jWZ+8NHBEYHpJB+Lpw0TKZ/OUjqNO8g7S7KuDJeSIf2Pcyn951m5xMYfXkKZKbeFv7lf64SDetn3vI/KVMpo1Ukp4M5gbH64UdL5789mdPqvsu/f+tuWbNgKoExSie3dRK1m3yZTHZgXPnrBJn47n1SqVYj6Xb9/9lzymtgbNvrbjnixPMO7usN01r5YpbWyvf/3dYu9wuMRYoWMy2bw00LYnXXeOrgJ2Xu9x+603kNjHohbcQjvWwLaYfLB0r1+i3dfTOCQKICBMZExVgfAQSEwMiHwBGYNuJ5WTh5mBx2VCcCo4OSZj/37tkpnz3Y0541gTEYlZ/bOimI0icrMO7YtFYmf/CgrPxtoj2tYuYZxHPuG2bvhEh2YNQC1W52opx8zbO2bJtXL5IRj15kx51/8hoYN61aKF888RfbAq/7PPzY7tL6gtullHk2kgGBRAUIjImKsT4CCCQ9MG7b8IdsWrNEtqxZav9jWLpCNVm9YIosn/1d7BZG04nA+uW/yaaVC2Sz2Vav7FY9rKlUrtNESpQqm22t6pevDUt+NcdcKFvXrbCdH5Q2z6RUrXukuWp7tNsxgV7RXT0383al0uYYlWs3itj32oXT3c46SplbOKsc2tgu37X1T/lzxVyp3qClbNuwUpbOHGvXO6z5SXaedvCxesHPpjVlmpQ1+63f9kwpWbp8xL6diT//mCcbze16m1YvNh2BlJTy1erYFkDndixdT/enZXGGKsZCO2dQ2xW//CDbNq6WkmUrSsUah9sw6O1ARm8D1P3rMHfCp7J20QxjeaQ0M8+R+Q21mhzv+7yO37rxztMOKzaZL1mbVi2WXVs2SPFSpaVSzQby/dt3213EamHMqMtfzHaLZOumVeYWr3qi517ZtD7kdCvllnXLbR3pFzE9folS5aR89cOkVuPW5ktoNbfoW9Ytk23r/3Cnqzc8RoqXyOzkQr/I6j6coZqpc6ejJv1s6mehRsNW8of5ortmwXRbhw3bnCHlqh5qb/1d+dtk2bhynlQ+tInUP/ZUX9td2zfLhmVz7HlqfZWtdIhUMZ/XGlGtDDs2rTPrLHCKYn9/tK7XLZ0ta+dPl51bN5gWw0OkWr1mUqPBMe56OrJu0UzroLf6Tf5ooF3W+txbpLTPF9Jy5jNYwVh5h2S2MMbro+Vdu3iW/RtR8ZB6snjqV+bvx2Lbitrw+LPtfK3vlb9OlO2b10kdEwK07vwG/d3asHyu+dzq52eX8agjhzQ6LouL/v7qZ1qH4mXKSfV6R9m/cyvmjLefP/3dLV+1ttRs0tZsWzfiUHmtk4id5dNEYQdGvUX51zHvyMwvXnLDUoO2Z5nbQP9t/6bpaeU2MM4fr3/vpssRHS50fx9+Ge3fwjj5/QdEW3rb9rrL/H0q6z7DWLZKLdn+5yqr2+nqp83f5o7y1VOXm8/Gr6YVtKH7tyGvgVEPsGPzWvnpw0dkxZzv7fE0NOvtsEeceL7v3w27Ev8g4CNAYPRBYRYCCGQvkKwWxq3mC9dPnzxm/sP6W8wC+j3DqLfKTXhvgPmSnRFyvBvrrUHtevWTOi06eGe74/qlfcqnT5jeHLe587wj2uNd+973mC/abcwzMpktLbqOhqguB68gO9sMvv9M90uMBpxTrnvJLlow6TOZbm5ratjubNti56yvP/VWz5lfvWJv+XPme7d15ukX0h9j+Oh5tjqzrzQ0HTfosN58Ofn25ZucTeXYs26QTWsXZzm2rlCmUnXp8vdn7U+dXjD5c5k+4gUdjWs4//6RpsfSYnGtm9NKGsoXTBwqM00HEPrFMNbgFxjXLp5pbk2737cu9RxPuvwRE5CzdpSz2/ROOG3Yc+aCxLhYhzNf/FtLxysetsudVldn5c5/f9p86W/hTMq8Hz4x5X/Fne54+cNyyBGt7fQP79xjn5E6ov15Mn/SEHcd9dP1NBB7z7ux+eLa8rSr3fW0d0Wtnxlf/l/Ees4K1eo2M5/Xe6V0xYyA++vYd2XO2LedxdL12udl+vDnfX/H9BxPuvwh9wLJZw+dawOju3E2I37PISYlMCboo6c09IGzbI+V5SrXlnVLZrlnWfGQw6XxiRfK1KFPufN05KTLBtq/B85Mvbigz6At+vlLZ1bEzwbHnS7HnnOj26vvt6/cJOuX/WrX0YsSna56XH546y7RkBs9tOjWx9yOm/ksXF7rJHr/+TFdmIFRO5WZYH6Htm/MeJZZA9gJf31AqtRpGnEquQ2METs5OBErMEav63R606TjxbJ02ih7MaaEueindf/jwQsuHa54RMabutYhPwKjU4Y15mLjxHf7u0E1w+VB49LEWYWfCGQrQGDMloeFCCDgJ5CMwKitO6P++ze3OHoLZMUa9e0V3D9NEHQ6IogOjNpt/4jHLrId4uiX7vrmthwNW1tMD4saAGwX5mavrXveLPVbZzz/5hxk2cwxNoDptG5bu2k794r+NnOFeOVvE+x+NYg1at/TluUnEy43m9ajzabVwS8w/jz0Gdmw4nfbOuYNfU5gdI5dx7QsbjAtjk4nLjpfv6BqK6C26Olw2k1vmJaGQ+24nseIg7cfFSteQhq2Pceuv2fXVln40wi3R8lu/3zRtnrqfn/99j1ZNX+qPYZuo50G6VCrSTvTIlXDtCDNsOeh8+oe3VWO73WHjtqWpQU/Dbfj65f9YrZfZ7uKty2Jdm7mP8XNqw5sD5c+PQJmrhX/2OSPHnaDm5671ncZ07q3w7TuLJ/9rfulOjowaovZuFdvsQcqZVpO67XqLuVMD4l68WGZ+Rw4Iaz7v15161hX1vlfPNPHrQc95iGmBalk2UrWS5+f05ZO9Tv3vgyTZTO/Na2DE9xyRgfGNcZ8kekd1AmgfoFRj637rNeymyyePtotn87Xlj5tgdLPmF6w6HnPUJ1tB2+vwfpsoD5bWtyEjj/NZ27hwTrzhts186fJ8l/GydIZX9vzcT4H+lNbPvRzv2ruZNe1zXm3mlvbTKumGTRYaohRoxVzfrDztHWtlLGJHg5vdYr5XJmWZs+QjMCYqI8WVwOj87uhHTvVOqKNLDZf+J1BjdR5lbm7QMNh7abt5cRLB2QsNgH16xf/aT8jOqNey66mtTbj4sEfv09y/261PP0aEz4vsNssNj1lavBZav7+6ODUiV7UqN34eGuuF7Kcz+wZN79tnp+radfNa53YneTzP4URGLVVfsqnj8vS6V/b0mtLWpsL77QX4PxOJ5mBsWmnS+TQ5ifK2JduiCiaXlRp3LGXfPF4xgWA/AyMeiDtnGzudx+Yi1//dT87R5xwnrTqeVOOd9lEFJSJtBQgMKZltXPSCORNoNADo37pGtTX3qqjX9i6XP0f9wuScybaAjdv/Cc2QHhfq+G09uiXrm59X4q4/UvD5LjXbrH71S/eZ935sf1ypvvcY774jTT/4dYvgBrUOporv97bDnWdHz9+RJbN+ta23GlgdIa5338ks0yPdn6BUdfRjmKmjXzeBtfoFkZdfrz5olO3ZRd7y+h3b2aEtEMaHWvK8KjtEXTIgLPsf/C9QUN7jfzDdO6gtw+eesPL7i2Ouj9tlfv6hWvtrbh6RbnrP57T2XaYbbqX//1gRwvamtHlH89mBibjPvGDB+x+deULBpgWkqjg5/gWxjOMGm6+f/tOW+4WXa/IaFnxlEfPc7DpZVCHiMBozsO+hsG0wGpI73z1MxE+ehvo2JdvtHXtDVO6n9/GvS+/fPOmjspxPf8tDVqfbsedf3ZuXi8jnvxLRGB0ljmtydGB0VnutAZ569FpYdR1nOcBZ331qswd/7HdTFsTtVVRW8u/MV3863D+/V/Y1qkta5fKqOcyWhuPO+cmaWBuY/UO+jqA8f+7187STmY0UDqD7stpgdfPrXaS4dzyvHvnVhlt9rvThNToz49u721Zd8rs7De7n05g1MAV/bvlbKe/t6fd+LozmeVnIp3e5NbHCYwa2M64+R3bwmpD4MHbik/pO8jeSvi7+TI+++s3In6vF/400nxBf9YG726m9VZbdrzD9BGDTIvwULv87Ls/zfxcms/sp/0zP2saJrTunVvDN5vbzUe/8A+7K78eYnNbJ96y5dd4gQZG4zT3h4/l56FPuyGo8Um95Jizrs82BDmBUc+xcu0jYp6q8zvhvFbDb8VEWxg1MB533s3ynbmAteKX7+wuNeCe99Bo+0hAQQVGp+warqcOeVqWHGzx1ttl2154l9Rvk/l5c9blJwKOAIHRkeAnAgjELVDYgXGjee7wGxMYdfB+ufYWOFYvqc6X9uYnXybNuv7Vu4kd1+ePRv3373a8zfm3ibaE6LBk2miZMuRJO979X69FBE070/xTEIFRA3GPW9+zwWz7ptXyhXm2RQdv6Bj51GW2xat97/vsrbT6TNPQB8+x68XyWTrjG/nJXIHXL+d6i6gzeG+P1NsRnWcqneX6rJ1+Odahx23v2w4jnGX6szADo4Znfe7S2zLrLYuO+/WSqs+EjXnpervqySYsVqvbPHozN8Trgh63vecGmOGP9rItOnVadLS3HkdvWFCBsd4x3aSt6aBCh0VTvpCfP/+PrbtzzDvY9HnI3Tu3yLCHL7TLzzEtjPoM5PQRL5rw8Zm9wHHq9S/bZdH/DH+st21VP+qUK6Vpp4vdxY6tXjjpcfv7tuXSXWhG9GKMXpTRFu6z7vjQuyjPgTFiZz4TFzzwlc/cjFmJBMbc+jiBse0Fd0i9Y7raA0/68CHzZf/7iItC+gy1PstZrnItOf3mt+x6zvsiG59wgbQ845os56Gt8yOfutTO7/bPFyLCi/O3S5877XTVE1m2/f6tO+0zzdpq2fbCjAtLzkrpEBi3/bnSvBfxetELATpUrddcTvjL/VLRXBTKafAGxpzW1eUFERj1+eCh/TMeUWhnbhNv2P4ce9GmoAOjc77rl/4iE/93X4SfdsKjv+MMCEQLEBijRZhGAIEcBQo7MC4xtxlNGfxElrDjLahfYNQWkRFPZNze47QCeLdxxkebwKi39zU56SI5unvGba/OrWvaYUysFo5d2zfZVim9PdHptET3mZcWRu8rBpwwovv0fmn+0rxzcNvGVSbAZARGb2uTtpAVK1ZCN4kY9pnOF/T2SR3OM925Fz24znzzPOCMLwbFDBl6G9Pg+zNaqrr8479SNepZoMIMjE7YadndtLKdlBGWIk7STPgFxng+P3rLoQYDHTr1ecx2XKIdVmhrrg4dLn1AaplbkqMH9dm+eY0ULVLUtu56lztf+L1h37s8uxbGFt2uNC2oGYHOuXihrVP6OdZBW751ex3O6TfEtqZ898bt9nZlDX016kd2UGNXNP9sWD7HBuBG7c6VVj0yLgToMqdl0+9ZQ12uQV1DZfQFB12W23DitDDqy8hbmRYhv6GIcdWOoGINiQTG3Po4gdF7QcW5WNSkQy85+rSMC05/zDGvb/hggP0cnHnLO7bIzmdAW/4r14xsXXTOadX8n2zrWIe/Phhx265z3OhnIp3tnJZn798MZ1lu68TZPj9/FlQLoz6X983zGa2sWt5G7Xqa2yv/Zd87mFP5ncCozxC2v/T+mKt//9qtdllBBEbd8aIfh5s7OMaLPruog/4tL6zAqLfxTzHPvC83d8k4Q487P4orcDvr8zN9BAiM6VPXnCkC+SZQ2IHR+WLkvXIffTJ+gVE7jtAOJHQ4++5PzC12FaI3s9MT/tdfVs6dJIeaHg5PuKS/ned8ga7dxDyP9NeDzyP5bp11Zr4FRtO7pT6XqEN2gXHpjDGm9fCxrAWJMcd726ATGGPdPqu7cL64dr7yiSxf3gsrMOrzWvrlWwfnll07EfWPX2B0OnaxrbemlTTW4AQ47QBIOwfabFou9FZMHWK1Msfal853wkJhBUa9OKIXSeIZom8hdj7vzU6+VJp3zWjV9u5Hn9PU25p18H4WdTq34cQJjH6BR/cbz5BIYMytj/P5jwyMj5nb0cdIdoFx19aNMvzx3vGchl0n+jlq57ixPj9Oq6/eUqmtk94ht3Xi3Ud+jRdUYNTy6R0Q+uqM9Utm2+LqrZ2tzv6XfRZQLzbEGpzAWNY8x9yz/4hYq8lHt3Uwz6/uLpAWRr+D5iUwqsWubZtM4DtcSpev6rd7O08vhM35+i2Z7ek4rJZ57vb4i+42PTHXjrkdC9JbgMCY3vXP2SOQK4HCDozOc3aJBkbtXGbs//3LnqPf7ZTOyTtfOr23djm3nGmvkiebZyYTGZzAWKV2Y+n6z+ezbJrdM4zeL8/6OoR4AuOKX8bLpA8fsMfRHlWLmP/FHMyXqEObtbctRbpOaAKj5/lEp2XV7xz9AqPzHKLf7ZTefThf0J1bk723BJ98zX+k2mHNvKvnOO4Exk5XPWla/DKfF3Q2dAKq9zZiJ7jlpoXRaXnWjmcatcloGXWOFf2zQo265otlfXe2c9xYgVGf8xz9fMYtlWENjLn1cT4XiQZGfUb684EZL3dv2rG36N+D7AZ9RU+p8pm3AzrHjRUY508cYu4OeMnexpqugdHx1FayH81twhqYdNBXV7T/S3+paToo8htSMTA6vbC2u/i+mJ39LDOva/rJ3DYdr5OfHfPSU4DAmJ71zlkjkCeBwg6MTscR2gHGufcOy9Lxip6Mvm5DexX09pKqnXUMezij50HtCEeX+Q3OF8kW3TK7qHdapfSY5/QbmuM7+rz7dZ45i3U7q7Nv77N4Ti+puQmM3s48sgvG3jI643kNjDPM6wL09Q8aUvRWzoIcPh94vn0lhtPxS/SxvLcgn3rDK+4rMlbM/l4mffSQXd153i96W+3k6PODt3i6t956Oh7J7jbY6H050055/W5n3W9aLYaa42nLaX4FRif0eS98OGXJ6aezbW4Co/fWXacX3pyOp8vztYXRdCTS4pQ+2R7WOcdEfZzglmhg1MI42zoXIbItYNRCZ9vcBMbc1klUEfJlsiBbGL0F1HPW9y/O+vJltwOc2keeIG0vukvKVYlsOUu3wOjXEnus6RjriJMucF+T47VkHIFoAQJjtAjTCCCQo0BhB0Zv75h+X769z/pFtwg6nZboqwg6Xfl4lnPzdojiDZX66gPnJfCxnuvSnekX/73m/06Pkjpvpekuf4J555U+76XPC3pvjdKXtn/xzBX2C423xTQvgXH/vr220xsNH42OP8c8D5bRe6aWxTtoL6La6uEta14DoxOO9VUVPUxnKN5z9R47p3F9bYq+5qKouaUs1qC3ROqtkbGCuBNAdHtvi6A+76kXBXQ46tSrRFt7ooffv/vQ9HCZ0RunvqZCnwPUQVvVtHVN61Jv5dXbWv0G7XmwVPkqEYucDk+iO5jRlfS9js5rLk64uL/tZl/nO6EmNy2Mc8a8bV6V8u7Bsr7jdtyj+/UO+l7JkmUib892jpubwKj7dsLxsWffaF7pknHrsPeYfuNOfXkvkvitl9085zUrDVqfYXqxzbj9PNb6ufVxgltuAqP2vquvbtHPrL6yJdbvh1+dOMfNTWBUg9zUSSy7vMwvrMDolFEvHP085CnTcVnmq0+adblMjjavLilWsrRdLV0C4+4dm2X658/JgklDHR7by7LtRbZ0OXceIwjkJEBgzEmI5QggkEWgsAOjBqFhj/SyrUsaTDr//Rm311J9TmiqebehPoOog3Z9f+Yt77pldgKNztCXbLc8PeOZNJ3eal6z8N0bt9n3CGrHG6eaL3TeYYzpge/PlfPsLH3mq+Vp15j917DT2iK10rzGYvpw7dmwUUQvht53RnpfxaBfCrXjDb3aq4Oei77KQ4e8BEbd3vkyrOPNu1xuesC8yO3YRjtmWT1/ir3yXtL0gKevVHCGvAZGPRenF9WmJ/U2gexKtwVYz3eG6bmzuunlMfoVD87x9adzS7CGstPNuyWdd8p519HxhaaDiGnDM14J4n1hvQbhtQtmuK/c0HXb9eonhx3dSUftMMk85+S8K9Ab0HShvm5iwnv32xAf3RnMukUzZZz5jOigrx05zrxk+1Dzzr2ixYrr+0rM+zyXW3vtIdNtmbRrizjPxmqHJ93Nq06cEKrvafzxk4xOLnRV77NrTnDLTWDUFvWRj19s3xmo74ts1/se+9k8WBz7fOO8CYPtKzqiy+ocN7eB0alDNep23Yu2p1DnuHoBRYOsvg5H69gZnMCor+ro6HMxx1lPOxQqZt7n6TfMHmVeC/PDh7ZnRw1kGoS1Q6BfvnnbvJrm5IhOmnLr4wS33ATGdUtmmVf33GqLru9nbH3uvyN6odTfnzlj37HvY9S/Bc5nRDdwjpvbwJibOvEzzuu8wg6MTnn/NEF90nsD3NfF6OsjzrrrE/s3PM+B0fzu638DdPjVfNZ+Ma9RKlOxuvQwr0bRQe9McToWszPMP84to85rNZz53p85PcOoz1yeefC/Gd7tdPxb0xP0usWzxLklVfc1ylwo02cwdajR8Fg5vnc/28GZncE/CCQgQGBMAItVEUAgQ6CwA6Me1Rv8dFoDnvZsqa1HOujzQU6401agI0yPefraAA0T35kvbOtMF+I66H/IK9aoL/v27bYtRzpPv8R2Md2JR79SQm/1HGOegdQvoM6Q8UWgpA3c6il/AAA+uklEQVSvzjz9knzGbe9G9JTqfa+d3npa1BxXXw+i4Vc719F3JuqgZW1iutzX5dNHmnBl3o3nBLp4n2HU/ajF16Y1TEOwDnpOFUxoKGL2qy1kelwdNKSeYV7boeehQ14Do+7D6TFSx/V8Kpu62G7qRY+rg77HMtZrHrzvTtR1W53ZV7zvtNR5zqAtqSOfvNS+FkLnqbt20rBl7RJ7/nrO+j6/HZvW2PMrYcKDvjdPw5227OqrWfRF8zro84zlzHNOO0xrhK6vg5a9u3nnn7fHW53vbQ3UaR3U0dlXxhyRo0/9mzTpeJEzKd6wqUFAnxvcs2OrrSMtq77eQwOF1oWW9cxb3zXvSbzPhofcBEY9sNOjqlMIPU/9kqld+OsrHJyhVY/rTK+SGa9i0Xl5DYzeiyS6P23pL1ayrOiX9j27tumsiFtvddoJjDqe3RDrtRK6jX4pdt5HqdPak6zzedfQfJq5AOEdcuPjBLfcBEY99lTT2rXY09qlFxBKm2cVt65b4dr4/Q1yjpvbwJibOvFa5dd4sgKjU/4lU7+0jyxoK+/pt/7Pzs5rYNRWzCH3neYcIsvPo0//hxx1sPdcZ2F+BEZnX9n9dF7RoX8vhz3U0/zt3y/HX3yP+e9Oh+w2YxkC2QoQGLPlYSECCPgJJCMwajn++G2i/Q9/dIA73LxM/RjT+jfkgbPd4ka0FJmrwdrxye8/fBQR/nRlDWjtet0lpStWc7f1jugtnNPN7YPLZo9zQ5ezXENDgzY9pEmn3llChn5Zm2Beku4EON1GQ0O9Y0+xoch5wbzO15ZPvR1TA6P3WcBd20wvi+a9eTp4OxpxbnU88dIBoq0WzqBfELTFZb55EbgTEJ1lWlY1adzh/IhWjAWTPzfv73sh4n1yzjbOz5y+uGqPjLO/ek0W/Pi5s4n7s2GbM6W5ebaslHn1SKxBe7LVHm110FeY6Be7WIO2Ek359Al72693Hd2mnenlb+mMsTJvwifuIu8rRPRzoyFlxZzxET76ZV1vaWx5xrVukHZ3cHBEWyF/Ni9g94YuZx39DLU45Qr7WXLmOT+d51Wdaf2pAVqfadOLBr+Ne89ddP6AL9zA6H1mcpl5NvdH84yutxMl77s3vbfQ6s40RE3+cGDEZ885iH6+tBfU6vVaOLPsT6c1NLctjLqTtYtnmt56n3ADuHMAvfX6GPMKD+9nVZf9/Nl/ZNHUL5zVYv48pNGx0vGKR2Mudzo18q6gF5T05eh+79xM1Mf5/HtfzaOfwSUzvpYjPc9Orvp9sox/9z7xC6r6HlS9G8EJz05Z9WJBXfMexWZdLpWylWo6s+1Pp1OknAJjdj0cJ1onEQXIp4lkB0Y9DW1l22v+ljvvGNRWwenmboV4e0k90TwDf/hxmQFRO40ZfM8pMYWOMRdk9O+edxjzYl97MejILn+VY82dCn6DtjiPPPg3//wHR7m3uc/64v9sr6Z+20TPO8G8Aqh+mzPsbL3oqOesf+MYEMiLAIExL3psi0CaCiQrMDrcehvqNvNS++LFS0X09Ogsz+6nbrtp1SIpVaGy7RQlkf+Q6rOSetz9+/bZgBfr1knn+Np6tnX9CtO6Y55vM//RrlijnrOowH9qsNGWt6IlSkr5KofGDMT5WRC9RUtbZfft2mG/iNmOJopk02Orc3AT6DeuWmB7NvQ+X+ks9vupHVxoKNcQqC/qjm4V9NvGnWeOpy/93rZhpZSrXkfK6Rf1eMppdqAtueq6x5xjiVJlbLj13kboHsMzoiF3s3n2Uj9r2tqc0/qeTfM0qmXdvGax7DOBvrhp7at4SL0st8nl6QB+Gx+03W7e8WbP17T4JVQ3fvuMY56+E1VbFjUUqHFOv5u6y2T46G3a+hyumFaf0uYWxgp6cSTOz14cDP6rJKlOnMIEITA6ZeEnAgjkToDAmDs3tkIgrQWSHRjTGp+TRwABBEIkQGAMUWVRVARiCBAYY8AwGwEEYgsQGGPbsAQBBBBAIFOAwJhpwRgCYRUgMIa15ig3AkkUIDAmEZ9DI4AAAiESIDCGqLIoKgIxBAiMMWCYjQACsQUIjLFtWIIAAgggkClAYMy0YAyBsAoQGMNac5QbgSQKEBiTiM+hEUAAgRAJEBhDVFkUFYEYAgTGGDDMRgCB2AIExtg2LEEAAQQQyBQgMGZaMIZAWAUIjGGtOcqNQBIFCIxJxOfQCCCAQIgECIwhqiyKikAMAQJjDBhmI4BAbAECY2wbliCAAAIIZAoQGDMtGEMgrAIExrDWHOVGIIkCBMYk4nNoBBBAIEQCBMYQVRZFRSCGAIExBgyzEUAgtgCBMbYNSxBAAAEEMgUIjJkWjCEQVgECY1hrjnIjkEQBAmMS8Tk0AgggECIBAmOIKouiIhBDgMAYA4bZCCAQW4DAGNuGJQgggAACmQIExkwLxhAIqwCBMaw1R7kRSKIAgTGJ+BwaAQQQCJEAgTFElUVREYghQGCMAcNsBBCILUBgjG3DEgQQQACBTAECY6YFYwiEVYDAGNaao9wIJFGAwJhEfA6NAAIIhEiAwBiiyqKoCMQQIDDGgGE2AgjEFiAwxrZhCQIIIIBApgCBMdOCMQTCKkBgDGvNUW4EkihAYEwiPodGAAEEQiRAYAxRZVFUBGIIEBhjwDAbAQRiC0QHxthrsgQBBBBAAIFMgRY9b86cYAwBBEIhQGAMRTVRSASCJUBgDFZ9UBoEEEAgLAIExrDUFOVEIFOAwJhpwRgCCMQpQGCME4rVEEAAAQQiBAiMERxMIBAKAQJjKKqJQiIQLAECY7Dqg9IggAACYREgMIalpignApkCBMZMC8YQQAABBBBAAAEEEEAAAQQ8AgRGDwajCCCAAAIIIIAAAggggAACmQIExkwLxhBAAAEEEEAAAQQQQAABBDwCBEYPBqMIIIAAAggggAACCCCAAAKZAgTGTAvGEEAAAQQQQAABBBBAAAEEPAIERg8GowgggAACCCCAAAIIIIAAApkCBMZMC8YQQAABBBBAAAEEEEAAAQQ8AgRGDwajCCCAAAIIOAK7t22WImaiRLmKzix+IoAAAgggkHYCBMa0q3JOGAEEEEAgHoHZ7z0jRYoWlRYX3xjP6qyDAAIIIIBASgoQGFOyWjkpBBBAAIG8CGxdtUTGDegjRYoUkU73vi7la9fPy+7YFgEEEEAAgdAKEBhDW3UUHAEEEECgoAQmPX2TrJ873e6+WtPjpP2/ny6oQ7FfBBBAAAEEAi1AYAx09VA4BBBAAIHCFlg9Y7xMGdQv4rBt+g6Umi07RMxjAgEEEEAAgXQQIDCmQy1zjggggAACcQkc2L9fxvW/TLatXRGxfrkadaTzgHfsM40RC5hAAAEEEEAgxQUIjClewZweAggggED8AovGfCJzPnred4MWvW+Q+l0u8F3GTAQQQAABBFJVgMCYqjXLeSGAAAIIJCSwd+c2GXP3xbJn+xbf7UqUrSBdH/5Aipcu57ucmQgggAACCKSiAIExFWuVc0IAAQQQSFhAWxa1hTG7oUG3XtK813XZrcIyBBBAAAEEUkqAwJhS1cnJIIAAAgjkRmDHhtUy9t5L5cC+vdluXqRYceny4LtSpmrNbNdjIQIIIIAAAqkiQGBMlZrkPBBAAAEEci0wddA9smrGD3FtX6tVR2l97YNxrctKCCCAAAIIhF2AwBj2GqT8CCCAAAJ5Eti4aI6Mf6xvQvvocMeLUrlB84S2YWUEEEAAAQTCKEBgDGOtUWYEEEAAgXwT+H7g1bJ52Tx3f+VrHS5bVy1xp3Ukel7Fuo2lY79XItZhAgEEEEAAgVQUIDCmYq1yTggggAACcQksn/SVzHjzkYh1j7/hMfnxuTsi5rW9/lH56fk7I+Yd0+cuOaz9aRHzmEAAAQQQQCDVBAiMqVajnA8CCCCAQFwC+/fukbH9LpGdm9a561drfIy0v+VZGXHtye48Henx0rcy6akbZf28Ge780pWqS5eB70vR4iXceYwggAACCCCQagIExlSrUc4HAQQQQCAugXkj3pS5w97MXLdIEel83xtSvnZ938C4deViGffAlSIHDrjbNDn7Smnc4wp3mhEEEEAAAQRSTYDAmGo1yvkggAACCOQosHvrRhlz98Wyb/dOd916Hc+Roy+92U77tTDqgln/e0qW/jDM3aZYydLS9eEPpGT5yu48RhBAAAEEEEglAQJjKtUm54IAAgggEJfAjLceleUTv3TXLV66nA1+JcpWsPNiBUa/oFn3hDOk5RWRzzy6O2YEAQQQQACBkAsQGENegRQfAQQQQCAxAb9bS488/x/SqPsl7o5iBUZdYcGo9+S3wS+764rnVtbMmYwhgAACCCCQGgIExtSoR84CAQQQQCBOgejOa8pUrSldHnxXihQr7u4hu8B4YN9eGXvvpbJjw2p3faezHHcGIwgggAACCKSIAIExRSqS00AAAQQQyFlg9YzxMmVQv4gVj7tmgNQ+rnPEvOwCo664cspY+fnVARHbtOk7UGq27BAxjwkEEEAAAQTCLkBgDHsNUn4EEEAAgbgEDuzfL+P6Xybb1q5w16/coLl0uONFd9oZySkw6nrjH+srGxfNcTaRcjXqSOcB70iRokXdeYwggAACCCAQdgECY9hrkPIjgAACCMQlsGjMJzLno+cj1u3Y7xWpWLdxxDydiCcwbl42T74feHXEti163yD1u1wQMY8JBBBAAAEEwixAYAxz7VF2BBBAAIG4BPbu3GZfo7Fn+xZ3/cPanybH9LnLnfaOxBMYdf3prw+UFT+OdjfVXlb1NRva6yoDAggggAACqSBAYEyFWuQcEEAAAQSyFdCWRW1hdIaixUtIl4HvS+lK1Z1ZET/jDYw7N62Tsf0ukf1797jbN+jWS5r3us6dZgQBBBBAAIEwCxAYw1x7lB0BBBBAIEcB7c1UezXV3k2docnZfaRxjz7OZJaf8QZG3XDusNdl3oi33X1ob6va66r2vsqAAAIIIIBA2AUIjGGvQcqPAAIIIJCtwNRB98iqGT+462irorYuaitjrCGRwLhv9057u+vurRvd3dVq1VFaX/ugO80IAggggAACYRUgMIa15ig3AggggECOAn8umC0Tnrg+Yr1WV94tddp1j5gXPZFIYNRtl0/8Uma89WjEbk68/Xmp0vCoiHlMIIAAAgggEDYBAmPYaozyIoAAAgjELaC9mGpvps6gPaJqz6g5DYkGRjlwQMY9cKVsXbnY3XWlek3kpLtfdqcZQQABBBBAIIwCBMYw1hplRgABBBDIUWDvzu0y850nZOXUse66J97+gmn1a+FOxxpJODCaHUW3ZtZu3UVaXn67FC9VJtZhmI8AAggggEDgBQiMga8iCogAAgggkBcBDXKz339GylY/NO7nCnMTGLWMUwb1kx3rV8lRl/xbqjTidtS81BvbIoAAAggEQ4DAGIx6oBQIIIAAAgUsoO9g1PckxjPkNjDu2bZZSpSrGM8hWAcBBBBAAIFQCBAYQ1FNFBIBBBBAoDAFchsYC7OMHAsBBBBAAIHCECAwFoYyx0AAAQQQCJUAgTFU1UVhEUAAAQQKUIDAWIC47BoBBBBAIJwCBMZw1hulRgABBBDIfwECY/6bskcEEEAAgZALEBhDXoEUHwEEEEAg3wQIjPlGyY4QQAABBFJFgMCYKjXJeSCAAAII5FWAwJhXQbZHAAEEEEg5AQJjylUpJ4QAAgggkEsBAmMu4dgMAQQQQCB1BQiMqVu3nBkCCCCAQGICBMbEvFgbAQQQQCANBAiMaVDJnCICCCCAQFwCBMa4mFgJAQQQQCCdBAiM6VTbnCsCCCCAQHYCBMbsdFiGAAIIIJCWAgTGtKx2ThoBBBBAwEeAwOiDwiwEEEAAgfQWIDCmd/1z9ggggAACmQIExkwLxhBAAAEEELACBEY+CAgggAACCGQIEBj5JCCAAAIIIBAlQGCMAmESAQQQQCBtBQiMaVv1nDgCCCCAQCwBAmMsGeYjgAACCKSbAIEx3Wqc80UAAQQQyFGAwJgjESsggAACCKSJAIExTSqa00QAAQQQiF+AwBi/FWsigAACCKS2AIExteuXs0MAAQQQyIUAgTEXaGyCAAIIIJCSAgTGlKxWTgoBBBBAIC8CBMa86LEtAggggEAqCRAYU6k2ORcEEEAAgXwRIDDmCyM7QQABBBBIAQECYwpUIqeAAAIIIJC/AgTG/PVkbwgggAAC4RUgMIa37ig5AggggEABCRAYCwiW3SKAAAIIhE6AwBi6KqPACCCAAAIFLUBgLGhh9o8AAgggEBYBAmNYaopyIoAAAggUmgCBsdCoORACCCCAQMAFCIwBryCKhwACCCBQ+AIExsI354gIIIAAAsEUIDAGs14oFQIIIIBAEgUIjEnE59AIIIAAAoESIDAGqjooDAIIIIBAEAQIjEGoBcqAAAIIIBAEAQJjEGqBMiCAAAIIBEqAwBio6qAwCCCAAAJJFCAwJhGfQyOAAAIIBFNg0lM3RhSs/S3PRkwzgQACCCCAQLoIEBjTpaY5TwQQQAABBBBAAAEEEEAgQQECY4JgrI4AAggggAACCCCAAAIIpIsAgTFdaprzRAABBBBAAAEEEEAAAQQSFCAwJgjG6ggggAACCCCAAAIIIIBAuggQGNOlpjlPBBBAAAEEEEAAAQQQQCBBAQJjgmCsjgACCCCAAAIIIIAAAgikiwCBMV1qmvNEAAEEEEAAAQQQQAABBBIUIDAmCMbqCCCAQLTAL589HT2LaQQQCLhAi543B7yEFA8BBBAIhgCBMRj1QCkQQCDEAgTGEFceRU9bAQJj2lY9J44AAgkKEBgTBGN1BBBAIFqAwBgtwjQCwRcgMAa/jighAggEQ4DAGIx6oBQIIBBiAQJjiCuPoqetAIExbaueE0cAgQQFCIwJgrE6AgggEC0QHRgbd+0TvQrTCCCQZIF5Y96MKAGBMYKDCQQQQCCmAIExJg0LEEAAgfgECIzxObEWAskUIDAmU59jI4BAmAUIjGGuPcqOAAKBECAwBqIaKAQC2QoQGLPlYSECCCAQU4DAGJOGBQgggEB8AgTG+JxYC4FkChAYk6nPsRFAIMwCBMYw1x5lRwCBQAgQGANRDRQCgWwFCIzZ8rAQAQQQiClAYIxJwwIEEEAgPgECY3xOrIVAMgUIjMnU59gIIBBmAQJjmGuPsiOAQCAECIyBqAYKgUC2AgTGbHlYiAACCMQUIDDGpGEBAgggEJ8AgTE+J9ZCIJkCBMZk6nNsBBAIswCBMcy1R9kRQCAQAgTGQFQDhUAgWwECY7Y8LEQAAQRiChAYY9KwAAEEEIhPgMAYnxNrIZBMAQJjMvU5NgIIhFmAwBjm2qPsCCAQCAECYyCqgUIgkK0AgTFbHhYigAACMQUIjDFpWIAAAgjEJ0BgjM+JtRBIpgCBMZn6HBsBBMIsQGAMc+1RdgQQCIQAgTEQ1UAhEMhWgMCYLQ8LEUAAgZgCBMaYNCxAAAEE4hMgMMbnxFoIJFOAwJhMfY6NAAJhFiAwhrn2KDsCCARCgMAYiGqgEAhkK0BgzJaHhQgggEBMAQJjTBoWIIAAAvEJEBjjc2ItBJIpQGBMpj7HRgCBMAsQGMNce5QdAQQCIUBgDEQ1UAgEshUgMGbLw0IEEEAgpgCBMSYNCxBAAIH4BAiM8TmxFgLJFCAwJlOfYyOAQJgFCIxhrj3KjgACgRAIXGA8cEB2bd+UaVOkqJQqWzFzmrGUENi9Y4sc2L/PPZdS5Sq748ka2b3TlGlfZplKlqkoRYoWTVZxIo4bpsB44MB+U7f7pWix4hHnEGti48r5UrpCVSldvmqsVWLO37tru2xdv0L27t4pZSvVkLJVasVcNz8W7Ni8Vvbs3CYVD6mfH7sr0H3ktaxqu2/PLreMxUuXk2LFS7rThTkSXZYSZSrE/fkqqHJGlym/ffbv3S1Fk+RdUGbJ2i+BMVnyHBcBBFJGIGiBcc38qfL923e7vsWKl5Bz7xvuTjMSfoFdWzfK8Md7R5zIefcNS+qXIw04g+8/I6JM3W94RSrUqBcxL1kTYQiMW9cvl3k/fCrzJw6Wph17S8sefXPkmjH8BZnzzZt2va59X5SajdvmuI2u8Ofy32TyBw/Jnyt+j1i/cu0j5Izb34+Yl18Tq36fJGNfusHu7qjuf5ejz/hHfu063/eTH2X94vFLRMO8M7Q+71Zp0iny99ZZVtA/h/Y/Q3ZsXucepvPVz8ihzU9yp5MxUtA+E9/tLyt/HS+NO/SSIzqcL2Uq1kjGaabEMQmMKVGNnAQCCCRTIGiBcf2yX2XyRw/L/j07TUvjZnNFm8CYjM/Hjk3rpEyl6gVyaK3XbwZdZ/a9X/Q4OpzXf7hpMShhx5Pxj7aKffH0FfbQOzatsT8JjPHXhDf46VbVDj9Kut/0Ro47GPlYb9m0aqFdr1H7c+X43v1y3EaDw7AHe8o+0wKjQ6VaDaWEaf3auHKB1GpyvHS86okc95GbFX4e+oz8Pu49u6m2ZPY0FzmCOuRHWce/dZesWzLb/I6utXcDJDMwjnmxr2xZt0y2/7nKkne+5j9yaLMOSeUvaJ/PBvSQ7Rsz/hbpiSbTP6nQ+XBwAmM+ILILBBBIb4GgBUanNtYunC7fvXkHgdEBKaSfG0yLzQ9v3mXCWzE5686PC/SoO7eslxFP/MUeI9mB0Xuin953mp0kMHpV/Mf379srE97uJ8tmjrEr1Gh4rLQ4pY/UPvIEkSJF/DfyzJ0//lOZMvgJKV6yjGgLY9W6zTxL/Ud//eZtmT78ObvwzNs/kEq1G7kr7t29w+7LnZGPIxvMxaxvXrjW3qbZ5oLb5YgTz8/HvefvrvKzrF+Y39GNf8wLRGAZcu9psnPrBglCYHRqrKB89K4H/b36ZfTr1l+P1+Ski6T1+bfG9bvllI+fhuuAGYBAAAEEEMi9AIEx93apuOUfv02Uie/db58bJTByS2pOn/GJ/7tXFk/90q52TI/rpLkJi4kO2lJYTFuX4wiYuu/vX79Nls/6Vmo3O1FOvubZRA+Xp/X1S/yBA/uS2hoe7wnkV1kLKhDFex7e9dIpMLrnbaLO1CFPydzvP7SzmnfrI8ecpXdoMMQrQGCMV4r1EEAAgRgCQQiM+kzbplWLZPOaRbJn1w4pWbaC6cRih8w2V1azuyVVb1H6c8VccyvaQtsiVrXOkaaFoqnpQKNajLM9ONv8B3j9it9kk9lu85olYr4B2mNWqtlIajZpLcVLlLYr6m2Kq+f+5O6rdMXqUtnTmqELtCXU6RiilOm4o8qhje36Wv51i2ba2+WKmttqF/00UnaYFrWqhx0p9Vp1s+vo7berfp9svicXMfNOlQrVD7Pzo//ZtuEP2bB8rmxavdC47DLr1ZFDGh2XZf3V86a4HcmUq1rbPn+3e+dW8+V6nD3PokWLS3mz7WFHdZKSptMIZ9DOFdYsmGYn1yyeKfPGf2Ld2/e+11kl4meVukeaQFkpYl5uJqJbGPVzsNYcf8Py36WU6XCmYs0GUqNRSylZOrOsWY6jdWmeZ9tkbkfUuixj6qjqYU2lcp0mUqJU2Syre2doHW1avch89hbLri0bpHip0lLJHNN5htbbwqgtr7tN+bx17N2XM65l0NvmylQ+xO7LmZ/Xn0F8hlF//4YPzGhla39Jf2lw/Fk5nqa2Dm1YOsd3veyeSdtqfgc2H7x1VW+33LJ2qf0daNb1soh9VanT1NxKnT/PemngWvnbhIj9OxPVDj9aSpXL+juw0lxwcTpzKl+tjv0MawdPS6eNtrfe6u9ghUPqmd/3U8zfnNideenv5PJZ35ltFthn9/Rzrc9nVq3XXPR3O3rITVmz7mOfLePGPxaYjoSWm7+p5u9FtcNkhmnNVf/sbonU9dcvmWNbwrQDogo16kqtpu1M50CHRx8mT9PewFijQStZPX+KrF88W/bv32v+9jaR6g2PkfJVD419DPP3Qm+z3Wj+u6G3QutnpdrhLcx/N5rb25pjb2j+M2E66dJt4vFRj82rF5tOs4pltLbH2LH+DdTWYG1hP+SI1jHWypj9y+g3ZObIF+0+z3vgS/P5S35HYdkWOEALCYwBqgyKggAC4RRIZmDcY3rhm/nFS7L4569i4vkFRg1o00e8EHO7IztdIs27XW6CWNYeLvUL/Y8fP2KDgt9B9T/wzTpfKs26XCp7zXOUn5lnpZxBw16XqBaNwfef6X5B1LBxynUv2dX1C+2o566W2k3by7rFs0wQ3ubsRhqfcIG5rWq9LDOtJM6gx+1x23sRXwI00Mwc+ZIs+jmjBcdZ1/nZ4LjT5dhzbnR78nRupdTldUyHEHpb4NShT7vlc7ZT0xP/MsD9grJl3XIZ9d+/OYtz/HnSZQNN5yRtclwvpxW8gbHl6dfIzC9fzrKJlrVd73usY/RCfdZwwnsDIjrmcNZRz3a9+kmdFlmfc9ILAQsmDpWZo17NYuNsrz+9gVGv8C+eNsp+WTun32D3ooJ3fR0f/fw1Nrg2atdTWsXR6Uv09rGmgxgYv3v1Flnxy3f2osiZd2S0fsQqvzNf3X/8aKAzGfHzkqd/jNnKOHWwtrB8ELG+30TLM/tKi1Ov9FuU8Lxtf66Uzx84x3e7Lv98wT4vGb3w/X+3dWfVbdlV6hzdSSa//2CWz5n2Ntrp70+ZUNXeXd8ZWT3vJxn38k3uM5rOfOdnjQbHSNuL7rbuzrzclNXZVn9qJzkT/9ff3u7pne8d9wuM2lPoz0OelgWTP/Ou6o7r74GWNb96G3YCY7Oul9sLW3r86OHo0/8hLbpfleXvv17I+e61W7N0lKTb69+LDlc8InVbdonenZ1O1GfJz6NkwjsZz+Oe8q9XRMOt3+A8a6qda51196d+q7jz9KLAkPu6y65tmzJuTb3gNncZI9kLEBiz92EpAgggkKNAsgLj/n17TCcjl8tO07KjQ436LU3LUDMpVqKUuZq9woYpvaLrFxjHvnyjaYX6zW5Xu0l7s+3RstsEMr26ry1GOhx2VGdpZ76oeIdtG1fJlwc7NtH51U0rQaVajUxLVBnZbTpiWWF6pNu1baPtqfGkyx4SLeNPnz5hWzY2m9YUv8Co/8HX1ic9rl9gdI5fxbR46VXktYtmOLPsbZ81j2gjSw8+/9Wqx/XSqN3ZGcvNlfCvX/ynez71zJfPavVa2GV/mC93+qVSBw1ajU+8wI7PGvWavVq9bsks67Zv7x47X49dxbS6bVm7zLaI6kx9jcGZt75rv1Rpy950c+Vah+0bV7u2aug3HGW+jJWrXMtvUULzvIFRN9QvbQ3bniXlTYcim03g1oDmtNZ0/9erpkW1rrt/vdgw4rGLzJfqPXa7+sd2t/5bzCsWls8eZ+tRV27d82ap3zrjmURnY+1USdfRQVsjtGfOMqZVWjtTWT77W9vZki7zBkYtz2hzAUCHiHqyczL+0c58hj/ay050/vvTUv1gfXlWyfVo0AKjdsahnXLokEiPlWsXTZe5333kOuza+qdtJdIZ2QVGbaFbNnOs3U5/z/eYlnNtddNnJr1DQ9PKqbeq5segX8ynfPJYxK6WTh9tp2MFxunDnrMXiNYunGZ+B0u6oU9bBvX3V1udnN9dLX/P+0dEBBs95uB7TrHH0NeMNOl4kZStXNNehFi/9Bd329Nufjviec/clNU5sYWTPpfJHz5oJ0uULi91j+lqf9f09UarfpvkXpDJEhjN3yh7u+rBnlTrtz7dDUbLzYWElb9mtM4e2/MmOfLkS53D5emnExidndQ9pptUN3//9Xd3sbmLQ1uwdWh74Z2mZ9GMv4s6ra9CGXJvd1sf9u/M8WfbFlttJdfPlrNdO3NXRcP2kRcJcuOjf7c+uburaKCt06KTvTig5YgePnvgbHtHQry97s6fMFh+Mhc8dbjose+lWMmMu2Gi98t0pACBMdKDKQQQQCBhgWQFxllfvSpzx39sy9upz2Pmi1/kFdg186eZWwPvzBIYnWfsdMN2F/Wzt1e6J22+wEwzX9gWThlhZ3X754sRt5COM1eXnTDV6W9PSVVz+5p3WGK+OEwZ8qQbGJ1lc7//SGaNfs03MOo6CycNk2kjn48ZGA83t5u2MR0V6G1mQ8wXBB00PJ5918f2WajvzDNZeitm4xMvNAEwI5QsNF9+pg171oahbteafZueIL3D9BGDzFX9oXb52ebKdAmzPx30Nthxb2ReeW7f+76IVrYFk4eZ1tnn7bqd//akDc124uA/jq+++7Iwn2HUw0eHQv1y/fWgvjY01mrSTjr89QG3qNPMOSw056IXFLr1fSni9lwNk+Neu8XePqbOeh66ng7O50rHW3S9Qo7sfElEq5a2Pg42Xfjr4A2MOj1m0PXy58p5NiyffvNbOiticD4/9iLHvcMi9huxYi4mghYY/zAXV7QVrLi57bfXoxnhOxenZS9wfGUuHOmQXWD07ltfbaEtPi1O/Zu0PPNa76ICH//glvb28xgrMGoB9NVA2jmOM5x05eMRLVfzfvhEpnyaEURPueHliNC7dNrXMv7tu2zYPP+h0dbX2Y/+1FayP0wQi6fDnXjKqoH9swFn2SClrZ0dr3wsyzGd10dEB8b5E4aY8PKw/Rt0+i3vSOWDt+M75XVahTWgXfDwmBxvEXe2y+6nNzC27XW3cTjPXV1v/R1tLgjqxT0NvurnvAt0yqePm1e+6N+BknK6uZPDe6ushsmvzcUg7dhHP8+6nfO+ybz4zBzxovzy9Ru2fOc/OEpKla/illVHvBddtIU++m98xMoHJ7STqQ9vNR1KmeEMcx7R5gdX40eUAIExCoRJBBBAIFGBZAVG51ZOb0jylj1WL6lO6PNr7dPt9badYY9caG8B1Va5thfeYXe7c7PpkfPJv9jx4865SRq0yQgFdsbBf5wv/NripC2MzpDXwNjj1vekdMVqdnefm2e+9PbUZuaKe3NzW5UO2kqpt502bNPD3GL6Lzvvq2evsi8k19tXW55xjZ3n/UdfRzHyqYyr9t3M7XH6fJMO+oyNtkzqcNQpV0rTThfbcecf9fnsoXNsy1yb82+Tw82zVN4hWYGxYZsz7e213rLo+HTzpUtvd4tuaXY+P81Pvkyadf1r9Ga2C/5R//27ne89T+15Vz9b3tbg6I2dW3ujA+Py2d+ZV75k3E55snkPXDXz3JN3mGBu6Vs5d5LUPfpkOb7XXd5FeR4PWmD8/dv35OfPnrFfcuO9HdUPQZ/fSrXAqMFDW9508OsISH8HP76jow1p7S+93/wtymip1fW15ft7c2FLh9Nv/Z/oM5m5HeIJjE6PsxrqYj0XF6vTm+EPX2CfJT3S3MJ/7Lk3ZSmmNxBpoKxibun/f/bOPEqq6s7jbySyRAGFtFFcQFFcUEQUEAwIAQFlF7eoMeqJZhLNyaiJu1FBE8dlcJJJjHJGRsWBGBgUEFHZwqagxjAK4oIGc1xGk+BCjorjOL/vrb7F7epXS3e96q6u+tw/ql695b53P7e6+n3fbyu2ecEoz4Cx1z5c76HM2xtXRb+fdok7jepx+t9Fz+KIkRdGh9c+lAuv5aP3/hQ9+vOUd0A4J8XwkQfF3J+OcqeJO6/+rzxnGYJlSZ44JXtYRnidWp591VBnYZcLrWJhafkJIBjzM2IPCEAAAjkJNIdglBvqo7eZZcfa8B/cFftkNZtgXGB12+Q22mvkBVbQ+JTYsa23uL/Xnp7r+lX/anrq75OZTPjpAidAMg9WzKDcsJT0JkwoUIxg1I3YyTcsTJ9KLotyXQytqs4q+swCE4w7RJMXRO067hHt9vW61kXf2buvPeOsHcedPSUdTxW6Tk64bp5z8fX7+3fn6mrCsuewc1MWNr/B3ptLMI6xJ+whc39JcuFdMf1y93G83SDKYljI90cHPGmCUdYGpaI/YkQqRjP9/Rlh359vxH9/sgnG8GFEF3N7HGCJXnzTtrmTx7j5GHDmDVEXlZVIsJWbYHzG3Hpfe2quxcoOigZf8C+NHmklCka5py+85TTHJJvboBdhvU76vllKz0/zkwVp9pXHOzGplXLT39uSVCkhSs3+vZw1L71zngUvknJZQ32WWz0kU1mTuOavNdPC6PtXTcrd9zoo7lD7PVnj/iaSKoPhBeNAe6DXtU9dV3NdgDwEZl3a313LIPOgkFu93FUfrvUayGWVk2CUcFR8ZO+xP3R9FMNHHayYdmn01saVzuI56WdL6rgfL/m371mysT/Y79Cpkcq0FNr8fPQ68R8tVrPw2PNC+6/E/RCMlTirjAkCEGhSAs0hGL0Y1EC9CMgctN8n07Lkb+b7meVQSSXimncRlbhQ/2qvWbKN9Y/d5QSHXxd3bNy6RAVjreDNJRgVU7jg1tPjLiV2XRinFwrGSZPjn1qvvO9KlxX14EGnR4cHN6vqvLkEY7Y6jIox8pZCb/FTdtnl01IWjbFXz86aRdVb/Ly4U1yRhLhaP4txypbgwn/H/PncAbUvG5feH720/EH3acyVD1kcaipT5vuW2GjFvT92N/QT7Du3k7m+JdnKTTD6m90e9h1ydeEaOdhKF4zfmpqKNc7Es+yui6J3X1lnybnql0hQhs3V919TL5usHj7t3XNQdMwpl1v8Zk1ml/U+e0GXSzB68XGgxUH3PfXKen1ohd8nFIx6aDO3tl5p7EEZK+NiAzN2KeijF4y5BOhDPznOCW5/vUo69qR5bKhJtLW2DMxxzYu7fcxDYND5t7ld/Ngbysf3r5jdxb+4wH30AlYfFJ7wW7tOtWEX32MZf+vG4roNWV58WRnFjA6wh4W0/AQQjPkZsQcEIACBnASaQzCGcXYNFYze8ha6GWYO8NU1c1zGTVmsZLlSe+PZx6I/zLvTLU+6cVE9Vya3IcuLF4x6iv7N76fi/8JdvUAN3Rx9ltR6FsYCBKNi8ObdnIrNkajL9vTeX4OSPrTZdTf3sRDBuMpuRpWOviUIRsV2KsZTzVshlWRo2d0p193RP5npEvi4HTJeVt53tQnj5yLvmhzGJ2bGdoaH5hKMsm7LSql22NBzXDZdLfuYUt34DfrOLVqVaCs3wbj4lxeaa+/zRWdrrFbBuNy+v0reEycY/RdHLp2qN6n9/sfEpepVquk3RZayfDFvhQjGRbef7bKGNlQQKe5v9lVD3PVoDAoRyNVq7O9CibaKbfkEoyz9sy5LWRgHnDUl6nbMqEjJgp6Yeq479YQbH3PJkuKuw8fGhkKssXzC/n1iG/1On/Cje90mHwOsWMlTb11Zx/IYHhu37LMTd7VEXwPPSbnIx+3Huh0EEIw7WLAEAQhAoFEEmkMwhtlKs7mkbvnj4uhZi+/ItDAuvOPbkcopHHjsxOjILAkvnp/3C5f4RllQldhFLbRKZTtnNoBebKqu2sjaf/jhvi8tezDauOz+OnFxxQhG9f2wuTcqA2guYRxeg18uVjAqg+OqB651N6WhK63vP8n3MEtqNgvj5qcfcRlcw++BakvOt/gpNcWayp0urikjrr5roeutjyHN5tIcurue8MNpUQdLd5/Znpp5o0s84hIDXWEZP62OpuJJFVfaZ/wl0f725D/pVm6Ccd2sm1xsaS5XxkIYIBjrWxjjuEkIqVTD0zNvcC6ecrM+Ok9ZhUIEo7dW7dmjXyRLZL1micQUh6cson0mXBYdfPyOmGhvyQtj/uodn/CKfIIxjEX0iWSUDGeOZSxVG2JlkbJl0Z1vJZRUbzJ0Ey6Gjx/6a6vnRM/MvsV9HHvtXFfbcu2sKZa0a56LQVQsYkOajx2Ni4tsSD/VtC+CsZpmm7FCAAIlIdAcglFxOnNrU/LH1quzm5SFljlRwlAtdK1U0hElH5GAGHf1f9Vz/VONxvk/n+TEVigqP7f4xHk3TXD9yRI4zOJ14uo0age5hHqLnT6/YxkZ1zx4vRNREjbhcZ98+H702NTvuJs4lZrw2TOLFYy+dIhEqrKHhufUNfmmm6HW7dr7j64chS//EHJL72ALuSyMKquhcidqGktjy2eotuMuVrw+l2tmPsGo78nC289yMauh+Ne1+VhQ1aQbbFkoM9tWSzyy9DcXu9WhqFxs2SsVY5ZN/Ktupa8LOuTCO6POFkOW2f76543mEptKrDHwrBuj3aw0y8I7Uol3xl5lLrLBfGQe29jP5SYYNy2d4bL4ftXmePz1jzZ2WBWZJTWMYczmkprLwqi/QZXSiGtPW93RNyzeWclclNQlVytEMD4/71+jTctmuG7i3DV91lbtoPqGh49MJZLS5yfuPC/665YXI9UQHG0Zn7P+RlnMdmvLupxEyycYV02/wsqvLHW/1afftsbed3KnVakSlR5RGaNvXnRXvUsJH1yEorIYPv4kX2z/NPqdWWPlEu9duP31ZGbQ9cfkevdCfaDVw+3aZ0SuXdlWSwDByFcBAhCAQJEEmkMw6pK9lUbLA864PupyWKp2mgTfq5aufcOSVDpybQ9vwrdZnT1lEFWTG9Sgc29xcYn6rKQ1T//2ZlerTG5bo81tK0ykohTnm1bM0q7OGthnwiVRpy49nIVINRdlhVxvWTn/bqnrR9vNmGIg1cLC9qEFSWJNCVmUmVQtLEVRrGBU+Q9lhFXby9LdH23XGo5F59y47AE3VpWN8NdarIVR5/PWTdURPM5cnnzfsnK8suohl7316ImXadfY5l1BNQej/ml61pvfUDBmWn1l6VtnT+V93crhF/3GzZk/obf66nNmpl1ZCVZYaRFZ/DpY7cYTTHD79vq6BdHzC37pPippkiyNanJXfX/zelfKxa2wl/6nWtmWIwb7j3XeH7ebZZ2n876H2k1oX2dh1k28MtaWopWbYAyzeRZaDiOOS3ijXmg/3nWwXMtqFCMYfc0/ibNDhpxZp8SFavotMg8L/bYc0H9c1P+M6+KQptcVIhhDi5xcJodaCR+VllDTOJbbQxe5xqplnlMuyXJNVlOtwX5nXOMyfroV9qJssS8susfVY4wrEeL3a8i7F4z6HT44KImj3+/1C34dbVqeEr9HWwZo1bD0bbPFsK+rzXB8yJCzo6PG/8hvchmVl9qDJI2zwx7dnPj1G4vh4/vQu+p5vrp6tj3obG1JoqZGimFVy5YUyW2MeVG94DnXDHNbkso8G3OailuFYKy4KWVAEIBAUxNoLsHoBZUfb7uOX3PJS3SToqbsoBIUeiorIba7WXp8Hb4w8YhESXtLsd6qTTsriv2Gsyzq+KNOutgKMI/VYrop0cASuwH66L0t6XVaUP/KXBq2zMLrS+wf/Ae1BaplodzJLJwfvLPZXZ+Sqqg2mpridHpYKYw9D+4XPWG1vXR9oWunz9KZK+mNv47n5t7hitf7z2LS1mIVt/3lLVeaQ+vV/1Bzs9q9tgZaEoLRlxdR/7Lkdu56eKSn5H976xU3Xq3PFnsaxglqv94n/SDqfux4LdZroWDURs1DWytmvv2Tj5zY8wf0GnWhicKUC6pfp/OsUF1Ni09S03V2qOkWffHF9vT8ZrLRfqHVUp93brNLtEunvewmfIv77uiYtu07O+u2+tzZrIUnXvpAup6bjlHzdTJTn1KvSiCkuNBStHITjBLLcuFTa0hCE7lV+ht3HfulWZF9bJ4XKlqvNu66R9IPSV5cNM2SDaXEgISTmuaq1c5t3LJ/UaKTA/rX/bv32xr6LgHxqGU1Dps/t278/6HVV9KbBpilWclS1IoRjI+bt8Lf3tzo+tFLp/0Oi3bZfa9IQkEZNfV7qHHLotfeHob41thr1fGr77sqetNCANTUt2oU6nzKLqqm0h5bLW7Y/W1YLcGB5/wsnaRl7czJ0evr5rv99KKMqfoN/Pi9N13pB63TcSPswVEne7hSbPOCUf1oDnb92j7Rl+a6/7F9H8VGTeJ18HfvcMv+Rb8XS0zc+gdQOrajeQZ88b+fpR/4ZbvOYvj48yuR0fybUnHpfl02a6ffHvf+otUvfmHR3W6T6p9m/s3EHcM6+w5+aQ0QEIAABCDQeALNJRh1xRI3T/3nDc5iFY6g5oDe0bGnX+uSnXgBmWkpevfltdFzlsRGlqiwSVT1s2x/so7FNd04vGIFnDf9fqazSIb76IZhX0vD3nP4ufWsYrIyrplxnbMq+WNkedvvqOFOFPli79omi1f3fqOjRWaFUp+hYFQ5EV3z4PNvj2rsib6arzXYvd+4qPeY1JNnt8Fe3ly/JPrjgl+lBaJfLzGjLLGHDj0r+mrHHe5roTU0n0tqWAvS9+vfN6+dH73w+N1pAe7X13TrFfUefVHU4evd/Kp678pgKmutmmI+5f4Z12QVePGJ6dGb/73EuZ2G+2h8nazO4VGW3j68MQ73MbOgm8eXzeop63LY5MLa32oh+vqX4TbFQD475zbnahyu13X2P+1qY77MrNyz05vi4isVX/rITePTN6naOddY0501cqHcBKOG4S19rki61ZHL5X7shx1aevy6bO+TbraMlrWujL4IfLZ9/fpe9oCi5wnn+Y9Fvf996zvRvMnjCuojrImnB1KPWi1YtXwuqYeP+G50xInfS59DD7WUZOvlFTPTlr30RluQyOhz8mXp+oJ+W2OvVcfrN3HD4/9uf+/3+O7cu+oDHjnmYvstrHFz7TdmZij9kyUUe3bOrWmB6PeTKOtq8bxyY5XoTaJteW5RpAeGsl6GTb+z+p1QPcguhx4XbtqxbL8XG5681x3vhb/fWHPAUc6bol3HGr8q/V4sH9/RYivz4wWr1h1z8uXRQYPqPpDw+8a9y6VWmWkljDOtvXH7s24HAQTjDhYsQQACEGgUgeYUjP6CFV8oi+NO9k9fLkE7BU/u/T7Z3iUUPnh3s8XPtDKXxW5p98ls+4frt3/6sYnVt6P/2/5Z1Nosd+0772MCLxXzEu7nl3XjIJfYT7dtdZaPuIQoft+k3+X+6sSzuYXKCtdeIsySrZSySdBJgG63GxXduLev2dfmZuf8p7QbM82JrA2t2+6af3/bQ2w/+3irWXo/jNpZXFyhx/nOFXf64btvRG3a7+YS1egGMl/z49N3qINZjXeudUHOd1y4fZMVsN+w9L467sjh9qSWy1Ewyi16YW3G2EOHfjvqPS6VuTapMVd7P0o0s83+/j7/ZJt5XNSYJbyL1fPbpXRY7O92m4lkxY7v2mlvd86GnExWSXlhSNDowZ37fSzhb5QyFut38Sut2xZUZiQcix7a6VplDZXHSCG/F3pAVQwfnT/M2Dre4uGzxaqG1+qX1zxwnSU+sgzf1iZOXuQ8Ifw23nMTQDDm5sNWCEAAAnkJlINgzHuR7ACBciRgN5AL/vk0584cV6IkyUsuR8Go8YXuevv3HWNxdakMu0mOnb4gUCkE/N+L3HxH/TjlYp1vbAoHWPkfV7hYUO2bGYOZ73i245LKdwACEIBA0QQQjEUjpIMqIrBmxvVmjezqLBqvr30k+ugvf3ajP+myGQ22yDQEW7kKRsWEPmWu2j4GThkzew4/z5ULaGWWHxoEqpmAYg4/tt+IPbr3cTU13964yuEYaOWAuvYZmRONal3K3XejJYDziYdcllUlHCuh5TbnRbXQjVgYW+jEcdkQgED5EEAwls9ccCXlTUCJXpQdNbP1O+UKF0+auT7Jz+UqGP0YX3jsbotH3ZGNVkXlVQePBoGqJWAeCLOt/uPnFjMdNlnijz3z+nBV7PLsq4bWOfaYSVdEB30jFRsbewArsxJAMGZFwwYIQAAChRFAMBbGib0goGQ5G56cHr29aY1ljf0s2rNH32i/I4fZe7+Swyl3wSgAsoK8aglbXln9u+iQ48+sk8yl5IA4AQTKkMBLS+6PNpsngjLOdrZEbPq96D5gYs5YeT+MtbOmRG9vWBX1GHx6dKAd08Yy1NIaRwDB2DhuHAUBCEAgTQDBmEbBAgTKlkBLEIwenhIYKfFJQQmS/EG8QwACdQio3EwrJRnD/bQOl8Z8QDA2hhrHQAACEAgIIBgDGCxCoEwJtCTBWKYIuSwIQKBKCSAYq3TiGTYEIJAcAQRjcizpCQKlIoBgLBVZ+oUABCqdAIKx0meY8UEAAiUngGAsOWJOAIGiCSAYi0ZIBxCAQJUSQDBW6cQzbAhAIDkCCMbkWNITBEpFAMFYKrL0CwEIVDoBBGOlzzDjgwAESk4AwVhyxJwAAkUTQDAWjZAOIACBKiWAYKzSiWfYEIBAcgQQjMmxpCcIlIoAgrFUZOkXAhCodAIIxkqfYcYHAQiUnACCseSIOQEEiiaAYCwaIR1AAAJVSgDBWKUTz7AhAIHkCCAYk2NJTxAoFQEEY6nI0i8EIFDpBBCMlT7DjA8CECg5AQRjyRFzAggUTQDBWDRCOoAABKqUAIKxSieeYUMAAskRQDAmx5KeIFAqAgjGUpGlXwhAoNIJIBgrfYYZHwQgUHICmYKx5CfkBBCAQNEEeo6/tOg+6AACEIBANRBAMFbDLDNGCECgpAQQjCXFS+cQKAkBBGNJsNIpBCBQgQQQjBU4qQwJAhBoWgIIxqblzdkgkAQBBGMSFOkDAhCoBgIIxmqYZcYIAQiUlACCsaR46RwCJSGAYCwJVjqFAAQqkACCsQInlSFBAAIQgAAEIAABCEAAAhBIggCCMQmK9AEBCEAAAhCAAAQgAAEIQKACCSAYK3BSGRIEIAABCEAAAhCAAAQgAIEkCCAYk6BIHxCAAAQgAAEIQAACEIAABCqQAIKxAieVIUEAAhCAAAQgAAEIQAACEEiCAIIxCYr0AQEIQAACEIAABCAAAQhAoAIJIBgrcFIZEgQgAAEIQAACEIAABCAAgSQIIBiToEgfEIAABCAAAQhAAAIQgAAEKpAAgrECJ5UhQQACEIAABCAAAQhAAAIQSIIAgjEJivQBAQhAAAIQgAAEIAABCECgAgkgGCtwUhkSBCAAAQhAAAIQgAAEIACBJAggGJOgSB8QgAAEIAABCEAAAhCAAAQqkACCsQInlSFBAAIQgAAEIAABCEAAAhBIggCCMQmK9AEBCEAAAhCAAAQgAAEIQKACCbQIwTjzkr4ViJ4hQQACEIAABCAAAQhAAAIQSBH41tRnyhIFgrEsp4WLggAEIAABCEAAAhCAAASqiQCCsYjZxsJYBDwOhQAEIAABCEAAAhCAAATKngCCsYgpQjAWAY9DIQABCEAAAhCAAAQgAIGyJ4BgLPsp4gIhAAEIQAACEIAABCAAAQhAICTQImIYwwtmGQIQgAAEIAABCEAAAhCAAASahgCCsWk4cxYIQAACEIAABCAAAQhAAAItjgCCscVNGRcMAQhAAAIQgAAEIAABCECgaQggGJuGM2eBAAQgAAEIQAACEIAABCDQ4gggGFvclHHBEIAABCAAAQhAAAIQgAAEmoYAgrFpOHMWCEAAAhCAAAQgAAEIQAACLY4AgrHFTRkXDAEIQAACEIAABCAAAQhAoGkIIBibhjNngQAEIAABCEAAAhCAAAQg0OIIIBhb3JRxwRCAAAQgAAEIQAACEIAABJqGAIKxaThzFghAAAIQgAAEIAABCEAAAi2OwP8DAAD//1T9uHwAAEAASURBVOydB7gURdaGDznnjOScJAhKEgXEiIoBxLSmXV113TVHxCzm9K+ua84LAiKKKCpBJCsIKJJzRnLO8NcprKZnpmfu3Mjcmbd8pKsr11tzp+frqjqV57BxgoMABCAAAQhAAAIQgAAEIAABCIQRyINgDCPCLQQgAAEIQAACEIAABCAAAQhYAghGPggQgAAEIAABCEAAAhCAAAQgEEgAwRiIhUAIQAACEIAABCAAAQhAAAIQQDDyGYAABCAAAQhAAAIQgAAEIACBQAIIxkAsBEIAAhCAQKoS2L97h+16gSLFUxUB/YYABCAAAQh4BBCMHgo8EIAABCAAAZGZ7z9tMbS45j5wQAACEIAABFKeAIIx5T8CAIAABCAAAUdg28qFMu6Jv9nbTg++LSWr1XNRXCEAAQhAAAIpSQDBmJLDTqchAAEIQCCIwOQXb5ON82fYqHINWkq7O14OSkYYBCAAAQhAIGUIIBhTZqjpKAQgAAEIxCKgQlEFo9+pYFThiIMABCAAAQikKgEEY6qOPP2GAAQgAIEQAqP7XCq7N64NCStSrrJ0fXJASBg3EIAABCAAgVQigGBMpdGmrxCAAAQgEEhgyejBMnvgq4FxTS65RWp37RkYRyAEIAABCEAg2QkgGJN9hOkfBCAAAQjEJKDHaIx54FJxx2mEJ9bjNbr0GyAcsxFOhnsIQAACEEgFAgjGVBhl+ggBCEAAAlEJzP/qfVlg/o/l6p97jTQw/+MgAAEIQAACqUYAwZhqI05/IQABCEDAI6B7FnXvYjxO9zLqnkYcBCAAAQhAIJUIIBhTabTpKwQgAAEIhBCY9vqDsnbm+JCwaDeVW5wsrW96Ilo04RCAAAQgAIGkJIBgTMphpVMQgAAEIJAWgaBjNNLKwzEbaREiHgIQgAAEko0AgjHZRpT+QAACEIBAXAT0zEUVjc6Vq99CNi6Y6W7tNTxMz2RU0YiDAAQgAAEIpAoBBGOqjDT9hAAEIAABj8DKSSNk5gdPe/fqCZo9DJqFbHH1fVKt/VkhebmBAAQgAAEIJCsBBGOyjiz9ggAEIACBQAJ6fMa4J/4mavDGuUotOkqbm550tyHXqa/3kXUzJ3hhavim04Nvc8yGRwQPBCAAAQgkMwEEYzKPLn2DAAQgAIEIAkHHaMSygBpkSZVjNiKwEgABCEAAAklKAMGYpANLtyAAAQhAIJKAzi6OeeBS0atz8Yi/cJFZoEhx6dJvALOMDiJXCEAAAhBIWgIIxqQdWjoGAQhAAALhBGa+/7SsnDzCC85fpJh07fepJ/yG39jZi1NP9//+YO9VYI5+oLcc2L3T3us/1dqdJS2uuc+7xwMBCEAAAhBIRgIIxmQcVfoEAQhAAAIRBLatXGj3Lvojmlxyi9Tu2tMLiiYYNcGS0YNl9sBXvbTq0b2MJavVCwnjBgIQgAAEIJBMBBCMyTSa9AUCEIAABKISCD9Go0jZSnZ20Z8hlmDUdDrLuHvTOi8Lx2x4KPBAAAIQgECSEkAwJunA0i0IQAACEDhKIOh4jKBjNNISjPGWc7RmfBCAAAQgAIHcTQDBmLvHj9ZDAAIQgEAcBEb3uTTkGI1y9VtIuztficiZlmDUDJNfuFU2Lpjp5dVjNtTKKg4CEIAABCCQjAQQjMk4qvQJAhCAAAQ8AunZexiPYIxnL6RXOR4IQAACEIBALieAYMzlA0jzIQABCEAgOoGgYzRiWTeNRzBqbeHWVjlmI/oYEAMBCEAAArmbAIIxd48frYcABCAAgRgEws9PDD9GIzxrvIIx6JiNeM5zDK+PewhAAAIQgECiE0AwJvoI0T4IQAACEMgQgd0b14ruXfS7rBR14WJU69G9jLqnEQcBCEAAAhBIFgIIxmQZSfoBAQhAAAIhBKa9/qCsnTneC9NjNDr1fUd0+WhWOJ1lHPf4X0OO2ajc4mRpfdMTWVE8ZUAAAhCAAAQSggCCMSGGgUZAAAIQgEBWEgg6/qLF1fdJtfZnZWU1snLSCJn5wdMhZQYd1xGSgBsIQAACEIBALiKAYMxFg0VTIQABCEAgPgKTX7xNVDQ6F+0YDRefmWv4MRvlGrQUFY04CEAAAhCAQDIQQDAmwyjSBwhAAAIQ8AjoUtGZ7z8l62ZO8MLinfWL1+iNV7DxhM9mVmrRUVpcc3+WLX3114UfAhCAAAQgkNMEEIw5TZz6IAABCEAgRwiokFsw7D3JX7S4tLnpybjqzIhg1IKnvt5HDuzaIfXPu1Z0hhEHAQhAAAIQSBYCCMZkGUn6AQEIQAACgQR0xjFeQzcZFYzpqSOwkQRCAAIQgAAEEpQAgjFBB4ZmQQACEIBAzhPIqGDM+ZZSIwQgAAEIQCBnCCAYc4YztUAAAhCAQC4ggGDMBYNEEyEAAQhAIEcJIBhzFDeVQQACEIBAIhNAMCby6NA2CEAAAhA4FgQQjMeCOnVCAAIQgEBCEkAwJuSw0CgIQAACEDiGBBCMxxA+VUMAAhCAQGIRQDAm1njQGghAAAIQOPYEEIzHfgxoAQQgAAEIQAACEIAABCAAgYQkgGBMyGGhURCAAAQgAAEIQAACEIAABI49AQTjsR8DWgABCEAAAhCAAAQgAAEIQCAhCSAYE3JYaBQEIAABCEAAAhCAAAQgAIFjTwDBeOzHgBZAAAIQgECCEMDoTYIMBM2AAAQgAIGEIYBgTJihoCEQgAAEIHCsCSAYj/UIUD8EIAABCCQaAQRjoo0I7YEABCAAgWNGAMF4zNBTMQQgAAEIJCgBBGOCDgzNggAEIACBnCeAYMx55tQIAQhAAAKJTQDBmNjjQ+sgAAEIQCAHCSAYcxA2VUEAAhCAQK4ggGDMFcNEIyEAAQhAICcIIBhzgjJ1QAACEIBAbiKAYMxNo0VbIQABCEAgWwkgGLMVL4VDAAIQgEAuJIBgzIWDRpMhAAEIQCB7CCAYs4crpUIAAhCAQO4lgGDMvWNHyyEAAQhAAAIQgAAEIAABCGQrAQRjtuKlcAhAAAIQgAAEIAABCEAAArmXAIIx944dLYcABCAAAQhAAAIQgAAEIJCtBBCM2YqXwiEAAQhAAAIQgAAEIAABCOReAgjG3Dt2tBwCEIAABLKYAEZvshgoxUEAAhCAQK4ngGDM9UNIByAAAQhAIKsIIBiziiTlQAACEIBAshBAMCbLSNIPCEAAAhDINAEEY6YRUgAEIAABCCQZAQRjkg0o3YEABCAAgYwTQDBmnB05IQABCEAgOQkgGJNzXOkVBCAAAQhkgACCMQPQyAIBCEAAAklNAMGY1MNL5yAAAQhAID0EEIzpoUVaCEAAAhBIBQIIxlQYZfoIAQhAAAJxEUAwxoWJRBCAAAQgkEIEEIwpNNh0FQIQgAAEYhNAMMbmQywEIAABCKQeAQRj6o05PYYABCAAAQhAAAIQgAAEIBAXAQRjXJhIBAEIQAACEIAABCAAAQhAIPUIIBhTb8zpMQQgAAEIQAACEIAABCAAgbgIIBjjwkQiCEAAAhCAAAQgAAEIQAACqUcAwZh6Y06PIQABCEAAAhCAAAQgAAEIxEUAwRgXJhJBAAIQgAAEIAABCEAAAhBIPQIIxtQbc3oMAQhAAAIQgAAEIAABCEAgLgIIxrgwkQgCEIAABCAAAQhAAAIQgEDqEUAwpt6Y02MIQAACEIAABCAAAQhAAAJxEUAwxoWJRBCAAAQgAAEIQAACEIAABFKPAIIx9cacHkMAAhCAAAQgAAEIQAACEIiLAIIxLkwkggAEIAABCEAAAhCAAAQgkHoEEIypN+b0GAIQgAAEIAABCEAAAhCAQFwEEIxxYSIRBCAAAQhAAAIQgAAEIACB1COAYEy9MafHEIAABCAAAQhAAAIQgAAE4iKAYIwLE4kgAAEIQAACEIAABCAAAQikHgEEY+qNOT2GAAQgAAEIQAACEIAABCAQFwEEY1yYSAQBCEAAAhCIj8DenVskX/6Ckr9Q0agZDuzdJQf375UChYtJXpM2u9yhg/tl/+4dXvF5CxSSAjHa5SXEAwEIQAACEPiTAIKRjwIEIAABCEAgCwn0v/1EKxh7PDJcChUrHVjy8Kd6ybY/lkrbSx+SOm3PC0yTFYHTv3hF5v7wsVdUlcYdpPMNr3j3eCAAAQhAAAJpEUAwpkWIeAhAAAIQSGkChw8dkj07NkmRkuXj4qCCUV214ztLp+ueC8wz/MmLZNuGFdkuGOf98D+Z+2N/2bt9kxw8sE8QjIHDQSAEIAABCMQggGCMAYcoCEAAAhBIbQILxg2SaUNfkOrNu0jHq5+KC4YTjJr4lOtflOOadIrIl1OC0VU8Y9i/Zc7oDxGMDghXCEAAAhCImwCCMW5UJIQABCAAgVQjMPWzZ2XB+EFSo2W3DAnGAoWLywVmaWr4fkYEY6p9kugvBCAAgdxLAMGYe8eOlkMAAhDIEIEtqxfIri3rbF4VMhXrniBqHGXj8tnyx8Jpsmf7Zildpa6Uq9XMXOtFrUOXam5Y9pvs2rRGdpry8ubJJ+VqN5PyNZtLnrx5I/KtXzIjxACL5MkjVRt3tOl2b1sv6xfNlM2r5knpqvWsQMuTN19EGRqwacUc2bxynmxZs0jyFSgoJSrUsDOABYuW9NIf3LdH1i2c6t2XrdFEChcvKzs2rpQVM0bLjk2r7f7CUpXr/FnX0fZqW7R8dXPHfGLLKVezmTQ7469eeX6P7YPpi3P+GUYNq3PSedL2sodctL2mJRh1f+Om5aafq+ZL3nz5pVzNpvb/IiUrhJQTdKN9VDbb1i6Rw4cOmqW0FWTNvEmyfMbImDOMmm/jstmin48Dhl+JCtWlcsO2UrJizaBqCIMABCAAgRQhgGBMkYGmmxCAAAQcgXHv3i0rf/vB3qooO/vu/8moV2+QvTu3uiTetU7b86VNz3utERcXqCJk2pDnZfGUL+2+OBfurqWr1peuN/8nwuDLF4+dJ7s2r3XJ7PX0W9+1SyVde1yk1tv20r7u1l5V0Ez8qK8RNbNCwvVG+9HmorulXseLbZwK2e9fvs5Ld2LP+2TL2kV2ttAL/NNTtHRFOf3W90Sv6uaPG2j6F7z38M8sIZdLX5hs63eBTjDWbtNdlkwdboNPu+VNI8xbuSQSTTCq0J1q6la2Qa5pt+vk+HP+brT2UYHr0m03eyInffxQIB+XJmgPo1ps/eXzF2XRlC9cspBr3bY95MRLHgh8CRCSkBsIQAACEEhKAgjGpBxWOgUBCEAgOoHl00fK2nmTIwSCCqYqDdvLfiMg1sydJPv3HDmOoenpf5Xm59wYUuCwx3vYWTqdoStbrbEUK1vFzt4tnTbCplOx1O6KR0LyzPzqNZNmlQ1bv3i67N62wYsvWd7MZpnZxpWzfrCiUgVg7+cmeEJMjc4MffgcO2OmR1bU79hLtO59e7bLwolDZPv65bass+76RMoc18CWMeu7d8zM2mTr1zxq9EVd1SYnG3FYyc6m6kyeuponnCUd/vK49ess64IJn1n/hqUzzWzsH3ZJqZsNtRF//pO/YOEjwjZghrHbv96SsW/ebjnq7GaPh4d5R2hEE4zfvXytJ/h076PO/u4z47Bq1lgza7jQ1lqj5elmeWw/fzOMxdVlMvypnl6YLqEtVbmuHDqwXzatmitr5ky0cRGC8fBh+ea5y72ya7U+SyrUbmnTrvz9Ry9fqx63SaPOV3jl44EABCAAgdQhgGBMnbGmpxCAAARCCAy8u6MnolQUHn/2Dd7M1f49O2Xk//3NCgkVbz37jQ7Zh7fVLHnUJaBFSoUukVxohNbPg5+2Qk9n3qK5nwY84QnWNhfdI/U79bJJdfbyU9MuvXa/f5BZDlnLhrtZ0aJlKss5934acpbg4cOH5JtnL5OtaxeLLj098/YPvGpVpM4e9b691/2EZ9z+nlemGLE07r17vNnWy178yUxVHl1aqpkys4fxrDs/skt1x71zl62/4amXywkX3G79QYJxpRGFLq0a2FHR5znT1p8HPS0LJw2xQU4Y2xsVfc9fYZeSqiVXnbVVAe930780x2uM+ThiSerCiZ+bcvvZ8dL26uyw300b8oKZcR1g4y82nwHOcPTTwQ8BCEAgNQggGFNjnOklBCAAgQgCQx7sZpehVm7YTrrc+O+IeJ0FHPnvG2z4Gbe/L+VqNI1IEx6gs3FfPNrdBvd6emyIyPSndYKxZqszpMNVT/qjzEzZkTMKXZ26THPgvUcsjWo7tb3hbunUb2TSJw9FCNW5oz+W6cNescnPvONDKVu9cUhW3a+nM2zqLnj0m4ijMzIrGMtUayRj37pdVs8eb+twQi9IMCprZa77Jc+47T2b3v+P7hn9rM9pdsZSZwLbX3lkRlT3OY4wglFdND7RrKR+1e9iOzvb6NQrpNUFt/mrs37/eKqg1P7gIAABCEAgtQggGFNrvOktBCAAAY/A0IfPtstCO/zlSbMk8wwv3O9x+/E6XmVmvFr5Zrz+TLRv9zZrmOXQ/n1SsFgpYzzngJ2Z1OiLHv9OChUv4y/O8zvBWLfdBXJS7z5euHpW/T5Odm9db88xLFyirDWEM+L5K20aFYv58hUISa83B43RHl1mq6738xONoZgjaeaNHSC/mGMxdPmqzkyGOxVhA+5sa4OdQPWnyQrB6F9Oq0tvz7l/sHxtlo+Gn8P4ed8z7XmPrc6/VRp1OdJff1vUr3sN55lzFXUmUPeeqtN9kpM/eSRCLNvIP/+JJhgH3NnOzubqzG2ZKqGziy7/6rkTbZpTb3jZM1Lk4rhCAAIQgEDyE0AwJv8Y00MIQAACgQScYOz01+elWrNTA9MMuu9UUaMoJ/S4XRp2PjITpwnVqMykDx+0+xgDM5rAnmaGMdoSxliCMby8pVNHmNnDUAM44Wn89z0e/sruUdQwJxijzdppGrc097R//Fcq1mutQZ7LCsGohS2aNFR+GnhkJrVF93/I4p+G2Zm9tpc+JHXanmfrc+K8g5k5rGlmEIOcngs5dcizduZWZ3DVzfjy/2TOmI+keNmqcl7fYMM1QYJxz/ZN8vlDZwZVExjWtndfqdPu/MA4AiEAAQhAIHkJIBiTd2zpGQQgAIGYBNIUjGZvXP87TrJl+PfU/bHoF2NV9e82XPc3Hte0kxQvV83sh9xrRNCKwJm+8IakRzCu+HWMjDd7DdVpO/KY/6I6c5xHtWan2Nk2TZMoglHb8u1LV5ujMmbbtpWqVNvuD/WLMDfbp8aC1GhQkJv7wycy/YuX7REhFz7+rU3i9mmmVzDqPtXB93e2ZTQ57RpjvCj2ctMKxsqrzvjiIAABCEAgtQggGFNrvOktBCAAAY9AWoLRb3nTb4BmyoDH7bEPamDl7Hv6hxyfoec7fvHoubaOy1762asr3JMewbht3RIZ/vQltoigfYbhZfvvMysY3RLQSvVPtEeF+MuO5nczheF7/vRYkGFPXBiSzS8Y3bEjDU+5TE648I6QdO7m54FPWcM3Feq0km7/fNMGO8M1agn2kmfNXskwwz2aaNLHfUUt2IZbSXWzq7FEqqubKwQgAAEIpCYBBGNqjju9hgAEIGCOqTiyhzHaklRnmVSFSK9nxpmZsSNn/7kjNeq1v9Cez+dHuXjylzLl0yPGWC59cYpnddWfRv3pEYy6L3LgPSfbfXQNTr5EWl98d3hx9l6tpeqsWcEiJbz4zApGt5S0kNmfeaHZkxl0/qFX2Z+eaIJRo3///l359evXvSx+wTjhg/tl+YyR9szLnk+N8Y7gcInV+I8avdHjQfyicu38n2TM6/+wyU69/iV7bIjLo1fdDzr0kXNsUPlax1srqi7eHeNRokINa5U2Wv/27dpmreK6fFwhAAEIQCB1CCAYU2es6SkEIACBEAJOMLY895/S+LSrvDg1BDNz+GsyZ/SHNuykS/pI3fYXePHfv3KdbFj6m5lZLGUMyQz0liku++U7mfjRUQM2Fz85KqrISI9g1Ip/++YNmfXd27YNx5/1d2nS7WrPsI22d828STJ96MvWyI6bedPEmRWMfiuqTbpeLS3ONcLszxk8FVHThjxnzkpsHcInlmDUtn715IXe3k+/YNSzJNVqqTrdc9n1ptc8K7O6j3S8EZR6nqIuA77g0a/tslRNq0eQfNanm7WeqmPS7V/vmKNDamqU6D5FZb1q9jh7r2dt9nh4uPXrP35LuMc1PUVOurSPV67Ga/9/G/GmrfeiJ7732qNxOAhAAAIQSA0CCMbUGGd6CQEIQCCCgBOMGqEHy5cwIkP3IW5bt9QautHw8CWMGuZm3dSvTi1/7jXWUvfu3Cp61uF+c9C8OhUvlRu09Y7NUKG5xZzfqO7g/r1W6Kg/f6GierFOZ7jOvud/UqxM6DmCOqs24plLrWVRTaiiqYSpN2/+Avb8RRVN6rTOHo98bWfp9D6zglHLmPhhH1k2/Tv12mM39GiJnZtW23o1LNwCayzBqOk3rZgj3754RKD7BaPG+YWx62P+wkVl6+qF3pmZ/nMrNY+6iDEx51ceMsx2mHaqK1utsWxaOcf6dSlxg069jei+xt5P6f+YNcJjb8w/ajFV9ypu/2O5N5baFj3qI/xYEpeHKwQgAAEIJC8BBGPyji09gwAEIBCTgF8whidU4dXKHDIfzfjKrG/ftjN+Tqhp/iqN2kvby/rKdy9fJ7s2r7VF+q2TurMHw+sKv9d9kaWr1AsPtkd2zBz2qswzB8n769WE2t4GnS6VRsaSq1+Azh830M4C+tsRXrDbx9ftX29LhdotwqPlwL7dovXOHz8wIk6X5TbvfrOpv7QX54zX6LEXevxFkJv22XO2vPZXPCa12pwdkkTPbPzp0yftkSf+CBVyHf7yRGAbNd3KWWPNXsWHPLGvYbqcuE67HsbK7W3y6d0dNcg6ZdX6ojvdreg5lmoR1ol9F6H51WJrszP/FiHiXRquEIAABCCQ3AQQjMk9vvQOAhCAQFQCTjCefO2zZraumuza+ofkL1jUiJx6IfsAoxWgom3HxlV2tlBn+/IVLBwtaZaH64Hy29YtlnwFClkLrUVKVcjyOsIL3G+WhaoBHl0eWqxsFXOMxXHe8tTwtFlxr/VsXj3frIDNZwR03RAhHKt8XYa6c/MayV+gsJQy+dLjdJntljULrSAvUqqilDR7G90S3PSUQ1oIQAACEEgeAgjG5BlLegIBCEAgXQScYIxm9CZdhZEYAhCAAAQgAIGkJIBgTMphpVMQgAAE0iaAYEybESkgAAEIQAACqU4AwZjqnwD6DwEIpCwBBGPKDj0dhwAEIAABCMRNAMEYNyoSQgACEEguAmPful22rV0sbS9/xBwN0Sq5OkdvIAABCEAAAhDIEgIIxizBSCEQgAAEIAABCEAAAhCAAASSjwCCMfnGlB5BAAIQgAAEIAABCEAAAhDIEgIIxizBSCEQgAAEIAABCEAAAhCAAASSjwCCMfnGlB5BAAIQgAAEIAABCEAAAhDIEgIIxizBSCEQgAAEIAABCEAAAhCAAASSjwCCMfnGlB5BAAIQgAAEIAABCEAAAhDIEgIIxizBSCEQgAAEIAABCEAAAhCAAASSjwCCMfnGlB5BAAIQgEAmCOzbuU3ymPwFipXMRClkhQAEIAABCCQHAQRjcowjvYAABCAAgSwiMOt/L0mevHml6aW3ZlGJFAMBCEAAAhDIvQQQjLl37Gg5BCAAAQhkMYEda5fJ2EevkTx58sgpfd+V4lVqZXENFAcBCEAAAhDIXQQQjLlrvGgtBCAAAQhkI4HJL94mG+fPsDWUa3iCtLv9xWysjaIhAAEIQAACiU8AwZj4Y0QLIQABCEAgBwismzlBpr7eJ6SmNjc/KZWadwwJ4wYCEIAABCCQSgQQjKk02vQVAhCAAAQCCRw+dEjGPvwX2bl+VUh8sQrHyamPfmT3NIZEcAMBCEAAAhBIEQIIxhQZaLoJAQhAAALRCSwZPVhmD3w1MEHT3v+UWl0uDowjEAIQgAAEIJDsBBCMyT7C9A8CEIAABGISOLBnp4x+4FLZv2t7YLoCRUtI134DJH/hYoHxBEIAAhCAAASSmQCCMZlHl75BAAIQgECaBHRmUWcYY7nap/WSJr3+ESsJcRCAAAQgAIGkJIBgTMphpVMQgAAEIBAPgd2b1smYvlfI4YMHYibPky+/dHn8EylStlLMdERCAAIQgAAEko0AgjHZRpT+QAACEIBA3ASmvf6grJ05Pq70lVt2ktY3Ph5XWhJBAAIQgAAEkoUAgjFZRpJ+QAACEIBAughsWTJbJjxzc7rydLz3P1K6dpN05SExBCAAAQhAIDcTQDDm5tGj7RCAAAQgkGEC4568XratWODlL165puxYu8y7V0+xStVl57oVXljJ6vWlU5+3vHs8EIAABCAAgWQngGBM9hGmfxCAAAQgEEFg5eRvZeb7T4WEn/TPZ+Wnf98TEnbiP56Sn1+7PySsxTX3S7V2Z4aEcQMBCEAAAhBIVgIIxmQdWfoFAQhAAAKBBA4d2C9j+lwme7Zu8OLL1W8h7e58RYbf2NkLU0/3//4gk1+4VTYumOmFFy5VXro82V/y5i/gheGBAAQgAAEIJCsBBGOyjiz9ggAEIACBQAILhr8v84e978XlyZtXTun7rhSvUitQMO5Ys1TGPnatyOHDXp4G510r9btf7d3jgQAEIAABCCQrAQRjso4s/YIABCAAgQgC+3ZskdEPXCoH9+3x4mqecr40u/wOKwiH39TFC1ePzjCq++3j52X5+K+sX//JV7CwdO03QAoWL+2F4YEABCAAAQgkIwEEYzKOKn2CAAQgAIFAAjM/eFpWThrhxeUvXMwKvwJFS8QUjEFCs3r7s6X51fd6ZeGBAAQgAAEIJCMBBGMyjip9ggAEIACBCAJBS0sbX3yj1Dn90iNpzZLTaDOMmmDRt/+TuZ+/ebTcPHnk1Ifes0tZjwbigwAEIAABCCQXAQRjco0nvYEABCAAgSgEwo3XFClbSbo8/onkyZf/SI40BKMay/nhoStl96Z1Xg3OWI4XgAcCEIAABCCQZAQQjEk2oHQHAhCAAAQiCaybOUGmvt4nJKL13x+Tyq1OORqWhmDUhKunjpbpbz92NI/xtbn5SanUvGNIGDcQgAAEIACBZCGAYEyWkaQfEIAABCAQSODwoUMy9uG/yM71q7z40rWbSMd7/+PdW08cglHTTXjmZtmyZLaXt1iF4+TURz8StbaKgwAEIAABCCQbAQRjso0o/YEABCAAgRACS0YPltkDXw0J69TnLSlZvX5ImB6bEWsPo0u8bcUCGffk9e7WXpv2/qfU6nJxSBg3EIAABCAAgWQggGBMhlGkDxCAAAQgEEjgwJ6d9hiN/bu2e/HV2p0lLa65z7v3PHEKRk0//d0nZPVPI72samVVj9lQq6s4CEAAAhCAQDIRQDAm02jSFwhAAAIQCCGgM4s6w+icnp/Y+fGPpXCp8i7o6DUdgnHP1g0yps9looZwnKt9Wi9p0usf7pYrBCAAAQhAICkIIBiTYhjpBAQgAAEIhBNQa6Zj+l4hhw8e8KIanHet1O9+tXcf4kmHYNR88754RxZ+85FXhFpbVauran0VBwEIQAACEEgWAgjGZBlJ+gEBCEAAAiEEpr3+oKydOd4L01nFLk/2l7z5C3hhIZ50CsaD+/bY5a77dmzxiqncspO0vvFx7x4PBCAAAQhAILcTQDDm9hGk/RCAAAQgEEFg86JZMvG5W0LCW17bR45re3pIWPjN8Bs7hwR1/+8PIffhNysmfi2/fvhsSHCHe16VMnWahYRxAwEIQAACEMitBBCMuXXkaDcEIAABCEQloFZM1Zqpc6VqNJCTH3jT3Ua9plcwakHjHv+rbFu1yCsz3rq8DHggAAEIQAACCUwAwZjAg0PTIAABCEAg/QQO7Nklv370nKyZNsbL3OGe18ysX1PvPponI4IxfDazSusu0vyqeyR/oSLRqiEcAhCAAAQgkGsIIBhzzVDRUAhAAAIQSA8BFXKz+r8kRctXjXtfYUYEo7Zp6ut9ZPfGtdLsstulTF2Wo6ZnnEgLAQhAAAKJTQDBmNjjQ+sgAAEIQCCTBPQMRj0nMR6XUcG4f+c2KVCsZDxVkAYCEIAABCCQqwggGHPVcNFYCEAAAhDITgIZFYzZ2SbKhgAEIAABCBxLAgjGY0mfuiEAAQhAIKEIIBgTajhoDAQgAAEIJAABBGMCDAJNgAAEIACBxCCAYEyMcaAVEIAABCCQOAQQjIkzFrQEAhCAAASOMQEE4zEeAKqHAAQgAIGEI4BgTLghoUEQgAAEIHCsCCAYjxV56oUABCAAgUQlgGBM1JGhXRCAAAQgkOMEEIw5jpwKIQABCEAgwQkgGBN8gGgeBCAAAQjkHAEEY86xpiYIQAACEMgdBBCMuWOcaCUEIAABCOQAAQRjDkCmCghAAAIQyFUEEIy5arhoLAQgAAEIZCcBBGN20qVsCEAAAhDIjQQQjLlx1GgzBCAAAQhkCwEEY7ZgpVAIQAACEMjFBBCMuXjwaDoEIAABCGQtAQRj1vKkNAhAAAIQyP0EEIy5fwzpAQQgAAEIZBEBBGMWgaQYCEAAAhBIGgIIxqQZSjoCAQhAAAKZJYBgzCxB8kMAAhCAQLIRQDAm24jSHwhAAAIQyDABBGOG0ZERAhCAAASSlACCMUkHlm5BAAIQgED6CSAY08+MHBCAAAQgkNwEEIzJPb70DgIQgAAE0kEAwZgOWCSFAAQgAIGUIIBgTIlhppMQgAAEIBAPAQRjPJRIAwEIQAACqUQAwZhKo01fIQABCEAgJgEEY0w8REIAAhCAQAoSQDCm4KDT5fQT2L1tvezfs1NKVqyV/sy5IMfeHZtl2/rlsnPjajksh6RIiXJStExlKVGhhuTJkzfNHqTFZ9+ubXL40EGvnELFy3j+eD0H9u6Sg/v3esnzFywi+QoW9u7j9RzYt1u2rl0s5ao3EdO5eLORLkUIIBhTZKCTsJv6HbndfI9vX79S9HuuUInSUrRUJSlVqZbkzV8wzR4fPnxINi77XcpUayj5AtIfOrDPPgddQfr9q9/D6XGHDu6X/bt3eFm0XQUKF/Pu0+PZsmahFC5RVgoXL5uebKSFAAQyQADBmAFoZEktAmvnTZYx//2n7XSzM/4mx5/996QBsO2PZfLL0BdlzZyJgX3SHw0dru4n1ZqdGhivgWnx2bN9k3z+0Jkh+Xs/NyGuHzD+TF/1u9j+GHJhTU//qzQ/50Z3G9d13+5tMuTBM6x4LVujiZx5+wdx5SNR6hBAMKbOWCdLT/ft3i6/ff1fWTDxs5AXc/7+NTntGmlx7j/8QRH+b1+4SjatnGPF4gWPjZCCRUqEpJn0ycOydOrXXliDTr2l9UV3effxeKYNeV7mj/vUS5rR7+GZX70ms0e9b8vpevN/pFL9E70y8UAAAllPAMGY9UwpMckI/DL0JZk39n+2Vzrr1uOhYUnRw91b18tXT/UUfSutrkDh4lKifHU5dOiA7Ny0xrxJPvIW+IQL7pCGp14Wtc9p8dm7c6uMeOFKMb9kZNeWP2w5vZ+fKHnzFYhaZlDEuHfvNj9m5oq2W2crMyIY18ydJD+88S+v+Iv7jTI/ikp693gggGDkM3CsCej3ZNHSFeNqhn4XfvfStVboaYY8efOZGcXa9vt1z46N3ndulUbtpfPf/y9qmTp7+OndHb34k69+Wqq3PM27V8+vRpQumTrc+w5u0OlSIxjvDEmT1s2cUR/K/AmDRFed6LMno4Lx62d625UiWl/ddhfISb37pFU18RCAQCYIIBgzAY+sqUFg04o5Muq1G+1yyDYX3yP1OlyUFB2f+GEfWTb9O9uXoB8HP751h6yaPU7SEozx8tFlq0MfPsfWlxHB6KDrbK/OamZEMB7ct0f0h8aOTaulVuuzpP2Vj7tiuULAEkAw8kE4VgQ2Lv9dxrx+ixF7+eSiJ0bG1YwlP30lk/s/atM26Xq1WQFzQ8jqjQXjBsnUIc9KWoJRC5j4UV9Z9ssIuxXhrLs+jrrc1KXLiGB0nZr7wycy/YuXMywYF074zPTrOdtGnWEsW72xK5orBCCQDQQQjNkAlSKTj8DhQ4fk8OGD6Z4VS2QSQx8+W3Zv2yCNTr1CWl1wW0RT4xWMmjEePokgGF0ndX9PevfeuLxck5sAgjG5xzeRe7dy1lgZ985dUqhYqbgF4+T/PSpLfv5KSlWuI+fce3Spp+tnegSj5onnuzERBKO29aCZFc2nK1XYi644cBDIVgIIxmzFmzyFb1m9wCxtWWc7lL9QUalY9wTRzesbl8+WPxZOkz3bN0vpKnWlXK1m5lovpOMqJtbMDd0jV9A8EMvXPN4ojcOy7Y+lsn7xTLsMsnLDk6RivdYh+d2NLm3csOxX2bJqgV0SU6xMFVuftiXcrV8y02ys3242xJeL+eZx86p5tix/uqD2uvLLmTbrwzwtt2f7Rtmw9DfZvHKe7DMb/MsaIwJlaza1S4X8edXIgH//YJFSFaXMcQ38SWTdgp89Yy/+doYkMjfKcc3siWb2bI0Vt6Uq1pbSx9WTcjWahrxxdvm+eLS7Xa5UtcnJcur1L7lg77p06jd23Oq06yGV6rXxwjPKJ1ww6t7GPxb+Yj5Dv0uhoqWkVNV6Zh9K6zSXiKZ3hnH9khkhRhZcR9Sgj/4f7nQ52JbV873gKo06mGVeeUXLWTfvZyuydWly+drHh3DxMvg8OqO5dd0Su/dyx8ZV1oBQoWKlTV/N34oZl3gMCvmKw5sDBBCMOQA5m6vQVQ/6HayuQJHiUqF2S7uMfcWvY2STeWap8azi5Y6TKk06pGnIbMfGlcYQzGzznbDAiKk95jujulRu2NbkqxnRi3ULp4r+zecvVMw8I1tFxGvA5lXzzTPnDy+NLgVdO/8nm3adeZbOHfOx3UN48rXPBOYvV7OZeQaV9uKm9H9MFv80zJRXVHr2G2O/q7xI41EWuqWifM3mUr9TL3+UbDPfTfq9FO6853N4xJ/3fsF4wgW3m+f3dPu80xeQuhxWl5mmNeOX3hnGPTs22bELapI+w8KdjoOOh3PaJjWOo+O5YsZou8rEfhcboV2jZbcIbi6fu+7avNY+Y7etW2ae6dsN7yJSrGxVqVCnBUZ3HCSuSU0AwZjUw5t1ndP9Yyt/+8EWqHskzr77fzLq1RtERVy4q9P2fGnT817PyppaFx18f+eQZGpMRZe8jHv7Ttm2YUVIXMernpIarbodDTOicv64gfLLFy/Zh/7RiCO+8rWOl5OveUaKlKrgRbnZMa2n51NjAgWTCp/BD3Sx+yjqd+xp26wF7Ny8Rr587HyvLL+ny02vSeUGJ/mDIvzzf/w0alsrN2wnHY0RGWdMQN/mDrr3FK8M/TFwxm3veffqGXBnO6/fKsbPvqd/SPyhgwdEx2f17PEh4e5GGTTpdq00O/NvLshep372rCwYP8j6O17VzzA/PSQ+2k1G+fgFY6set9nlSOF1aFs7XvO0HNe0U3iUd59ewTj4/i7efkyvEONp1OVKaXX+rf4g65/17dvy24g3vPAz7/hQlNXGZbO8MOfR8ez891cihJ++CFg4/jOZ/uXL9i24S++/2r+juz6RUuZFCy5xCCAYE2csMtqS71+5zgoYza97s0+75b9mqec/Ap9Xzc+5ySxvvy6iKt1f98vnL8qiKV9ExGlA3bY95MRLHggRGj8PfEoWThpi03f4y5NS84QzQvJuNnuwR7zwFxumy0dbnHeLESHLZLjZSx6v032IurzUOTcrqfdqhEYFnH63xOPGv3+frJg5KiJp0HPGn8gJxmrHd5YdG1aKWisNdxrX7vJHolpATa9gXDRpqPw08Mnwauz9ZS8awR02y7hh2W/y/ctHx/XEnvfJlrWLvGeevyDdL3r6re8F7htVgfnTgCdDxKc/r/prtDzdPtfDw7mHQDIRQDAm02hmY1+WTx9p942FPzz1i7ZKw/ay3zxc1aCIM5Ti31+my0Ymf/KI17oVv472BJAGVqjTysyqNZRF5kGracNF0/QvXpG5P3xs82va6s272B8BOjO10FiFU6c/3Lvc+G/r1390dk9/NKg7qfeDZlN8D+v3/6Nvm8e/d48NOu/Bz80b52rWryJ46uDQt7vLZ3xv49ISjLNGvCW/ffumTasP3erNu0q+AoVk3aJp3kxikZLl5XxjOCdvvvx2lnbSxw/bt9c6Qxjedy3opwFP2Fk4fSgHPcinDXnBCOoBtk59U6osDuzdbWfJVs+eIPpmVmcIu/7jdZvG/eP/8aJhVRp3EBVy+oY4lssoH79g1PL1R40K9eLmLa3Owulbcnf0Rvf7B0V9859ewahW+XQ20zn3OY0mGPVt//Lp31trgHbJkxGx7lq9RVfT7vxGnI/zfny2u+xhqX3Sua54e3U/qPTG/Y3orKSy+8N8FnS2Qt3pt74j5Ws1t37+SQwCCMbEGIfMtGLxlGFmZcZPsnTaCFuMvojSv2H9W6zauKP9O1Sh5b5vzu/7pZktqnK0SvOS8pvnLveEkO531llKdSt//9H7Ltfvy0adr/DyaXkqCPXvW7/fdImom4nUv/1hT1xgn5H2+9jsu1ORo99N+h2lTl/GuRdTKkKCnIpM/c50TmfSvnjsXO/7qKQxXHbCxXeHiEqXNvy6cOLndgWLC9cVN3osR9BzxqXRq//7Te/LVmtsZ+l05la5ajnqVDR2uu456w//J72CUVd4zP9xoFeMHgXlZhCDBKPOCM767h1ZY/a7q999BrQAnZEsWrqSXR2lz111NU84Szr8JXRPu7JQ69zOab4yVeub2zyyfcNyWTXrx8DfLC49VwgkEwEEYzKNZg70ZaCxoqYPXnUqCnWDvVtWpzOJI//vb/Yhqw/Lnv1G22Uy4c364rHzvC/wLuahWaF2C5tEl858++JV9ov9EnPsgjpdMjP86Uus/6RL+kjd9hdYv/tn9ZwJMvbNI/vvuv3zTSs+XZw7hkGXHZ77wBFh6eL0OurVv5sf77/YPJo3lnOzfLEEoy6BGvpId/sjpF77C+XEXveHvPVc9st35kHbx1YT/kNDLcfN+OrfgYJRM7h9KEEPcre09Pgzb5BmZ10f0g2d6VLxU9oscw0SgvoQHvXqjd4PJ82sorxVj1vtksmQwmLcxMMnXDCGi8KtaxbJN89fYdsSbZmsNiG9gjG82W7cowlGl37E81d6P3xUyOubfTczrEuSvjafS12CFW7lT5cQj/7PzbaYhqdcZkW4Lmn1O8cLweinkhh+BGNijEOmW2FEX/87jq4GaXjq5XZFgftb1O+br5+91Fbjf8GpASqkfh7Uz4q+s+78SEpbkXC0Re4lnT7nLjbPuQJmOahz+oJu2BMX2pUrKlDPvf8zyVugoHmB+VcrBvWFYXfzPPLncXndbGF69jBqXn32fPvSNfa56srSF1Qtz/2n1NSVI2Gzby5N+HX2yPdl5vDX0iUYI0Sh4T7pk4c8sX7OfQMDnz3pFYzhbXW/FzQ8SDC69P7jN3S2+Yzb3zv6MtK0dZx5aexWT4WX454Bmk+/q3WfqN/NHvWBzPzq1ajPbX9a/BDI7QQQjLl9BHO4/UMe7GbfZIbP6Llm6F6Gkf++wd6ecfv7gaLDCcbwmRndE/npXR1s3ste+tle3ZlN0Tb0a6LP+55pZ9FadP+HWXp5jc2n//itx+myQv+eCr940f17QXsgvIKMx/3AjyUYf//+PWN2/D9W8F70xPeBYtktldW9FBc+/q1XRWYE4/AnL7LLeo9r0kk6/fU5+yPHKzgOj4oePcMrfPZYx7jDlY9JoeJl0iwlHj5+5lZQm+Vc4c6Nt74Ndi8NwtPklGBU0afiT/cGXfjoNxHjqXuNpn/5it2/4h9Lt3xbZwHONTPX7oWKvx+OF4LRTyUx/AjGxBiHrGiF+zvTfe6n3fJGRJG6TFVXFIRbTHYvG6MZBNN9zvqiTp0KyjLVGoWU7V8OqatMVLzpPsLwWceQTOYmo4JRy9EXufN++J/M+vYt76Wuhuv3kC7z9z//NDzIZUQwXvDo11Kk5NHtIFquHpnxWZ/TbBXhL0ddvTklGOeONt/Tw16x1Yb/DtBAnQ3W2WR1F5jveRX06nQpqgp/dR2vNttkzOqdcIdgDCfCfTITQDAm8+hmQ9+cZc2g/Rmuuv63n2i9EXsR/0zgBGPQUQ5qKlsfqm4mcfRrN9llJ/qjvVLdYGM4aghHl/uEm/jWvX2D7zvVPjz1y16/9J377Zs3zHKVt49Yo3vcLDdN4w2s++ERSzBO+rivfauqexw1XZBTAzc/vHmrjbr0hcmeuMuMYHQPeS1UhVaNVmdIpQZtpHL9k0L2dQa1xx+mwnHumE/MHo+B3g8OfXiq8NflO7FcPHz8gvGix78LFKK6xEjHXF2vp8dGiDQNzynBqOOk46UzE7ovKNy5mUT9vOpYOuc+30Ezvi6N44VgdEQS54pgTJyxyGxL3IqY8H1/rtwZX/6fzBnzUcQqE/f3qUKvTBVdghjpVhtDbroE9dQbXrbLXMNTuFUh/vBT/vZizP3ZmRGMrh5dorpo8hf2UHv9Tlen31G6ZSOtw+3dsyRoJYsrX69uSWrtE881+xQf9kd5fjc757cP4EUaT04JxnljB8gvQ1+IakVWbRkMuLOtbZr/Jbd/y0r4zKPrB4LRkeCaCgQQjKkwylnYRycYO/31eanW7NTAkgcZkaYGA07ocbs07HzkzZ0/oftBHSQY/enU7+oLDw+6DxeFmmbmsFdl9ugPbHLvkHazDGVI39OtyGxx7i3S5LSrg4oLCXM/IGIJRmdooXab7tLuikdC8rsb/54I/77JzAhGtTQ717y9njHs3yFLS7VOfbvcxBh0CNrD6doUftWxmzr4WXtAs8ZFezvvzxcPH79gjHYOo+4nGf5UL1t0d7OUqWTAfsqcFozNzvibWXr9d393rV/3lH7z7GXW72bE9ca9MOlgznisafY+BTnHC8EYRIcwCGQNAScYu/3rbW/rg79kt0pA99CrETZ1uqfw84fO9CeL6W/bu6/UaRdsJM2tUtACapoXeR2uejJmWVkhGL0KzHNh3tj+1gCbhqlo7P3cRHMNXR7vpTee9ArG8Je0/rLGvnW7NcSme+M733Bkhs8fn9OCMcg+gGuP+5yc9o//elbanfEzfWmqM49BDsEYRIWwZCWAYEzWkc2mfjkBF1UwmoeU2zcSbRlHegTjsMd7WPPX+ma0foejm8+DuleyUq0Ii5O6t+Pzh478aHdLVt3MkJah+0/cvrSgMl2Y+4EfSzDqUlxdkhu+vMmVoVe/yPAvf3GCUY0HnHnnh/4s1u/eVsd686tvu3VP5srfxhoDRVOsCXBXUK0250j7K44c7mzDzDip8YZDB/YHLrXRNH6Lf5c8M07yFSzsiou4xsMnHsGo7dc9hup0macu3Q13iSIYt65dLF8/09s2zy8YHYv2VzwmtdqcHd58e+/SIBgD8RAIgSwh4IRANMFoBdXQF63RNScY/Va9m5x2jTHo0ihmWyqY4zMKl4j8ntIljV/16+m9xFPBdu4Dgz3jakGFZkQw6hFSu7est6tK/MdtuPL9M2Vq+Mx/RJJL465ZKRi/feEq2bRyjvkODHv2/FlZogtGt5Q1fPuIY6VXBKOfBv5kJ4BgTPYRzuL+pSUY/SbCw42auKakRzC6ZYGxRJgrN9rV7SmzX/yPjZAfzcHIq4xYSk+Z7gd+LMH406dPmqVAQ+2Geu17kHMP7/BljM5keDQDPe5tZyzBGF7fjk2rrehba6zEqfOL4327zR6TB47sMfGLHX8ZaulOlxWpC9r74U8bD594BKMeSTLt8+dDDB/561G/Jxi7XSfNux9ZvhqeJtZ9vEZv3Gcv2gxjNMHoPt/R8vmPUkEwxhop4iCQOQIZEYxao8unK0V0xUh6na7SGP50L3vOrRrM2bNto91nr0Zwut8/WPIXLBJYpNuyEP58CEz8Z6D7vvHPjvnTq+EztQ2gLxSbn3OzMVZ3rT86xJ9lgtG8kBx0f+cjK40uuMMs6z+yEsNfmScYo7wk9acN8sdr9MYtSU3vDOPyGSNlwgf3/zkzO8Few9sxfejLZnXPJxi9CQfDfVISQDAm5bBmX6fSEoxOnOleul5mVipo+Yt7wMWzJNXtNdQHaI+Hh0Vsrnc91U32BYuWdLchVz1+4ztjQU5dh788YfZfPGj9epZkuPU7GxHwTzyCSPeN/PTpEza3vq3WZU7hzomVkhVrmR8OR0XlKnNMgxrE0X7qck2/oZRdW9bJl2amVR/4usT0vL5fhBS7e+t6KVyyXEgel8BvfMAvduMRjH6rrtH2E7p64uGTlmDUPadfGCuzamVQLbVGs1w74YMHRI85qdvuAnNkyhGrs64d8VzdGKRlJTWjgtGVrz8Oezw8PKJJfmNMCMYIPARAIMsIOOGXnhlGrfy7l6+1Fk31BZ5+T/u/j/2NC3zuGLE02hjT0ZUsal3zvAeHWiumalhFv8PVONkp17/oL8bz79xkzgB+/MjyVv2e1+/7tJx7nkYTjP4ltmntocwqwehegGrb/fsC/X3Ro0+mDHjMGgTqYY6ZSq/LbsHoLz/IZoMK8aEPnW2fV7HEaHr7RXoIJCoBBGOijkyCtssJRjXX3fi0q7xW6sZxNcc9Z/SR5ZRBR2C4xO4BF49g1OMLhpolpWoBTs+X6mCsvZUxR0Q4p5v61TKcGi6I9mDStLovTvfHqSDTh7YKRRWM8bp4BJGWq3tf1ACPmkU//dZ3RX9wWGd+RPz+/bvy6zf/tbfhhhL8M7P+cyP1B8mo1270zu0LN7eulmW/fOx8a0DmxEvul/I1jw/pkl/0XfiYWeL559Ipv2BsfvaNUrfDhUeXf/65XHX8e/daVrEs1LrK4uHjF4zhYl3HcdJHfb1ztc6+p7817e7K91/dvlSdMdYfc/qiQN/o//rNG/ag7HI1mvqTR/idoMsuwehnXv/kXtLmoruPGFUyXP9YPEN++O8tnlEhBGPE8BAAgSwjkFHB6Lf2fVzTU+SkS/sc/X40rVPLmr+NeNMaxQq3iO0/xsFvQXXp1BHmuIm+tm/hz09/h12b9bgpNdajBt/U6TNWn6+6D77tZQ95WdzzVK2x6l5r/9EPm1fNl4nv32etaOuzT58B+gyJ5tIrGJVNx2uesitCXJn6QmyKeXGaljj2Gzg7665PjjzXzXfkwkmf26LqdbjIFRl49Qu6aEZpNGNGZxjVNoCeb6kWccOP1dAzIGeY4zQWT/nStg3BGDhEBCYZAQRjkg1odnfHCUatR3+wl6hY0/z43WvOS1xqf7RrePgmd/0x//nDR/dy6b1z7mGo90VL6XKdo7NuLo1/RkbDtN6iZSubZT4b7Je5S9fa/DBv0OnImY0uzF2XTv3Gng3l7oPeGLo4fUDociK/c23WmdM8+fJ7UbovUM+hck4PhdfN/vqwVKciN3/RErJz4yorJDUs4twqDTTOWZVTvy491bO7Nq+cZ8vSPO6sKN2Er+beG3W90h48rILSOWVTpnojyV+gsGw1P2q2bVhho+q27WF+9ByZWdUA/8yjy6tjUbBIcXO24Eav/fojQ8ekhOmHcxnl4xeMWpb+cClixnzfrq0h4xjNDLur379UVsNU/OvyUGWuvLv3GeKS2qu+LNi19Q8vzI2l9i1fgUJeuM5Y+q2hZnSGUX9o6AHduiRYnXJVftvNWLi6XaUIRkeCKwSynoATX+mdYdSWTOn/mCz+6ejMl1pM1Rdu2/9YLvv37LCN1e+QM257zzuywm050Ej/iz+b2Pzjti3ofbQZQf/zTp83Feq0FF3GvnH5bO972b/iw53D6+rQNhUxK0727d4R8n2jq2tqnhBqzOfnQU8by95HDboc3L/Xq8P/bNbvL7fHU+txVlLVr/WVMDOhec13qYpZd06z8jrLHGcV7VgmTTfkwdO9NuqqG31x6NiG72HHaQV2AABAAElEQVTXF3E/DTxqNOiwWZHi6vK3Vdt0vpmddfs5MywYTTkrZoyS8R/cp0Vap20U85xxz9U/g1mS6kBwTWoCCMakHt6s75xfMIaXrgKglTl+IHzPh/5IVsupaTl9OEY7e2/zyrky0SxFDP+i1jLVII6+WdU3stGcionBD3S1Dyd9uPQ0xm70QRfkdm42y4LMrF08Lsiwjz40ddmkChu/03pbnX+rRHtzqrOM44zY9PdR89Q+sbu0vuguGXBHW6+4Rp2vNAfC32rvtZ7fvnlTVs+Z4D3sXUJl2uzM66Vx16tMf0Ot4+lSXZ2dVSHqHrwun15VpOp4hi+LyigfnQ2dOew1+wNFl536nbazfK3m0qbXvUcPVfYnCPPb2dqvXw8J1Yd528v62nL8EYPv7+L9CPGHh/vDRbU7MzPaXsRoexi1XP3M/zzoKe/waleX9rPD1f3Ezd4iGB0ZrhDIegLOYndagjHaDJG+aJz62bMR3x/6d6wWkJud+TcpVqaKbbh/60CdtudL20uPzCb6e6XL7kc8f4V9waVlXGjO6y1gvuPD3YLxg2X6Fy9FfC+rxeo2F98TYtxN61VRtHTq13Z5ZHhZOuPYpue91tp1eNx4M/u4Yuao8OCIexV//mWj65fMED2SxC9iXSb7QrPzFfY4ovBnjkvjrrpnU7ex+J8/OpunLw3DLXv7l7m6/NGuFz85ytuiMn/cQJk25LmYoi7WiwU9p3Pihw94L3xdnXp8lq5m+X3kezHLdum5QiC3E0Aw5vYRzOH2O8F48rXPmlmTanbmJn/BomaWp15c1kYz21x9sGxds0gO7t9jZm6KmeU3tSVvvgKZLTZb8uuPAxUVOoOmM4bR3rT6K9d9ESo4dd+Jpi8VcKyEP73fr0uWtq1bYt7Srpe8+QsZoVfFzuCl9dDWMnQ2bLf54aGukJmlLF7uOMP16EyqjcjCf7Sfaghi784tdg9LPJZqw6vXvMpXrRoq32Kmv4nm9EXFNjOe+hkoVrqy7auekzbw3k62qWkZE8pof37/4sWMZiUfBLKcQNMed2R5mTlZoK7IUAvX+vesqyJK6laDNM7uzWz79AWbvkTU5Y86W6ZWwNN61umLuB1mNYtav1bhpc/o8Nm3zLYrPL++HNOZQV2tUaRkhYgXk+Hpw+/1+3DL2kW2DBXfZcyKkexmG96GeO71eaNs1emqFhX804Y8L/PHfRpzz308ZZMGArmBAIIxN4xSArXRCcaox2okUFtpCgQSkYDOBI998zbbtLSOK8lo+xGMGSVHvuwgkNsFY3YwoczcT8DZRmh46uUh2xlyf8/oAQQiCSAYI5kQEoMAgjEGHKIg8CcBNejwy+cv2mM/qjRoa2Z8C5rZiUPmfMzJdi+tGkbyHxae1eAQjFlNlPIyQwDBmBl65D2WBNRImhqTq9fxYm8Vi87k/vrVf2TRlCMWy7ve/B+7NeZYtpO6IZDdBBCM2U04ycpHMCbZgNKdbCHw9TO97XJZV7guX/Lv09FlYt3vGyR69EZ2OARjdlClzIwSQDBmlBz5jiUBNWL3wxv/8prg7B7o0mTn0rK27dJxhUBuJ4BgzO0jmMPtVwug28y+sbaXP2I20bfK4dqpDgK5g4Ca5Z9rDAqpwQS/ZVS1Ylv7pHOtEaJY5u0z28twwVi/6zWZLZL8EIibwILR74ekRTCG4OAmlxDQY70WThwiS8wZy35jdPoCsEy1hnL8WTdI5YbtcklvaCYEMkcAwZg5fuSGAAQgEJOAziweMIZ5rJn3bDaU4RqCYHQkuB4LAgjGY0GdOrObgG4lyJe/QLYbEsruflA+BDJCAMGYEWrkgQAEIJDABBCMCTw4KdA0BGMKDDJdhAAEUooAgjGlhpvOQgACqUAAwZgKo5y4fUQwJu7Y0DIIQAACGSGAYMwINfJAAAIQSGACCMYEHpwUaBqCMQUGmS5CAAIpRQDBmFLDTWchAIFUIIBgTIVRTtw+IhgTd2xoGQQgAIGMEEAwZoQaeSAAAQgkMAEEYwIPTgo0DcGYAoNMFyEAgZQigGBMqeGmsxCAQCoQQDCmwignbh8RjIk7NrQMAhCAQEYIIBgzQo08WUpgy5LZUrp2kywtk8IgkMoEEIypPPrHvu8IxmM/BrQgeQlsWTZXStdslLwdpGcJSQDBmJDDkhqNWvfrBFn0bX8pWq6ytLzuwdToNL2EQA4QQDDmAGSqiEoAwRgVDREQyDSBmR88Lbs3rpXa3XpJpeYdM10eBUAgHgIIxngokSZLCejbsSWjBsvqn0Z65ba+8XGp3LKTd48HAhDIOAEEY8bZkTPzBBCMmWdICRAIIvDHrMny86v3eVFVT+omtU/ryYyjRwRPdhFAMGYXWcqNILBn83ojFAfJktGD5fChQyHxZeo0lQ73vBYSxg0EIJAxAgjGjHEjV9YQQDBmDUdKgUA4gckv3iYb588ICc6TN6/U7trTCMdeUrhMhZA4biCQVQQQjFlFknKiElBxuGS0EYojB8ueLesD01Vrf5bU7HwBb8kC6RAIgfQRQDCmjxeps5YAgjFreVIaBJSA2ntYOmaIrPKtzvKTKVy6glmmaoRj116iIhIHgawkgGDMSpqUFUFg9c8jrVDUZahBrlyDVvYLjnX4QXQIg0DGCCAYM8aNXFlDAMGYNRwpBQJBBNT+g27r2ThvelC0ffGuwrHqid0C4wmEQEYIIBgzQo08aRLYOH+6/UJbN3NCYNpilapLHbN8osYp5wfGEwgBCGScAIIx4+zImXkCCMbMM6QECKRFYNmPX8pSs81nx7oVgUkrteho9zfqi3kcBDJLAMGYWYLkDyGwc+1yWWy+wJaPGxYS7m7yFy5qLXvpevsCRUu4YK4QgEAWEkAwZiFMiko3AQRjupGRAQIZIrB/13ZrG2LxyEFycO/uwDJqdDrPvqAvVrlGYDyBEIiHAIIxHkqkSZPA/l07zNr6wXZWUf1BrnrH7lLHmIEuXqVWUDRhEIBAFhFAMGYRSIrJEAEEY4awkQkCGSawY81SWTxyoKyY8HVgGQWKFrezjbW66Mv64oFpCIRALAIIxlh0iIuLgC6L0PX0O9ctD0xfsVk7O6tYvlHrwHgCIQCBrCWAYMxanpSWPgIIxvTxIjUEsorAhjlTjd2IQfLH71MCiyxWqYYVjjXZDhTIh8DoBBCM0dkQkwYBu/HaWD7V/YpBrmS1ukYoXiLV2p0ZFE0YBCCQTQRSXTAumvKlObrnYBjdPFKoWEkpUqK8lKhYw/hLh8WH3u7dsUVW/DbGCyxRvrpUqt9GdmxaLWvnHf0xVrJCLalYL/oeoY0rZsvmlfO8cirUbiGlKtfx7pPRg2BMxlGlT7mJwIpJI4xwHCjbVy0ObDYGBwOxEBiDAIIxBhyiggmoxVOdUVwdxbRzweKlpc7pl9gzgfLmLxBcCKEQgEC2EUh1wfjZQ2m/pCpTpb7U73iRVG/eNXAc1i/9TX589y4vrkKdlnLKNc/I1rWLZeR/bvLCVXiee++n3n24R9NqHudO/ssTRnie6G6T8opgTMphpVO5jMChA/vNMtVP7Yzjvh1bA1tf9aRudsaxdM1GgfEEQsARQDA6ElzTJLBn83q7uXrJ6MHm7f2hwPS1Ol9oZxWLlq8SGE8gBCCQ/QRSTTDu271dJI9IwcJHDGnFIxjdKKgQbHfpg15eFx5NMGr88Ocukz3bN7mkcvotb0rJijW9e+fZu3OLfPVMb3cr+cwLtB4Pfim7t62XIiUrJO1ZaQhGb8jxQOCYE9i1YbUs/n6gLBs7NLAtemajGiKsbSzXFy5TITANgRBAMPIZSJOAisMlowfZ8xT3bFkfmL5yq1OMQZtLpEzdZoHxBEIAAjlHIFUE495d22Te2AGycMpQadurjxzXtKOFHC4Y7fLTw4dE0we5stUaSefrX5I8eY4edh1LMM767l2ZN/7orGKjUy+XpqddHVH0oinDZMbwV73wGmY288Se98qUgf1k/ZKZ0rTbtVKr1RlJJxwRjN6Q44FAwhDYtPA3u0x17YxxgW0qXLqCeeFvhGPXXkn3nRTYYQLTRQDBmC5cqZd49c8jrVDUZahBrnStxnZGsWqbLkHRhEEAAseAQLILRhV+c8f2l0VTvvD2Krbr/VCgYMyTN59c9MgRy4H79+2WzctnyxyTd8Oy30JGplm366ThKUdnA2MJxm3rl8v3/77ey1+8bFU587b3vHvnGfv2HbJh+e/u1i5p1RlNFYwrZ4214YWKlpSmp/81qYQjgtEbcjwQSDgCa6aOMcefDZQtS+YEtk2Xp6pwrHpit8B4AlOTAIIxNcc9zV5vXvSbLPquv6ybOTHNtCSAAASOHYHu//0hovJkFYxBQtF13r830D/D6BeMLu2hA/tkzFu3y5Y1C12QqHA7996BZmmrWdtqXCzBqPFfv3CF7N66Qb3WnXPnx1Kk1NHlXCpOv3ziAhd9ZDlq3y/tLOa0oS/K0l++9eLUk0zCMSOCcfiNnUN4cAMBCBxbApVadLTLVMs1aHlsG0LtCUEAwZgQw5A4jdCN0YtG/M9ulE6cVtESCEAgGoFUEIyxhGLlBm3NctCrpHSVeh6itASjJty7a6t89fQlXh71dL7+ZSlXvbENS0sw/j7qAzPL+T8vf/MzrzdGdHp698tnjpKfP3vWu691wpnS+oI77P1hszx25W8/yuzRH1irq14i47HC0cx2anrdW5QbHYIxN44abYZAMIGap14gDc67RtSgIS51CSAYU3fsA3uOYAzEQiAEEpZAMgvGWEJR9/416nKFFCtdOWJs4hGMmunLJy+S/Xt3evnbXHiX1Gx1ur1PSzDu2LhKvn3lOi+vCtbTbnrNux//YR9Zt3Cqd3/Kdc9LhVrHe/fOs37xDJk18j3ZtDJ02X9uFo4IRje6XCGQ+wkgGHP/GGZFDxCMWUExCctgSWoSDipdSkoCySoYF//8tTUY4z9PUZeX1mt/oTQ8uVfMcxTjFYxj37krZC9jky5XSWMjQtWlJRg1zYgXr5adW9aq17pz7xtkZwh1yetQsxzVtT1/wSLSo8/n3nJXl95/3bJmkcwe9aGsmT/ZH2zLO+Xa56RkpVoh4Yl8g2BM5NGhbRCIjwBLUuPjlCqpEIypMtIZ7CdGbzIIjmwQOIYEkmEPo98wjEPZ/tKHpWqTDu426jVewTip/6Oyes7RfdrpFYxzxnwis8d86LXjhPNvk9ptzpbVsyfKpAGPeuF12nSXVuf/y7uP5jm4f69ZpvqRzJ8wKCSJ36BPSESC3mREMCZoV2gWBJKOAEZvkm5Ic6RDCMYcwZy7K+FYjdw9frQ+9Qgkg2AMmmHUkdQjMhp0uFhqnXh2xNmJbqTjFYyj3/inbF4132WTVuf9S+qc2N3exzPDqLOLOsvoXIVazeWU654zVlCfNFZQf3TBIXsjvUCfZ/uGFbJw4hBZYgzhuFlJF124RFk5+ap+UqpSbReU8FcEY8IPEQ1MQQIcq5GCg56FXUYwZiHMZC9qz+b1smSUOY9x9GDzo+ZQYHdrdb7QHrNRtHyVwHgCIQCB7CeQDIJRKR0wlkaXTP1a5v04IPAMxWrNTrGGZsoe1zAEajyCUb/Dvux3ka3DZe545eNSucFJ9jYewagJdR+j7md07sKHv5JhT/Xyyi1QqJic32eIi/auKgxX/T5e5o8fJJvXLPDCnafMcQ2kcecrpIox6uMst7q4RL8iGBN9hGhfKhHYtWG1LP5+oCwbOzSw22pcq3ZXc/7iab2kcJmjlp4DExOYsgQQjCk79BnvuJ7JuGTUYFn908jAQtSSVp3TL7FfPnnzFwhMQyAEIJB9BJJFMHqEDh82S0cnmfMTPwk5CsPF6zmI7S9/REpWrGmD4hGMiycPk+lfv+qKsNfzzT7DAoWKWn+8gnHej58aozXveuW07H6L3XvpAuq27SEtu9/sbu112fTvTZrXPFHpj6zW7FRpdOpluWpG0d9+9SMYw4lwD4GcJ3DowH5r8X7JyEGiBg2DXNWTupnfaj1Fz17EQSAWAQRjLDrExSSw7tcJsmTkYNk4f3pgupLV6trZxmrtzgyMJxACEMgeAkknGH2Y9OzEuWP7y6rZ432hIv59fmkJxnULpsqk/o/IQfODyrmqjTtI+8sedrdxGb3RxLu3rjdnMl7p5VPrpmrd1bmuN74qZarWd7f2Gr4/M595sVav/UVSv8NFMY35hBSSwDcIxgQeHJqWEgRWTBphfp8NlO2rFgf2t1yDVub3WU+p1LxjYDyBEAgngGAMJ8J9ugks+/FLO+O4c93ywLwVm7UzX0y9pHyj1oHxBEIAAllLIJkFoyO1d8dmmTdhsCye8oUVftEEo6bveMVj5viM3bJ9w3JjFXWWrF8y0xVjr2p99fRb3pQS5at54fHOMGqG71+9Qbb9sczL6zwqHtVyarhzgrFIqYrS+NTLzVEe3SRvvuRZjYFgDB9x7iGQMwQ2zJlqhOIg+eP3KYEVFqtUw84o1jzl/MB4AiEQjQCCMRoZwtNFYP+uHWZv4yBZOvozUX+Qq96xu9QxwrF4lVpB0YRBAAJZRCAVBKNDpbOES6eNkPK1mnnLOP0zjC5drKsuZ63aqH1IkvQIxgXjB8uv370Vkl9v6re/WJqffUNE+IpfR5vjMspIxXqtIuKSIQDBmAyjSB9yE4Eda5aa5acDZcWErwObXaBocanV9WKzV7GXqB8HgfQSQDCmlxjpYxLYuXa5LDaGcZaPGxaYLn/hona2UTdYFyhaIjANgRCAQOYIpJJgDCIVr2DUGb4Olz8spavUiygmPYJxz/aNMvy5yyPK6Hbz61Kqcp2I8GQPQDAm+wjTv0QhsH/XdmuMcLGZVTxoVlEEuRqdzpM6xqBNsco1gqIJg0BcBBCMcWEiUXoJ6L5GNYyzbuaEwKzFKlW3X2A1WBYRyIdACGSGAIIxeN+0WiwtVKyUVKjdQqo372JmJY83BkjzBqLesHyWjH37Ti+uYt3W0unqft59uGfkf26SrWuP7hfS4zC6390/PFlK3CMYU2KY6eQxJqDbgZaaF/Q71q0IbEmlFh3t8lPdr4iDQGYJIBgzS5D8MQms/nmkNYyjllWDHBuvg6gQBoHMEUh1wZg5euTOLAEEY2YJkh8C0QlYg4PmhfzGecEGB9XiqRq0qXpit+iFEAOBdBJAMKYTGMnTT0DPO9P9jWpRdc+W9YEFVGt/ltTsfAGmnQPpEAiB9BFAMKaPF6mzlgCCMWt5UhoElMCWJbNl6ZghsirKkWaFS1ewQlH3KerZijgIZCUBBGNW0qSsmAT2bF5v19ovGT1YVET6XZk6TaXDPa/5g/BDAAIZJIBgzCA4smUJAQRjlmCkEAhEEJj84m3mKLMZIeEqDtUuRG2zT7FwmQohcdxAIKsIIBiziiTlxE1Al6fq/sbVvrdkrW98XCq37BR3GSSEAASiE0AwRmdDTPYTQDBmP2NqSE0Cf8yaLD+/ep/X+aondbP7FHUZKg4C2UkAwZiddCk7JgFdh7/o2/5StFxlaXndgzHTEgkBCMRPAMEYPytSZj0BBGPWM6VECDgCMz94WnZvXGstzldq3tEFc4VAthJAMGYrXgqPh4Cuyy9du0k8SUkDAQjEQQDBGAckkmQbAQRjtqGlYAiIrtJiRpEPQk4TQDDmNHHqgwAEIJDNBBCM2QyY4mMSQDDGxEMkBCAAgVxHAMGY64aMBkMAAhCITQDBGJsPsdlLAMGYvXwpHQIQgEBOE0Aw5jRx6oMABCCQzQQQjNkMmOJjEkAwxsRDJAQgAIFcRwDBmOuGjAZDAAIQiE0AwRibD7HZSwDBmL18KR0CEIBAThNAMOY0ceqDAAQgkM0EEIzZDJjiYxJAMMbEQyQEIACBXEcAwZjrhowGQwACEIhNAMEYmw+x2UsAwZi9fCkdAhCAQE4TQDDmNHHqgwAEIJDNBBCM2QyY4mMSQDDGxEMkBCAAgVxHAMGY64aMBkMAAhCITQDBGJsPsdlLAMGYvXwpHQIQgEBOE0Aw5jRx6oMABCCQzQQQjNkMmOJjEkAwxsRDJAQgAIFcRwDBmOuGjAZDAAIQiE0AwRibD7HZSwDBmL18KR0CEIBAThNAMOY0ceqDAAQgkM0EwgVjNldH8RCISaBpjztixhMJAQhAAAKJTQDBmNjjQ+sgAAEIpJsAgjHdyMiQjQQQjNkIl6IhAAEI5AABBGMOQKYKCEAAAjlJAMGYk7SpKy0CCMa0CBEPAQhAILEJIBgTe3xoHQQgAIF0E0AwphsZGbKRAIIxG+FSNAQgAIEcIIBgzAHIVAEBCEAAAhCAAAQgAAEIQCA3EkAw5sZRo80QgAAEIAABCEAAAhCAAARygACCMQcgUwUEIAABCEAAAhCAAAQgAIHcSADBmBtHjTZDAAIQgAAEIAABCEAAAhDIAQIIxhyATBUQgAAEIAABCEAAAhCAAARyIwEEY24cNdoMAQhAAAIQgAAEIAABCEAgBwggGHMAMlVAAAIQgAAEIAABCEAAAhDIjQQQjLlx1GgzBCAAAQhAAAIQgAAEIACBHCCAYMwByFQBAQhAAAIQgAAEIAABCEAgNxJAMObGUaPNEIAABCAAAQhAAAIQgAAEcoAAgjEHIFMFBCAAAQhAAAIQgAAEIACB3EgAwZgbR402QwACEIAABCAAAQhAAAIQyAECCMYcgEwVEIAABDJDYM/m9bLq55FS94zLMlMMeSGQqwjM++ItqXHyeVKkXOVc1W4aCwEIQCDZCCAYk21E6Q8EIJBUBBZ+/ZHM+/Id26fmf7lbqnfsnlT9ozMQCCKw7IehMmvAyzaqwfnXSf1zrgpKRhgEIAABCOQAAQRjDkCmCghAAALpJbBl6RyZ8V4/2bluhZe1QJHi0qXfANErDgLJSmDX+tUy9rFr5ND+fV4XS1arKy2ueUD0ioMABCAAgZwlgGDMWd7UBgEIQCAmgf27tsucwa/LiolfB6ard/aV0rDH3wLjCIRAMhCY98XbsvCbjwO7Uu/sv5jP/18D4wiEAAQgAIHsIYBgzB6ulAoBCEAg3QRWTflOZg96Tfbt2BqYl6V5gVgITEICi0d+al+cBHWteJVa0vLaB6RUjQZB0YRBAAIQgEAWE0AwZjFQioMABCCQXgK6BG/mh8/IpgUzA7OWa3iCWY53nxQpUzEwnkAIJCOB7WuWykyzLHvr8vkR3cuTN6/U6dZbGpx3reQtUDAingAIQAACEMg6AgjGrGNJSRCAAATSReDQgf2ycMQnssj8r/5wV6hUOWna+59S5YTO4VHcQyAlCBw+fEgWf/+pzB/2XsieRtf5YhWOk5bXPSilazd2QVwhAAEIQCCLCSAYsxgoxUEAAhCIh4DOJuqsos4uhrs8efJKzVN7SMMLb5D8hYqER3MPgZQjsHP9Kpnx7hOyZcmciL7r30utLheZv5frJV+BQhHxBEAAAhCAQOYIIBgzx4/cEIAABNJFYN/ObTL703/Lqp++D8xX8ri60vzqe9mfFUiHwFQmoLONS8cMkXlD35aD+/ZEoNDzGluZ2cYydZtFxBEAAQhAAAIZJ4BgzDg7ckIAAhCIn8Dhw7J8/HCZ+/kbopZQw53OJKpRm1pdLxadMcFBAALBBHZvXCszP3haNs6fEZkgTx6p2el8aXzxTZKvUOHIeEIgAAEIQCDdBBCM6UZGBghAAALpI6BnKeqZinq2YpCr3OJkaXr5bVK4VPmgaMIgAIEAAst+/ELmDnlDDuzZFRGrBqJ0pr58o9YRcQRAAAIQgED6CCAY08eL1BCAAATiJqAHj88f9r4sHjVQDh88EJFPBaL+qK3Q5MSIOAIgAIG0Ceze/If8+sEzsmHutMDE1TucI00uuUXyFy4aGE8gBCAAAQikTQDBmDYjUkAAAhBIN4GN836Rme8/LfqDNtzlyZtPanftaZagXiv5CrJsLpwP9xBIL4EVE7+2Z5ge2L0zIqt9MXPV3VKhaduIOAIgAAEIQCBtAgjGtBmRAgIQgEDcBPZu2yS/D/g/WfPLD4F59LBxPXRcDx/HQQACWUdgz9YN8uuHz8n636cEFnrcSafbY2oKFCsZGE8gBCAAAQgEE0AwBnMhFAIQgED6CBijNkvHDrUWHA/siZzlyF+kmDQyx2SoQQ5j1SZ9ZZMaAhCIm8CqKd/L7wP/LfuNReJwV7B4aWluZhsrNe8YHsU9BCAAAQhEIYBgjAKGYAhAAALxEti2apHdR7V1+fzALFXbdJWml/5L9McqDgIQyH4C+3ZskV8/ek7WzZwQWFmVEzpLM2Noir/JQDwEQgACEAghgGAMwcENBCAAgfgJ6Flweibc0h+GyOFDhyIy6rlwLa66R8o1PCEijgAIQCD7CejS8Fn9X5F92zdHVFaweCmzRPVfUvXE0yLiCIAABCAAgaMEEIxHWeCDAAQgEDeBtTPGye+f/p/s2bw+Ik+efPml7hmXSv3uV0ve/AUi4gmAAARyjoAuTZ014BVZ/fOowEortegox19xlxQqWSYwnkAIQAACqU4AwZjqnwD6DwEIpIuANaxhzPivn/1zYL4ydZpJC3NURrFK1QPjCYQABI4NATWGM/ODp2XvtsjZxgJFS0iTXv+Qau3POjaNo1YIQAACCUwAwZjAg0PTIACBxCGgS06XjBok8796Tw7u3RPRsILG8mKji28UPfcNBwEIJCaB/bt3yOyBr8rKSSMCG1i+UWtpce39okdx4CAAAQhA4AgBBCOfBAhAAAJpEFBjNjPe6yc71iwNTFmt3VnSuNfNoqIxmdyhg/tFf2A7l79gkUyfG3lg327ZunaxlKveJE1rsft2b5PDBw+66qVg0ZKiZ1hmyBkrtnt3bjmaNU9eKVSslHd/+NBB2bdrmxnDUsaIbV4vPMTzZxnaBm1LdrrIvpt25Y3SruxsSJKWvWHuNJn53lOiKwbCXf7CxaSxeflTo9N54VHcQwACEEhJAgjGlBx2Og0BCMRDQI/HmDvkDVk+7is5fDjSqE3RClXtmYq6DDUZ3dTPnpUF4wd5XWt6+l+l+Tk3evfp9agIGvLgGcZA0EEpW6OJnHn7B1GLOHhgnwy8O/Tog27/fFMq1GkVNU+siLXzJsuY//7TS5Ivf0G55LmjFjRnj3xfZg5/TZqcdo20OPcfXjq/Z82cifLDm7daoXnREyP9UVnq19nsAXeGHjLf/b6BUrJS7SytJ9ULO7Bnl8wZ/Losn/CVmD/wCBzlGrQ0y8vvEzVehYMABCCQygQQjKk8+vQdAhCISkANZMwe9JrZ77QpIo0asql39pVS98zLk9qojYqoBRM/k91b11uRl1nBuGbuJPnhjX95PC/uN0oKFgmeqdPZzWFPXmTT7tq81l4zIxg3LP1NJnz4gBw0M5x7d26VcME469u35bcRb9h6zrn3UylVuY7XTudZOWusjHvHGEcxs5DZKhjNy4kvH+9hq3V9RzC6Ucj668b5M+zext0bj3zO/DXkK1RYGl1wg9TqfGGaM+L+fPghAAEIJBMBBGMyjSZ9gQAEMk1AfzTO/PBZ2Tjvl8CyytZvIS2vuT+lZh1+fOsOWTV7nGRWMOoxJF8/01t2bFottVqfJe2vfDyQcXigzjTqjGNmBKMrc92Cn2X0f26OKRhLVqwl59z3acTS1JwSjK6teu1/+4n2FsHop5L1/oP799rVBEt/+DxwtrFMXWPMyvzdF6twXNZXTokQgAAEEpwAgjHBB4jmQQACOUNAl0kuGvE/WfDNR3Jo/76ISguWKCNNet4sx7U9PSIu2QOySjA6TrqPUfdDxutyWjBqu1qdd6s06nplSBMRjCE4kvJm86JZMvP9p2Tn+lUR/ctXoJA06HGd1D6tV8TLhIjEBEAAAhBIIgIIxiQaTLoCAQhkjMDmxeZHojkqY+e6FZEF5MkjNTqeK4173ihqDCMZnAo2XaK5ZfUC2f7HctEfwoVLlJVytZpJxbonRPwYDheMm1fNk43LZsuWNQskX76CUqpKXTNjeKZZnlswAs/6JTNCDOe4BCUq1BD9Px6XUcG4Z/sm08aFsnX1Qtm/d5c1VKN9n/nVqzFnGLVNatjmvD6fS7GyVbwmpikYzT64DctmyZZV861hnyKlKki5mk2lrDHwUyCNz84B0z5t65bVi2TPtg2Sv1ARKV21nrfvMtYM46YVc2Tzynkm/yIzlgUt1+rNu6RpmOePhdPs52DXlnUmX2Epbcax9HENpIz5P5WdvjCa9+U71iqy7icNd6VrNzarDB7g6JxwMNxDAAJJSwDBmLRDS8cgAIG0CKgF0DkDX5MVk74JTFq8Si17pmLpWo0D43NjoIqeyZ88Ivv3HLV+6u9H/kJF5eRrnpYqjdp7wU4w1j+5l2xbt1R0WWe403193f71tuhyTr8bfH+XwLoadblSWp1/qz9pVH96BeN+Y6zol6EvyuIpX0YtM9oexsoN28n6Rb/YJbDlajaTM257zysjlmDUvYY/mv2NKqbDnYrPjlc/JSriwp0aU5o/doBMH/Z/dp9oeLy7DxKMOzaulIkf9TXifZZL5l21zjYX3S31Ol7shTmP7kn97pXrxO2PdOHuWrR0RWl98T1SrdmpLiglr2odefo7jwe+SNJ9zPXPvVrqnnFZxi33piRVOg0BCORGAgjG3DhqtBkCEMg0AT2Hbc5nr8u+HVsjyspXsLD9MVinW++kOspg2bQRMvHjvra/KiiOa9rJE3g7Nq6SVUZM6l7B1hfeJQ1O6e1xcYLRBaigqNvuQjtrtm7BVFn1+482qkrjDtL5hldcMnudNuR50Zk+59TwjYrV7BKMaizny8fOl91mlk6dzpiWr3m8PQ5k+4YVsuyXb60wiyYYNb0KpV++eMnmP+mSPlK3/QXWH00wqkD9vO8Zlp1yrXPSeWa2rp5ofcunfy97dhzpf9vefaVOu/NtWe6fCR888P/tnQd8FcUWxk8aCSSE3juhF6mKCEiXptKbBRWf7WEXURAFRbF3sT1FRZoICgIiIl2aoBDpPfQmEEIgJCTw5pu4m7337k1yw4UkyzfvZ+7uzO7szn94d+43c+Yc2btunj6NLFpOSiqGeSOLakdDe9bO1Q56UOguGFHn9BGdzbZUbdZbO+pJOndadiz/QU4f26vr7Dh4gseK4exXlfA/GqOFDu4rXLa6nFUiEmJ3//pFus56XQZJrXZ36zqu5j8Xks/L9tnfyM65k2wFfWTZKKl/7/OSX00uMZEACZCAUwlQMDq1Z9kuEiABWwJnjx3UMRVhhmqXitW6Vure+bTkLVTcrjjX5sEkc/qITgLTR3gAbf3QR0qYFHNpz/Jxz8metb+mKxgrNe4iTW57wcVsde1P78uWheN1Xf3eXpnuisv8jx6Qo2oF73IJxnU/fSCbF36r36XNfz+WElVTncYYDT287Q9Z+MkgryapEIxtBn0iEFUQXRCA3Ub+rE12vQlGI/wIRGjHpycqEV7BeJwSx2fktw/v0+a/WL3t8fI8/WxcYLwLjq/p9KByKjTQxRMnVh8nP9kExR6CcenYp7W4y1eopMCra4iq20i4b84b/bVZrHv4EniI/WF4O31p+8e+lKIVrzFu05/497FzxXSp0ryX+Z4uF1ylJ3H7d8o6tdp4+lCMB4GAoGDtNbmq8pyMYyYSIAEScBoBCkan9SjbQwIkYEsgdaVgnOyaN1lw7J7CChSVWn0fkVINnWmGt/uPWbJy0ou62V2GTnURNQaLjAQjVr4gnpRaNG7RnzBxnD6ysz7uOmK2YAXSW7rcgnHyU9frlaAarZTJa1dPk9eMvKRCMLZ9+DMt8Oa8eZtuBsxzWz3wgXgTjMYz63a4X+p0vM+j6VjNgwBFuv72kQLRjQRvrXgfrEZ2GjJJ57n/sfOSCm+zU55poS9t/eCHAjNa9xSzZo6smKCEvRK8EPFGSjobJ9Oea6tPG3Z7Uqq37G8U8TMDAhdTkmXHLxNkx5zxtt8hWGWsd88wKVD+6t4DmgFGFpMACeRCAhSMubDT+MokQAK+ETixPVrWKc+HdnHWAgICpUKrblK9233a0YhvNeeeq9fOUKuAi8Zrhyg3D5tm++KJZ2K1c5jQ8IIuK1aGSWp6q4KGsLnpia+lSPnatvUj83IKRpihYhUVqZNa6StYuqo+tv7JrGDEPQYzHDe/6zUJCA72iMOYmWfifsMMtGabAVL/lkeQpcxYO2hzVTuPrPoC9cfgajVJhenoL2+lenCFWAwKCjEuNz9TlGnu4a2pQrHvW8sl0HKN0Qe4GOK+fL32UqxKA70aa12pNCvjgQsBrDJGfzVasMfRPQUEBkrl9v2k2i33ODpGq3u7eU4CJOBsAhSMzu5fto4ErmoCSfGxsvG7D+Xg6vm2HCLLREm9gcMEn05Piz5/TA5tXi5larWQG+97x6fmGoIxvTiMhmOatoM+leJVGnmt3xAr6YlP95uNujOKw2iIQdzf+7XFagIgzUzTqNO4Jr09jFhhRLqg9nPOePEWLepQF/YzLv/2OYGDnx4v/6avgbfZecqBDFLP0fMlT95Ifez+x2BYtm4raTHwTb0KipVJpBvufFkqNOzgfos+txOMMWt+UauHqXtRbW9yy+w6YpYShiXMXJidrpn2puxePcvMMw7g6Acrj0Ur1jWy+GlDAGa/u36dLNtmfmW72hheopz2pAqPqkwkQAIkkNsJUDDm9h7k+5MACXgSUOEN9iydKVt//Nw2pENwWD6pdutAqdi6h8tePM+KnJPz+9fPyr7o+VoItH9srE8NM8ROTheMCBMxf8yDum3+EIyoCPstIXKRsB8SgtMqGI/v3Si/vnu3Lu/24hztsEafuP1Z+OkjesWvYqOO0vSOUWLdn9j8njdsPaiiCjvBuO/vhfL7V0P0E+B9NUD9z2tSK15l69xou68U+1oPbvxdDm5eJkfU3k7DURDqur7/CKl03c1eq2VBKgGE4ln39WiJ3b3ZAwmsFyq26Sk1lPVCoAp3wkQCJEACuZUABWNu7Tm+NwmQgC2B+EPKXEzFVIyN8fwBhxtKNrhR6vR/XEIjC9ve79TMDXO/kPW/fKYdmfRSq2+BPjjnyCmCse3Dnyuvpw28dlH8iYMyc1RXXe7NJHX3mtk6rEhmVhiNB61QnmVjlIdZI1kFY1LCaZk2rI0ugodYeIq1S3gvvN81nR9KdW6jLjJCjiC8CFZc3ZPV3LXzs1OkQIlK+pK4I7tl9mt99HF6ItW9vozOETMT+1jPxh4VeGzt8twPGd3CckUA4j9mwTTZOuNLwf5S9xRerIzUu3uoFIqq417EcxIgARLIFQQoGHNFN/ElSYAEMiKQGmx77L/BtlM8LofXU3g/hRfUqzFhPxtWuZCqt7xNmR0+YYsBZpjJ5xOVaWV+szy7BSO8esK7J/YRlquf6rDFfDnLwQXllOS7wanxI6u16CuNegy2lKpDtfI8Y9StZvzB/u+mxZM0BLXh9MZ6I0ThjBdv1h5mkW8VjDg33q9ElcbawyryrOnEvs0y950BOssqKuHJNPbQDq/7SldNHmXGkmz/+FgdHgSVoJ1ThjTXZq3VmvdRMROftj7OPIaQgZdWa1+iEPEX4V3VLiHsyPJvh+uifu+sumpW4O1Y+JqHPdJrx74sJ3du8LxVOYqqcGM3qdnjAQkKDfMsZw4JkAAJ5GACFIw5uHP4aiRAApkjcGzTaln/7ZuScPKoxw3wElmpbW+prkxQr3azsLlvD5AT+1NXXsvXb6e8iD5u7m2DeeKB9YvV3rY3dNw+Yx8fgGa3YISDFzh6wf7L5gPf0KujZ04ekr9//lQaqwDzIWHhZr8b4SaQgb2C2DOIhJWfLYsnqXs+1uf40/MVtecwX+qew/QEI67du+43WfbNUBx6CEaEofhjyiu6zN07K2IxLlBmsnrVrnhF6TL0e30d/uxYNk1WT30t9T61woiVRiQIPcS3RPgPIzUb8KqUb5AaDgN56+d8Jht+/UIX1+34gIqZeJfp2ObihQtyaOsKWTv9PQmNKCTY+2kkhAqZNbqn2jPZUTnfedjsf6PcEKlwhgOPt0w+EoA5/OLpskWZwycnJnjcjIkreFItUq2+RxkzSIAESCCnEqBgzKk9w/ciARLIkEBi3AnZMOk9Obx2ie21BSvWlHp3PSMRpSrall9tmTBlnKv228HpiZFgmhmo/jt/Lt7IUgIsQrqOnG16Sr0UwQjvoGdPpQl549kQ8kEhoeYzo67v5nXVc8uC8bJ25vv6WrxvRNGyOsYgMqo26yWNez1j1mM110QmhA8c0WAlT5+rlTWEAbl4IUULvyIV6krL+96VjAQj7oWAQ+xE9xVGCLz5H94vx3ZH62fgHQuUjJKU5ETzPdHemx7/SgqXS3OCgpXCGSO7aKc6uBHcI4qUEbQhRa304p68BYrpFUHUCXF76wsztWBG+S+v95M4JUiRcG1+ZUYaGByin4n2IeFdu6pQKLgfySo0cZ6/WHkdl/NiSooc3bXW/HfQbMBoJVDb4xKmLBDA5BU8qR7fts727nLNukit3oME+6mZSIAESCCnE6BgzOk9xPcjARLwIKD3DC38Qbb9NFaSz6WJH+PCkLwRUr37/VKhxS0eMQONa67WT5gorlGrWnvWztOiycoB4qJK055SU61WWcMrGKt2WMmq0+E/1lvMY9OT6aNfSLFK9cx8Y5+emeHlIKpJV7muX6oppPslF1SIiKVjh8jBTb+7FGG/YBN1T97IYi75p5TgWvrlYMFqmjXBaU3zu1/TTmwMARn576qfIRhLVrtOWj80xnqbeZwQd0x7TQ3NV0C6j5pr5usDtbK0cd5Y2bRgnIsgR1mxyg2k2YBXtPhzvUkE5q4rJ4yUAxtdJz0g5HBPzJ9zdTgU4z5riAwIzuiZH8nWpZNt+7Jai35So9VtHt5i4TRn07yvzNVmo258wlQVprxl6zgzHqm1rVfieN+y2bJp6seSnHDG43GI/XrNAGUmX7uJRxkzSIAESCAnEaBgzEm9wXchARLIkEDcgZ0SPXa04NMulb62rdTu+4jkiShoV8w8CwGstMG084JaXQpXQiG8cClLac47xLvGHYlR++oC1EpdLdOc1NubwswWq3Vw8IMVP18c/XirMzP5506f0CuaYfkLa0c1WP3LKEEUxx3do8VmgVJVXAR7RveiHCavcUd26VXbiCJlbcWpez1Y7cUzE+NPSh41WRBeqJTgnZn8S+DcqX/k73FvyrGNq2wrLnt9B6mlvrMw0cVEAiRAAjmRAAVjTuwVvhMJkIAHAewH2jr9f7Jn0XS9x8v9grxFSqq4Z0OlcNW01S33a3hOAiRAAtlF4MCqX2XjlI/k/Jk4j1cIjSwkde8YLCWuaeZRxgwSIAESyG4CFIzZ3QN8PgmQQIYEDv21WDZ996Fgpt49Yc9W5fb9pGqXAXr/lns5z0mABEggpxBIjDsp6ye8JUeil9m+UunGbXTYn5DwVGdMthcxkwRIgASuMAEKxisMnI8jARLIPAE4joD3U3hBtUuFKteR+srjYL5ipe2KmUcCJEACOZLAwTULZOPkDyQpPtbj/WBOX7vfowLxyEQCJEACOYEABWNO6AW+AwmQgAsBhAXY9dtk2T5rnG0g7Dxq9r1mr/9K2aYdXe7jCQmQAAnkFgIwTYWXZ4hHu1SiXjOpe/tggbkqEwmQAAlkJwEKxuykz2eTAAl4EIiN2SzR37wu8YdiPMqQAZFYq8/DdBBhS4eZJEACuY3Akb+XyfrxbwnMVd1TSL78+vsOjnGYSIAESCC7CFAwZhd5PpcESMCFQLIK97B56qeyd9ksRC53KcMJzE5hfgozVCYSIAEScBKB8wnxep/2/pVu4Vr+bSRCbyAEB0JxMJEACZDAlSZAwXilifN5JEACHgQOrJqnY5UlnfacYQ8MySNVO90plW/qR6c2HuSYQQIk4CQCCL2BEBx2Dr6C84ZLLWWKX65ZFyc1mW0hARLIBQQoGHNBJ/EVScCpBBKOH5Z1X78qJ7ZH2zYRITIQKgMhM5hIgARI4GogkHzurGz6fozsWzbbtrlFqtWXesraIm+h4rblzCQBEiABfxOgYPQ3UdZHAiSQIYELyedl59yJsmPOeMGxe4KTh1q9H5bS17Z1L+I5CZAACVwVBI5vWyfRX40WeIt2T8GheaVG9/ulQstuIgEB7sU8JwESIAG/EqBg9CtOVkYCJJARgZO7Nsg69SPo7LGDnpeqHz4VWtwiNXo8IMFh4Z7lzCEBEiCBq4hASuI52fzDZ7JnyXTbvd2FoupIg4HDaYVxFf2bYFNJIDsIUDBmB3U+kwRyEAHslVkzZpjU7D1IiigT0MuVkpQL+c3KzMqbU4eIUhWl3l3PSMGKNS/XK7BeEiABEsiVBE7sWC/Rynz/7D+eE23Y5129671SuV3fy9427DPPk59hPi47aD6ABHIYAQrGHNYhfB0SuNIE/h73huxb/rN+LOJ+1eo1SHsk9ed7YC8OZskRd8wuYUUx6qb+dkXMIwESIAESUAQunE+SrTO+kN3zpypH0hc8mBSsVFPt+R4m4SXKeZRdasaxTatVXNxvVOiPE9Jq1HhlBRt4qVXyfhIggVxEgIIxF3UWX5UE/E3g9KEYWfrSQJcfH4hxWKlNL7886syRfTqmIsxQ7VKxWtdK3TufpvMGOzjMIwESIAEbArG7N2lnYfh+tUvVu90nVTrebleUpbxlrz4osXu2mPdeM2CIlLuhs3nOAxIgAecToGB0fh+zhSTglcCq9wfLP5vXmOX5ipaW1i9PNM8v5QAz4XBqY5fCChaV2v0fl5L1mtsVM48ESIAESCAdAnAWtm3mV7Jr3mS5eMFztbFA+Wrak2p+Zep/qWnTlI9k94KpZjXwztpq1ASGOTKJ8IAEnE+AgtH5fcwWkoAtAZgY/fHB0y5lDe8fKaUatnLJ8/Xk+Na/JFqZuSJkhnsKCAyUiq16SDW13wZe/phIgARIgASyTuDU3m3aiVj8oRjbSqrdco9U7XKXbVlmM5PiY2XBsH6SknTOvKVOv8ekQqvu5jkPSIAEnE2AgtHZ/cvWkYAtAex/gSkqTFKNVKhybblhyBjj1OdP/KjYOPkDObhmge29kWWipN7AYYJPJhIgARIgAf8QuJiSLNuVNQcsOnDsnrDKWP/e5yWybNa/e7fO+FLV/61ZdWhkYWnzymSBwx0mEiAB5xOgYHR+H7OFJOBBAE5u4OzGmpoP+1xgxuRzunhR9iyeIVtm/E+SE8543I7wGPDgV6FVNzpK8KDDDBIgARLwDwFMAK77cpTE7d/pUWFAYJBEdeivVxsDg0M8yjPKwHf7/GF9XL7ja/Z8SCq3v/yeWTN6N5aTAAlcfgIUjJefMZ9AAjmKADztzR/WV+Ae3UilGrWWhveNME4z/QkzKMRUhFmUXSrVsKXUVqZLmI1mIgESIAESuLwELl5IkZ2/TtIeTbHP0T3Bg2oDtdqYlcnB7T+Pk20/jTWrzBMeKW1GT5Gg0DAzjwckQALOJEDB6Mx+ZatIwCuB7bO/0c4SjAsCgoKl9UvjfQr8jL0s+OEARwh2DhfgFAHeT+EFlYkESIAESODKEoAH1XVfj5bY3Zs9HoyQGJXa9taWH76YlKYknlN7GfsIYuoaqfqt90qVzncap/wkARJwKAEKRod2LJtFAnYEsKq44Ln+Ls4LEOy5Zq+H7C63zYOznL+/eV3OnfrHoxxmT5Xb9RE4WvDlh4hHRcwgARIgARK4JALYq757/veybcZYSTmf6FFXeLEyUu/uoVIoqo5HmbcMrF5uUTF1jRScN1zaqlVGfDKRAAk4lwAFo3P7li0jAQ8C68e/LXt/n2nmh8Ck6JVJgn2GGSUIxA0T35Uj0ctsLy1YsabUu+sZifCDG3fbBzCTBEiABEjAZwJnjh2Q6K9flZM7beLhBgQoz9XdpUaPByQoJDTDuvWWhmd7uawyVul0p16tzPBmXkACJJBrCVAw5tqu44uTgG8EzhzdL4tHDBDMOhupdt9HpGLrnsap7WfqLPVU2a5ifiUnJnhcE5Ivv9Tofr+Ub36zKK82HuXMIAESIAESyGYCyjlZzOLpsuXHzwSmpe4pb5GSasLvWSlSrb57kcd5zMJpsvG7D8187GHEXkbsaWQiARJwJgEKRmf2K1tFAh4EVn/0rBzdsNLMz1estLQeNdE8tzuI3bNFe1M9fWCXXbGUua691OozSPJEFLQtZyYJkAAJkEDOIYD4uNHfvCbHt63zfCk14Ve+2c16i0JwWD7P8n9z4ExngXKclhh3wrzG160N5o08IAESyBUEKBhzRTfxJUng0gjgx8HKdx53qaTRg6OkZP0WLnnGSfK5M2qfyueyd+lMlxVJoxyz0fXV3pfCVesZWfwkARIgARLIJQTw3b552qeC73r3FFagqNS7Z6gUrdHIvcg837vkJ1k/8R3zHHvWEZeRHrFNJDwgAUcRoGB0VHeyMSRgT2DJi3cLYnQZqVDl2nLDkDHGqcvngVXz1A+Jj9XscVrYDeMCxO+K6nibVOl4h2QllpdRDz9JgARIgASylwD2pUd/9ar8s+VP2xcp16yL1Oo9SO1x91xthHfshc/1k4STR817K7TsLnX6P2ae84AESMA5BCgYndOXbAkJ2BI4sOpXHSvRWth82OcecbjOHjso0eNelxPbo62XmseFKteR+vcME5iyMpEACZAACTiDwP4Vv8im78fI+bOnPRqU3moj7oN5q5Ewidhq1ARBWCUmEiABZxGgYHRWf7I1JOBCAB7tFg6/zSUERunr2kmDgcPN67AfZfvscbJr3mSxC/SM/YkIu1H2+g7mPTwgARIgARJwDgFYlKyf8JZXL9jeVhsXvXCHwKGakXDdNSoGLxMJkICzCFAwOqs/2RoScCGw45cJsnX6/8w87DNp/fJEwawxEmIqrp/wtsARgkeCA4Tmtyh36/dLSN4Ij2JmkAAJkAAJOIvAob8Wy8bJ79luSbBbbTy4er6s/XKUCSEgMFBavTRe8hWlJYoJhQck4AACFIwO6EQ2gQTsCJw/Eyfzh/aRlKQ0F+pRN92mBSD2rmyc/IEcXrvE7laJLBMlde8cLIityEQCJEACJHD1EEhOOCMbp3woMDm1S2WbdlTesR82JxIXjxwg8Yf3mpfCe3b9gc+Z5zwgARLI/QQoGHN/H7IFJGBLYMOk92XP4h/NshAVI6vNK5Nk7++zvcZUhHODarcOlEptepn38YAESIAESODqI3B821qJ/vo1SThxxKPxoZGFdNzGYrWb6InHPz97wbwmICBQbhzxtUSULG/m8YAESCB3E6BgzN39x7cnAVsC2FOCvSXWVPb6joK4ivGHYqzZ5nGphq2kdr9H6RbdJMIDEiABEri6CaScT1TbGr6Q3fO/twWBve21+j4iK99+TOL27zSvwXjS8P6R5jkPSIAEcjcBCsbc3X98exKwJfDnJ8PlcPTvtmXumYipWG/AEClSvaF7Ec9JgARIgARIQE7t2aq9bccf3uNBA6uNpRq1lpiFP7iUtRj+pUSWjXLJ4wkJkEDuJEDBmDv7jW9NAl4JnNy1UZa/MchruVGgYyp26C9VOt3JmIoGFH6SAAmQAAnYEriYkixwpLZjznhbj9ruNxWv21SuHfSqezbPSYAEciEBCsZc2Gl8ZRJIj8CyVx/UpqfpXVO0RkOpe/vgDGMqIi5X8rmzkpyYICnqEw50zp+NN891vgrdgVSxdQ/Jo/ZJMpEACZAACeQ8AnEHdkq+IqUEe9UvJcHBDeIvxu7elGE1zYZ+KgUr1MjwOl5AAiSQswlQMObs/uHbkYBPBA6uWSBrv3gp3XvCS5ST4spRgRaCWgwqIZh4TuAZLzlRicN/BSJiOPqSaH7kCy1eSwIkQAJXjgAc1ywY1lc/MCgkVILzRWgvpyHqM1iFTcJnSL78/36qvDB1Hp56Tdq1AiqFTQAAHWRJREFU+SVPRIHUl754UWIW/ajDNmHi0FsqWqORNHn8bW/FzCcBEsglBCgYc0lH8TVJIDMEFqgwGgknj2bmUr9fc8OQMVKocm2/18sKSYAESIAELo1A3L7tsvSV+y6tkn/vDsoTpsUmhCSsTmzj+Fqe1HTwB1K4yjWWHB6SAAnkNgIUjLmtx/i+JOCFAGZ7N05+30vp5c/GLDJmk5lIgARIgARyFoF/tvwpq957KlteCvF8mz37SbY8mw8lARLwDwEKRv9wZC0kkK0EYD46X5kbJZ0+6bf3CA7NK0Hqv9TPsNTjPCov7N88NcuM8qDQMP3MMte1k/DiZf32fFZEAiRAAiTgHwLHt0fL3+Nel7PHDvqnQh9rgfMbOMFhIgESyJ0EKBhzZ7/xrUnAhcCueZNl59xJas9JpN5j4iL2/hV2wUroQdwFQ/RB6KnzEOX8AOZF+j8tDv8VgSqPiQRIgARIwHkEks+d0c7LzicoB2bKiRkcmcHBGc61UzMjL0HlwcmZpRx73LOSsHe+5chvJCAgMCu38x4SIIFsJkDBmM0dwMeTAAmQAAmQAAmQQG4hkHQmTgtMLSS1yFTC8owSluf+FZ9nDPGpvGwrZ2pJp2MlSQnS2n0ekTJN2ueWZvI9SYAELAQoGC0weEgCJEACJEACJEACJEACJEACJJBGgIIxjQWPSIAESIAESIAESIAESIAESIAELAQoGC0weEgCJEACJEACJEACJEACJEACJJBGgIIxjQWPSIAESIAESIAESIAESIAESIAELAQoGC0weEgCJEACJEACJEACJEACJEACJJBGgIIxjQWPSIAESIAESIAESIAESIAESIAELAQoGC0weEgCJEACJEACJEACJEACJEACJJBGgIIxjQWPSIAESIAESIAESIAESIAESIAELAQoGC0weEgCJEACJEACJEACJEACJEACJJBGgIIxjQWPSIAESIAESIAESIAESIAESIAELAQoGC0weEgCJEACJEACJEACJEACJEACJJBGgIIxjQWPSIAESIAESIAESIAESIAESIAELAQoGC0weEgCJEACJEACJEACJEACJEACJJBGgIIxjQWPcgmBixcvSMKpY3I29qgEhYRKZLHyEpQnLMO3T4g7JufPnZHI4hUzvDa3XnAhJVnijsbIqUM75ULyeQnNX0gKlakueSOL6iZdSDkv5xPizeYF58mbKXbmDTYHyUkJcurwLilSrpZIQIDNFWlZSQlxcjElxczIky9SAgKDzHOfDi5elMQzsWm3BARKaHiBtHMekQAJkEB2EPD4bgpQ300Fs+NNrugzz8WfkNiDO+TsicN6XIkoWkYKl62pvuMD9Xu4fP+rscIfTDI7rruPfYHBeSQkLDzLfDzqU79FQkLzZbk+3kgCOZ0ABWNO7yG+n0ng4oUU2TD3C9n421eCY2tqce9bUrZOS2uWy/HhrStl4aeP6Lw6N/1H6nZ6wKU8t58kxp+UlZNekoObfrdtSvn67aTZXa/KmmlvyPbfvzevqd3+Xrmm84Pmua8H+AHww/CbdH8ULl9LOjzxjdcqUpKTZMrTzVzK2z3yuRSr3MAlL7Mn1j7FPUHqB0CfN5dl9nZeRwIkQAKXhQC+hxf/7wmXuvu/u9rl3Ekne9fOkz+mjFYTsmmTkUb78L3c7tEvJLJERfn+mRuNbP15qUysY0BG4/qfP7wl25Z+Zz4/o/HKvNDLwdoZ78uWRePN0lI1b5BW979vnvOABJxGgILRaT3q4PZYv6BDwiKkQMlKknT2tF5Ru2X4jxJRpKzX1v81/V3ZuniiLs9XqKR0fWGm12uzs+Dc6ROCVbfAoOBMvwYGzSVfPCUQZEaKLFpOgtRsZ9yR3TrfEFObfvtati+fpldoIbovVTAe2rJCFn32qPFY6Tl6vuTJG2meWw8wIzvzlR466+zJw/rzUgTjPzHrZdm4YZKiVjgTz5yiYLTC5jEJkEC2ETi2a60sH/+CXDifJFh1Q7pUcXQlGgOrnXwFi2f6UbBoWfLlU3Jo83LzHozN+dX4c+7MSTG+5xt2e0qqNOshs0b3VBYmyZIQ94++/lKZ+DKub54/TrYt+179ZoiT5MSzcqmCceuiibJlySRJVGM2xl4KRvOfAA8cSoCC0aEd67hmKROfyYOb6pWscvXaSrMBo00zF3z5B2dgCnJi32aZP+ZBSTmfKI17DpEqN6QKl5zCyRBTGGC7jpilBu0SmXo1tP3HEZ30AIgbMMtap8N/TDNPmKfOfrW3h5ha8r8n5cCmpZcsGFOSzsnPr/eV+BMHpWKjjtL0jlGZem+sNGKQvRTBaDzoyPbVsuDj/3q00SjnJwmQAAlkB4HYQztkzhv99aMvVRxdzvc/vnejLPzkYTVRGSQ9Xv4t04/CBGT07DH6+ojCpeXG/7wjBUpFmfdjlRWrrRCM1Vv20/lxR/eoMamXPr5UJlkZ17csmiBrZ7x3yYLRaOS6mR/K5gXjKBgNIPx0LAEKRsd2rbMaFn98v8x8ubtuVOdnp0iBEpV8buDFCxfk4sUUNSiG+Hzv5b4B+wANcx1fBOOfP7ytzGwm69drfs8bUu6a1i6vagzOxgqjUegvwWjUh/fHfsjMJgrGzJLidSRAArmVQG4RjPs3LJalXw7We8AzKxixcjp9RGc9iZtf+RHo/Mx3HpYxxjhzuQQj/l34Oq5TMObW/zfxvbObAAVjdvcAn58uAZg8wnQy7kiMrP0pdX8AhFFQcJrog8ObElUau9SDQeTQljQzGWthkQp1vTpHObZ7nYtTGDhxKV0zdd8dNtcf2xktJw9slYKlqwj2Bdo5bLmgVs72r1+iHMHs1KY3cDhTsFQVPaMZXriU9VXk6I4/BWIrWa3ULftmqC5r0u8FCVPOatxThDLziSxewczG6t6UZ1roc2/mNTDV/Gv6O5JHmQk16vm0ea8xkBsmqWjT8T2bJPbQdgkKyqNniSs26iBwDOCePBj9ewF+NOC/zKSsCkaY7OJH2CnlWOG8Wl2F+S74Rc/6iCuMmQHPa0iABK4YgawKRoxf/+xZr5zHHJIzsUckMCBIilSqI0UrXGNa1nhrBKxKDm1arqw+DukJ0gLFK0nBMlWkSPnaLt/nGKcOb/tDV3NEjUNbFo7X36HN73ndtuoiFeq4OKnBeIx7kNo+/LkUj2rgcd/OlTPUGLdGoq7vJsWrNNLlxiQmTrDCiDHquGrr8T0b5dzp4xKuVipL1WyqnbW5V5jVcd1az6UIRkxcxyqHcnGHd+vfJXkji8mhrStk77rfuMJohcxjRxKgYHRktzqjUTDT/G7wDRk2BqKt39srXa47c/KQ/PTSrS55xknrh8ZIyWrXGacunzNeusXcd2EUtH9srDY52b9+kZGlPys3uVWa9HveJQ/mkYs/f9xlP6H1gmKV6sm1fYap/ZeVdfb3z7Y0zUmt19kdV295mzLtecIsij24Xea8eZs+b/3gh1Ky+vVmWUYHhmCs2ry3FuN4b/cEj6PaWYGbV9mpQ1vbOjeo0foOaXDrY+7V2J77Khjh3RbCd9eqn2zrQ6b7KqrXC1lAAiRAAleAgK+CEZOjcM6C7znrnnTjVQuWript/vuxi3AzyrCfcOnYp706PsP3Y6129+gtC7jHKtyMOtL7bPXAB1KqRlPzkoWfDNKCE2MZVhczm6zPxeQvJkrdndihruo39peG3Z90qTar47q1kqwIxtP/7JMVak/q8T0brFW5HHMPowsOnjiQAAWjAzvVKU3CILL821RBlnT2lDkbWr5+e5cmBqsVxib9X3DJw6zlmqmuM6V7183T16QnGKNnjZH44wf0dXBcYGzORwYcyZRUq437NyzSohJCta/yymmsMuKZPwxvp+8Niygs1Vr00XsRMUBij4ghyjo8OU4Kl6upr8M74j60dd/fC3ReiarX2v4gqHRdF3O1ExfuXfubcvqSuirZ7cWfVeiMYvr+zPwxBKNxLRwdRF3fXbsZP7J9jRzYuEQX2Q2C+EGDlT4jYRUY3vEul2DExAHEv9EXxaMaqpn2utptOwbyPX/N1fwoGI0e4ScJkEBOIOCrYMQ7zxzVVe8JhxBDSApYpWBlK+bPX3STKjXuItffPlIfW/9YtyfA+gUTiMmJCSrMxTYlIpdp5zuwxGkz6BN9G77D8V2OBCFmiCH38VVfoP7Uu+VhwT5FI814sYsObVWhYUe54c7M7V3HvVbBaNRVocFNUlRNpiJc1vZlU80JSQhRY3IV12Z1XDeeg09fBaP7+4JtgZJROmzViQNbTIc/dmOl9bk8JoHcToCCMbf34FXy/lkZeN3RTH7qei0s0hOM1nv+mPyy7Fw1Q2c17jFEqrborY8h7r5TTlvw2WXo92ZcR0PAQbj0eHmehyMeOLQ5qLzJ2TncycoeRoQYWf/LZ/qdfHUeYBWM+AHS5LYXlPVtaqwsVGg1N8LqrSGK9cPc/sz/6AE5uvOvyyYY1/30gWxe+K1+KmbXIaitCWZVmO2mYLRS4TEJkEB2E8jKuIUYujC1z1vAdQJwx7Jpsnrqa/q72N2iBu00BFzdDvdLnY73uTQdsYsR+qJgmWq2+/993sOonNBNejLVSqduxwfMVUuXh3o5sQowfGff9MTXaotHVfNqhIiCIzeMr5mZhPR1XPdJMKp2znnrdiW6t+tYxrA2ct9WYoyVFIxmF/LAoQQoGB3asU5rVlYGXncGvg4shmDE7OcNA15xqQ6eR7FXBIMd9oYgGYMujjsOHm+7BwNldikrgvGP716RnSun6/2YmXVUYDzbEIzYX9lt5M+CvZrWhJne6SM766yuI2an62r9cgtGo99qtFImr109TV7pJdXaczwmARLIKQT8MW4ZbUHIC4hCpN6vLfaYkJytQhbFKYuLMrVaSIt730x3ks+o0/g0xi5sQ8jMWJKUcFqmDWujb7+u73BlndLVqCrDT6tgxEopJizd0/Jxz8metb8qPwHtVfzg0e7FLufG+JDZiWBfBOPJA9vkFyUYkbxt+6CXVJfu4ImDCVAwOrhzndQ0fwy8vg4shmDEhv3r+j7ngvPAxqXafKZs3VbKQU1hXYY9JFPVnkRj7wnMicrUuVFv9i9WCc4KglzqsJ5kRTD6Y4UxvRncSU+kruRZRbH1nY3jyykYYYY6Xc02I3V6eqLLTLTxfApGgwQ/SYAEchKBSxm3khLilIO1bTqWYx4l5DC+/PbBf3Tzeoz6VUIjXB2jWUNcYOWuvJroLFGtsZSsep3HaqU7I18FI+43xge7FU33+q3nVsHY960VHp5Vce36OZ/Jhl+/EOz5xz769JKv47ovgnH3mtmycsJIr6u6eC8KxvR6h2VOIkDB6KTedHBbLmXgNbD4OrCkJxiNOt0/sddkmZodPbF3k0sRxGKZ2i2kca8htnsNsyIY9/z1q9rjmSpku704R5vMuDw0nRNjhdHwkmp3qeGYpu2gT00Pd3bXXU7BaIhBPNduVh35xjU0SQUNJhIggZxCICvjFryjrhg3XO9j9NaOXmqFMcQ99rAyn9yyeKIWMDDntCbsPazVfqDXlcCsCEbDBNaX+Lt4J6tg9LaVwhB1hcpU19Y61ra4H/s6rht1e/Msbq3f2A4Bfrc8n7o9xVqOYwpGdyI8dyoBCkan9qzD2pWVgdcdga8DS1YEo/FMmA/BqyocwhxRe+yMVUcIR6yUWTfy456sCEYELZ77zgD9yOZ3vSbl6rc1Hp/hZ24RjAg7Mn/Mg7o9FIwZdisvIAESyEEEfB23sBccE3BIxiRjRJGyavxIlNPH9snhranewPu+tdxrPGGIRdSzf/1idf0qvXXCQFKxcWdpevuLxqn5mRXB+NuH9wscw+UrVFK6vjDTrCujg8wIxq2LJ2mv2NktGOEEb9P8r7WzHwrGjHqW5U4nQMHo9B52SPt8HXjtmn0lBaP1+YgdhdXAlZNG6o381Zr3cYmJiGutIUQ6Dp6g9j9Ws1Zhe4w4hDCBRYIH1y7P/WB7HTblJ52N0/v/8uSN1NfkFMHoLX6X0ZD4Ewe110CcezNJNcyGuMJoUOMnCZBATiDg67i1avIoHVIDe8s7DZnk4i37rIrHOOPFm3WzvK3M2bUZ36Grp7xqis2eoxdInrz5XS49pJyxLfr8sXRNL11uUCdrp7+nVjQn6OwWA98UbM9wT8d2R8suFYuxeNVG5l7FHCMY1ZaRDk+Nc39ll/Mdy3+U1d+PTnWo9sbvHnv9cfGK8c9rD7Z0euOCjicOJEDB6MBOdWKTfB147RhcCcGIQT1fwRJ2j5eVE1+U3atnScFSVfSPAfeLjPiG1/Yepjypdncvtj23ulJv2O0pqd6yn8d1RqxH/ADBs5GyWzAi/AhcpGe0Mop9O98NTo39Va1FX2nUY7Br+5QZ1oxRt5qxM335IeVaEc9IgARIwL8ErI5q7ISa+9OMkBpVmnbX8Xqt5btW/iSrvhuls/q9s8rFqzUy4agsLLKIRz7KMGE47blUCxQ75zBnTqi4xep7FAkradbwGTrT5o/VmynCMnV8arzHvkrDsytCfMBpDFJ2C8Zdq2bKqskvZWpl1PDAjfdued+7UrpWcxyayeocrmjFugIvqkwk4FQCFIxO7VmHtSs3CEZjQIeb8RqtbnPxYpesVgN/eftOZVa0Vyo3uVWa9EuNL2ntpoWfPqJngUPCIqTj0xNcBm042YETgJvUgGR1ngNvdT8Mb69XLlEX9pPUv+VR08kBTGGnDW2tTWJzkmD85a07lEOHrdqjX/OBb2jHB4gF9vfPn0rjnkN0PEiDDYJRw7wXyTqTnZJ0Ts1wT1L3fKzL8KfnK/O1S3ozgwckQAIkkE0EEM5i8pNN9NMbdn1CqqtxAQkmo/uiF3hMgM17f6D8E7Nee77u/MwU06Gadb867nf/njNi1cIRzrV9huo4tbjOSNb7u78016zXKMensWcdjmZaPfCBOX7BQmbzgnF67HKPd/z37I9l429f6WqC1Z5KeDQtqcIeBSqnO0ib5n8j0bM+0jEhc4pgPLJjjSwY85B+P9OaR0087ljxo86zhr2Cee+059rpuJDwINvu0S9VGK0K+jrEscS2lQOblupziGZ4FGciAacSoGB0as86oF0YBPFljXRRrTQZ+wAxMFlTWHhBjw3pmNmd/Vpv62UqiPFZfQ7TxYCgYLMMezoMcxoM2LEqDhZSyvlEU4hZn4l4hZ2GTJTwQqXMOnAw9927XJzdYFM9rsHsLn4gYPCB2EPsxvzKhNQ9WWdeUYYZy+DQcB1Q+fy5eH25nWtv7GtZ8sVTJh9ciDaGRhTUgZX1jeqP1aTzUlYYEVLk7KmjRrUmV7QtKCTUzId32YbdnjDPrQdbFoyXtTPf11l414iiZeXU4V36vGqzXso50DPm5XFHdqu+7GOeY2CGaS0mEZCwhwYzveCLQb1Ihbp6Nti8gQckQAIkkE0EFnz8X+2YC4+HqSnGHsTkRWpx71tStk7qtgKc71wxXf6YkhbCCVsNEpW3VFhjYCLRGAfwPVeyWhMz3JN1rzfqCYsoLIXK1ZDgkDA5pWIIItwGUlSTrnJdv+H62P3P7j9mqW0Tqfsb8Z1crHJ9vbf+uHLghu9WJPd95Ji0W65MMo0JPaNOtDNZlRnvi9i5iKGLZB3nvFmEeNvDmNVx3XgvfOJ3BCZZjd8DkcUrCrxxG+/afZQS1IqfkTz6RF1/QdUBU18keEM/sX+zPka7YQlTq93d+px/SMBJBCgYndSbDmuLdV9fek2DUHEPZIzVqp9eSjWxSe9elDW761UV7ylVmBqxrDK6x7paZ1yLQWTb0imydckkF6FmlJeo0lga9njKNAs18q2fEJYrJowwf1AYZTARaqjMMeFp1S6diz+hTV7h5MAY3I3rILCu6fSQVLy2s2muZKzapRd02ZhxhltzzDobyTCdNc69fab34wR9u3TsEDm46XeX27EPpIn6QZM3sphL/iklGpd+OVjPclsL8EOk+d2vaUcRhoDEDwCIciYSIAESyG4CEBaLP3nYFG14H4xZEBb1bx5krsYZ74lwSbAmsX6Pl6rRVJr0f15+fW+gOTYUqVBHbno8dXUP98JiY/2cz+Xg5mUu96IMArBOh/ukZpsB6tmByLJN23+fKmtnvOsy+YgLi0c11JYfBUpF2d4Xs2aOuu89wTjknhDHuN7ND5sB730RjO5tzOq47v5O2LOJMdCYhEY5BHmDro/bepKFU6AV418wRSauB9PKKv5kQ3XPd083Q5ZO1Vr0UyvHTxmn/CQBxxCgYHRMV7IhOYkABs74f/bL+YR4bR4argRfSFh45l5RmcfEnzigRSd+WBQsXdXThXo6NWE/StzRGD2bjZW74Dx507k6e4vwAyDuSIwSsgFSuFytDM1J4egHK46Bapa+QMko2xhe2dsiPp0ESIAEXAnANDXu8G45rcIuheaLlCLla3sIResdEIvxxw9oKxdYowTlCbMWp3sME1J8RybEHVPPCFVbG0qpMah4ukLRWiEm8yDqsEcxVFnvRJao6NUjq/U+HMPbd+zBHXoFLkK9d74CauJPfbfnxITV0djDO/XqIiyBCqlxNqN3hRkqxiys3HoTzzmxrXwnEvAHAQpGf1BkHSRAAiRAAiRAAiRAAiRAAiTgQAIUjA7sVDaJBEiABEiABEiABEiABEiABPxBgILRHxRZBwmQAAmQAAmQAAmQAAmQAAk4kAAFowM7lU0iARIgARIgARIgARIgARIgAX8QoGD0B0XWQQIkQAIkQAIkQAIkQAIkQAIOJEDB6MBOZZNIgARIgARIgARIgARIgARIwB8EKBj9QZF1kAAJkAAJkAAJkAAJkAAJkIADCVAwOrBT2SQSIAESIAESIAESIAESIAES8AcBCkZ/UGQdJEACJEACJEACJEACJEACJOBAAhSMDuxUNokESIAESIAESIAESIAESIAE/EGAgtEfFFkHCZAACZAACZAACZAACZAACTiQAAWjAzuVTSIBEiABEiABEiABEiABEiABfxCgYPQHRdZBAiRAAiRAAiRAAiRAAiRAAg4kQMHowE5lk0iABEiABEiABEiABEiABEjAHwQoGP1BkXWQAAmQAAmQAAmQAAmQAAmQgAMJUDA6sFPZJBIgARIgARIgARIgARIgARLwBwEKRn9QZB0kQAIkQAIkQAIkQAIkQAIk4EACFIwO7FQ2iQRIgARIgARIgARIgARIgAT8QYCC0R8UWQcJkAAJkAAJkAAJkAAJkAAJOJAABaMDO5VNIgESIAESIAESIAESIAESIAF/EKBg9AdF1kECJEACJEACJEACJEACJEACDiRAwejATmWTSIAESIAESIAESIAESIAESMAfBCgY/UGRdZAACZAACZAACZAACZAACZCAAwlQMDqwU9kkEiABEiABEiABEiABEiABEvAHAQpGf1BkHSRAAiRAAiRAAiRAAiRAAiTgQAIUjA7sVDaJBEiABEiABEiABEiABEiABPxBgILRHxRZBwmQAAmQAAmQAAmQAAmQAAk4kAAFowM7lU0iARIgARIgARIgARIgARIgAX8QoGD0B0XWQQIkQAIkQAIkQAIkQAIkQAIOJEDB6MBOZZNIgARIgARIgARIgARIgARIwB8EKBj9QZF1kAAJkAAJkAAJkAAJkAAJkIADCVAwOrBT2SQSIAESIAESIAESIAESIAES8AcBCkZ/UGQdJEACJEACJEACJEACJEACJOBAAhSMDuxUNokESIAESIAESIAESIAESIAE/EGAgtEfFFkHCZAACZAACZAACZAACZAACTiQAAWjAzuVTSIBEiABEiABEiABEiABEiABfxCgYPQHRdZBAiRAAiRAAiRAAiRAAiRAAg4kQMHowE5lk0iABEiABEiABEiABEiABEjAHwQoGP1BkXWQAAmQAAmQAAmQAAmQAAmQgAMJUDA6sFPZJBIgARIgARIgARIgARIgARLwBwEKRn9QZB0kQAIkQAIkQAIkQAIkQAIk4EACFIwO7FQ2iQRIgARIgARIgARIgARIgAT8QYCC0R8UWQcJkAAJkAAJkAAJkAAJkAAJOJDA/wFRiw2Ow36T8AAAAABJRU5ErkJggg==;" vertex="1" parent="1">
          <mxGeometry x="440" y="170" width="847.76" height="760" as="geometry" />
        </mxCell>
        <mxCell id="uyGF0R10JEFHj8agn2pT-2" value="DOM Nodes" style="text;html=1;strokeColor=none;fillColor=none;align=center;verticalAlign=middle;whiteSpace=wrap;rounded=0;fontSize=28;" vertex="1" parent="1">
          <mxGeometry x="760" y="60" width="186" height="50" as="geometry" />
        </mxCell>
      </root>
    </mxGraphModel>
  </diagram>
</mxfile>
